{"asset":{"generator":"glTF-Transform v4.3.0","version":"2.0"},"accessors":[{"type":"VEC3","componentType":5126,"count":754,"max":[0.3500000834465027,1,0.3500000536441803],"min":[-0.3500000536441803,-2.220446049250313e-16,-0.3500000536441803],"bufferView":0,"byteOffset":0},{"type":"VEC3","componentType":5126,"count":754,"bufferView":0,"byteOffset":12},{"type":"VEC2","componentType":5126,"count":754,"bufferView":0,"byteOffset":24},{"type":"VEC2","componentType":5126,"count":754,"bufferView":0,"byteOffset":32},{"type":"SCALAR","componentType":5123,"count":768,"bufferView":1,"byteOffset":0}],"bufferViews":[{"buffer":0,"byteOffset":0,"byteLength":30160,"byteStride":40,"target":34962},{"buffer":0,"byteOffset":30160,"byteLength":1536,"target":34963}],"samplers":[{"wrapS":10497,"wrapT":10497}],"textures":[{"source":0,"sampler":0}],"images":[{"name":"bush7_summer","mimeType":"image/png","uri":"20cfefd6c1094ef3.png"}],"buffers":[{"uri":"bush07.bin","byteLength":31696}],"materials":[{"name":"bush07","doubleSided":true,"pbrMetallicRoughness":{"metallicFactor":0,"baseColorTexture":{"index":0}}}],"meshes":[{"name":"bush7","primitives":[{"attributes":{"POSITION":0,"NORMAL":1,"TEXCOORD_0":2,"TEXCOORD_1":3},"mode":4,"material":0,"indices":4}]}],"nodes":[{"name":"bush7","mesh":0}],"scenes":[{"name":"Scene","nodes":[0]}],"scene":0}