{"asset":{"generator":"glTF-Transform v4.3.0","version":"2.0"},"accessors":[{"type":"VEC3","componentType":5126,"count":727,"max":[0.30000004172325134,1,0.30000004172325134],"min":[-0.30000004172325134,0,-0.30000004172325134],"bufferView":0,"byteOffset":0},{"type":"VEC3","componentType":5126,"count":727,"bufferView":0,"byteOffset":12},{"type":"VEC2","componentType":5126,"count":727,"bufferView":0,"byteOffset":24},{"type":"VEC2","componentType":5126,"count":727,"bufferView":0,"byteOffset":32},{"type":"SCALAR","componentType":5123,"count":732,"bufferView":1,"byteOffset":0}],"bufferViews":[{"buffer":0,"byteOffset":0,"byteLength":29080,"byteStride":40,"target":34962},{"buffer":0,"byteOffset":29080,"byteLength":1464,"target":34963}],"samplers":[{"wrapS":10497,"wrapT":10497}],"textures":[{"source":0,"sampler":0}],"images":[{"name":"bush4_summer","mimeType":"image/png","uri":"1e7d71a4bf89833b.png"}],"buffers":[{"uri":"bush04.bin","byteLength":30544}],"materials":[{"name":"bush04","doubleSided":true,"pbrMetallicRoughness":{"metallicFactor":0,"baseColorTexture":{"index":0}}}],"meshes":[{"name":"bush4","primitives":[{"attributes":{"POSITION":0,"NORMAL":1,"TEXCOORD_0":2,"TEXCOORD_1":3},"mode":4,"material":0,"indices":4}]}],"nodes":[{"name":"bush4","mesh":0}],"scenes":[{"name":"Scene","nodes":[0]}],"scene":0}