{"asset":{"generator":"glTF-Transform v4.3.0","version":"2.0"},"accessors":[{"type":"VEC3","componentType":5126,"count":44,"max":[0.30000001192092896,1,0.30000001192092896],"min":[-0.30000001192092896,0,-0.30000001192092896],"bufferView":0,"byteOffset":0},{"type":"VEC3","componentType":5126,"count":44,"bufferView":0,"byteOffset":12},{"type":"VEC2","componentType":5126,"count":44,"bufferView":0,"byteOffset":24},{"type":"VEC2","componentType":5126,"count":44,"bufferView":0,"byteOffset":32},{"type":"SCALAR","componentType":5123,"count":48,"bufferView":1,"byteOffset":0}],"bufferViews":[{"buffer":0,"byteOffset":0,"byteLength":1760,"byteStride":40,"target":34962},{"buffer":0,"byteOffset":1760,"byteLength":96,"target":34963}],"samplers":[{"wrapS":10497,"wrapT":10497}],"textures":[{"source":0,"sampler":0}],"images":[{"name":"bush4_winter","mimeType":"image/png","uri":"e606e345945084ec.png"}],"buffers":[{"uri":"bush04_winter.bin","byteLength":1856}],"materials":[{"name":"bush04_winter","doubleSided":true,"pbrMetallicRoughness":{"metallicFactor":0,"baseColorTexture":{"index":0}}}],"meshes":[{"name":"bush4_winter","primitives":[{"attributes":{"POSITION":0,"NORMAL":1,"TEXCOORD_0":2,"TEXCOORD_1":3},"mode":4,"material":0,"indices":4}]}],"nodes":[{"name":"bush4_winter","mesh":0}],"scenes":[{"name":"Scene","nodes":[0]}],"scene":0}