{"asset":{"generator":"glTF-Transform v4.3.0","version":"2.0"},"accessors":[{"type":"VEC3","componentType":5126,"count":730,"max":[0.5100000500679016,0.699999988079071,0.5099223852157593],"min":[-0.5100000500679016,-8.881784197001252e-16,-0.5099223852157593],"bufferView":0,"byteOffset":0},{"type":"VEC3","componentType":5126,"count":730,"bufferView":0,"byteOffset":12},{"type":"VEC2","componentType":5126,"count":730,"bufferView":0,"byteOffset":24},{"type":"VEC2","componentType":5126,"count":730,"bufferView":0,"byteOffset":32},{"type":"SCALAR","componentType":5123,"count":738,"bufferView":1,"byteOffset":0}],"bufferViews":[{"buffer":0,"byteOffset":0,"byteLength":29200,"byteStride":40,"target":34962},{"buffer":0,"byteOffset":29200,"byteLength":1476,"target":34963}],"samplers":[{"wrapS":10497,"wrapT":10497}],"textures":[{"source":0,"sampler":0}],"images":[{"name":"bush2_summer","mimeType":"image/png","uri":"914ff95c65236027.png"}],"buffers":[{"uri":"bush02.bin","byteLength":30676}],"materials":[{"name":"bush02","doubleSided":true,"pbrMetallicRoughness":{"metallicFactor":0,"baseColorTexture":{"index":0}}}],"meshes":[{"name":"bush2","primitives":[{"attributes":{"POSITION":0,"NORMAL":1,"TEXCOORD_0":2,"TEXCOORD_1":3},"mode":4,"material":0,"indices":4}]}],"nodes":[{"name":"bush2","mesh":0}],"scenes":[{"name":"Scene","nodes":[0]}],"scene":0}