{"asset":{"generator":"glTF-Transform v4.3.0","version":"2.0"},"accessors":[{"type":"VEC3","componentType":5126,"count":60,"max":[0.5,0.699999988079071,0.5],"min":[-0.5,0,-0.5],"bufferView":0,"byteOffset":0},{"type":"VEC3","componentType":5126,"count":60,"bufferView":0,"byteOffset":12},{"type":"VEC2","componentType":5126,"count":60,"bufferView":0,"byteOffset":24},{"type":"VEC2","componentType":5126,"count":60,"bufferView":0,"byteOffset":32},{"type":"SCALAR","componentType":5123,"count":60,"bufferView":1,"byteOffset":0}],"bufferViews":[{"buffer":0,"byteOffset":0,"byteLength":2400,"byteStride":40,"target":34962},{"buffer":0,"byteOffset":2400,"byteLength":120,"target":34963}],"samplers":[{"wrapS":10497,"wrapT":10497}],"textures":[{"source":0,"sampler":0}],"images":[{"name":"bush2_winter","mimeType":"image/png","uri":"af643e7ca8706263.png"}],"buffers":[{"uri":"bush02_winter.bin","byteLength":2520}],"materials":[{"name":"bush02_winter","doubleSided":true,"pbrMetallicRoughness":{"metallicFactor":0,"baseColorTexture":{"index":0}}}],"meshes":[{"name":"bush2_winter","primitives":[{"attributes":{"POSITION":0,"NORMAL":1,"TEXCOORD_0":2,"TEXCOORD_1":3},"mode":4,"material":0,"indices":4}]}],"nodes":[{"name":"bush2_winter","mesh":0}],"scenes":[{"name":"Scene","nodes":[0]}],"scene":0}