{"asset":{"generator":"glTF-Transform v4.3.0","version":"2.0"},"accessors":[{"type":"VEC3","componentType":5126,"count":480,"max":[0.3499999940395355,1.0000001192092896,0.3499999940395355],"min":[-0.34999996423721313,-4.9564359727582996e-8,-0.3499999940395355],"bufferView":0,"byteOffset":0},{"type":"VEC3","componentType":5126,"count":480,"bufferView":0,"byteOffset":12},{"type":"VEC2","componentType":5126,"count":480,"bufferView":0,"byteOffset":24},{"type":"VEC2","componentType":5126,"count":480,"bufferView":0,"byteOffset":32},{"type":"SCALAR","componentType":5123,"count":480,"bufferView":1,"byteOffset":0}],"bufferViews":[{"buffer":0,"byteOffset":0,"byteLength":19200,"byteStride":40,"target":34962},{"buffer":0,"byteOffset":19200,"byteLength":960,"target":34963}],"samplers":[{"wrapS":10497,"wrapT":10497}],"textures":[{"source":0,"sampler":0}],"images":[{"name":"bush1_summer","mimeType":"image/png","uri":"423c4941ffcf7455.png"}],"buffers":[{"uri":"bush01.bin","byteLength":20160}],"materials":[{"name":"bush01","doubleSided":true,"pbrMetallicRoughness":{"metallicFactor":0,"baseColorTexture":{"index":0}}}],"meshes":[{"name":"bush1","primitives":[{"attributes":{"POSITION":0,"NORMAL":1,"TEXCOORD_0":2,"TEXCOORD_1":3},"mode":4,"material":0,"indices":4}]}],"nodes":[{"name":"bush1","mesh":0}],"scenes":[{"name":"Scene","nodes":[0]}],"scene":0}