{"asset":{"generator":"glTF-Transform v4.3.0","version":"2.0"},"accessors":[{"type":"VEC3","componentType":5126,"count":46,"max":[1,1,1],"min":[-1,0,-1],"bufferView":0,"byteOffset":0},{"type":"VEC3","componentType":5126,"count":46,"bufferView":0,"byteOffset":12},{"type":"VEC2","componentType":5126,"count":46,"bufferView":0,"byteOffset":24},{"type":"VEC2","componentType":5126,"count":46,"bufferView":0,"byteOffset":32},{"type":"SCALAR","componentType":5123,"count":48,"bufferView":1,"byteOffset":0}],"bufferViews":[{"buffer":0,"byteOffset":0,"byteLength":1840,"byteStride":40,"target":34962},{"buffer":0,"byteOffset":1840,"byteLength":96,"target":34963}],"samplers":[{"wrapS":10497,"wrapT":10497}],"textures":[{"source":0,"sampler":0}],"images":[{"name":"bush6_winter","mimeType":"image/png","uri":"fbde402438a73376.png"}],"buffers":[{"uri":"bush06_winter.bin","byteLength":1936}],"materials":[{"name":"bush06_winter","doubleSided":true,"pbrMetallicRoughness":{"metallicFactor":0,"baseColorTexture":{"index":0}}}],"meshes":[{"name":"bush6_winter","primitives":[{"attributes":{"POSITION":0,"NORMAL":1,"TEXCOORD_0":2,"TEXCOORD_1":3},"mode":4,"material":0,"indices":4}]}],"nodes":[{"name":"bush6_winter","mesh":0}],"scenes":[{"name":"Scene","nodes":[0]}],"scene":0}