{"asset":{"generator":"glTF-Transform v4.3.0","version":"2.0"},"accessors":[{"type":"VEC3","componentType":5126,"count":573,"max":[0.5099999904632568,1,0.5099999904632568],"min":[-0.5099999904632568,-5.329070518200751e-15,-0.5099999904632568],"bufferView":0,"byteOffset":0},{"type":"VEC3","componentType":5126,"count":573,"bufferView":0,"byteOffset":12},{"type":"VEC2","componentType":5126,"count":573,"bufferView":0,"byteOffset":24},{"type":"VEC2","componentType":5126,"count":573,"bufferView":0,"byteOffset":32},{"type":"SCALAR","componentType":5123,"count":873,"bufferView":1,"byteOffset":0}],"bufferViews":[{"buffer":0,"byteOffset":0,"byteLength":22920,"byteStride":40,"target":34962},{"buffer":0,"byteOffset":22920,"byteLength":1748,"target":34963}],"samplers":[{"wrapS":10497,"wrapT":10497}],"textures":[{"source":0,"sampler":0}],"images":[{"name":"bush3_summer","mimeType":"image/png","uri":"c522dc854e79b8af.png"}],"buffers":[{"uri":"bush03.bin","byteLength":24668}],"materials":[{"name":"bush03","doubleSided":true,"pbrMetallicRoughness":{"metallicFactor":0,"baseColorTexture":{"index":0}}}],"meshes":[{"name":"bush3","primitives":[{"attributes":{"POSITION":0,"NORMAL":1,"TEXCOORD_0":2,"TEXCOORD_1":3},"mode":4,"material":0,"indices":4}]}],"nodes":[{"name":"bush3","mesh":0}],"scenes":[{"name":"Scene","nodes":[0]}],"scene":0}