{"asset":{"generator":"glTF-Transform v4.3.0","version":"2.0"},"accessors":[{"type":"VEC3","componentType":5126,"count":92,"max":[0.2199999988079071,1,0.2200000286102295],"min":[-0.2200000286102295,0,-0.2199999988079071],"bufferView":0,"byteOffset":0},{"type":"VEC3","componentType":5126,"count":92,"bufferView":0,"byteOffset":12},{"type":"VEC2","componentType":5126,"count":92,"bufferView":0,"byteOffset":24},{"type":"VEC2","componentType":5126,"count":92,"bufferView":0,"byteOffset":32},{"type":"SCALAR","componentType":5123,"count":96,"bufferView":1,"byteOffset":0}],"bufferViews":[{"buffer":0,"byteOffset":0,"byteLength":3680,"byteStride":40,"target":34962},{"buffer":0,"byteOffset":3680,"byteLength":192,"target":34963}],"samplers":[{"wrapS":10497,"wrapT":10497}],"textures":[{"source":0,"sampler":0}],"images":[{"name":"bush5_winter","mimeType":"image/png","uri":"27070cbbf14b83a7.png"}],"buffers":[{"uri":"bush05_winter.bin","byteLength":3872}],"materials":[{"name":"bush05_winter","doubleSided":true,"pbrMetallicRoughness":{"metallicFactor":0,"baseColorTexture":{"index":0}}}],"meshes":[{"name":"bush5_winter.001","primitives":[{"attributes":{"POSITION":0,"NORMAL":1,"TEXCOORD_0":2,"TEXCOORD_1":3},"mode":4,"material":0,"indices":4}]}],"nodes":[{"name":"bush5_winter","mesh":0}],"scenes":[{"name":"Scene","nodes":[0]}],"scene":0}