{"asset":{"generator":"glTF-Transform v4.3.0","version":"2.0"},"accessors":[{"type":"VEC3","componentType":5126,"count":784,"max":[1,1,1],"min":[-1,-3.552713678800501e-15,-1],"bufferView":0,"byteOffset":0},{"type":"VEC3","componentType":5126,"count":784,"bufferView":0,"byteOffset":12},{"type":"VEC2","componentType":5126,"count":784,"bufferView":0,"byteOffset":24},{"type":"VEC2","componentType":5126,"count":784,"bufferView":0,"byteOffset":32},{"type":"SCALAR","componentType":5123,"count":792,"bufferView":1,"byteOffset":0}],"bufferViews":[{"buffer":0,"byteOffset":0,"byteLength":31360,"byteStride":40,"target":34962},{"buffer":0,"byteOffset":31360,"byteLength":1584,"target":34963}],"samplers":[{"wrapS":10497,"wrapT":10497}],"textures":[{"source":0,"sampler":0}],"images":[{"name":"bush6_summer","mimeType":"image/png","uri":"f82fc8d82a601b48.png"}],"buffers":[{"uri":"bush06.bin","byteLength":32944}],"materials":[{"name":"bush06","doubleSided":true,"pbrMetallicRoughness":{"metallicFactor":0,"baseColorTexture":{"index":0}}}],"meshes":[{"name":"bush6","primitives":[{"attributes":{"POSITION":0,"NORMAL":1,"TEXCOORD_0":2,"TEXCOORD_1":3},"mode":4,"material":0,"indices":4}]}],"nodes":[{"name":"bush6","mesh":0}],"scenes":[{"name":"Scene","nodes":[0]}],"scene":0}