{"asset":{"generator":"glTF-Transform v4.3.0","version":"2.0"},"accessors":[{"type":"VEC3","componentType":5126,"count":822,"max":[0.40000006556510925,1,0.40000006556510925],"min":[-0.40000009536743164,-1.7763568394002505e-15,-0.40000006556510925],"bufferView":0,"byteOffset":0},{"type":"VEC3","componentType":5126,"count":822,"bufferView":0,"byteOffset":12},{"type":"VEC2","componentType":5126,"count":822,"bufferView":0,"byteOffset":24},{"type":"VEC2","componentType":5126,"count":822,"bufferView":0,"byteOffset":32},{"type":"SCALAR","componentType":5123,"count":840,"bufferView":1,"byteOffset":0}],"bufferViews":[{"buffer":0,"byteOffset":0,"byteLength":32880,"byteStride":40,"target":34962},{"buffer":0,"byteOffset":32880,"byteLength":1680,"target":34963}],"samplers":[{"wrapS":10497,"wrapT":10497}],"textures":[{"source":0,"sampler":0}],"images":[{"name":"bush8_summer","mimeType":"image/png","uri":"6bfd9d64865981e9.png"}],"buffers":[{"uri":"bush08.bin","byteLength":34560}],"materials":[{"name":"bush08","doubleSided":true,"pbrMetallicRoughness":{"metallicFactor":0,"baseColorTexture":{"index":0}}}],"meshes":[{"name":"bush8","primitives":[{"attributes":{"POSITION":0,"NORMAL":1,"TEXCOORD_0":2,"TEXCOORD_1":3},"mode":4,"material":0,"indices":4}]}],"nodes":[{"name":"bush8","mesh":0}],"scenes":[{"name":"Scene","nodes":[0]}],"scene":0}