{"asset":{"generator":"glTF-Transform v4.3.0","version":"2.0"},"accessors":[{"type":"VEC3","componentType":5126,"count":762,"max":[0.2200000286102295,1,0.22000004351139069],"min":[-0.22000004351139069,0,-0.22000004351139069],"bufferView":0,"byteOffset":0},{"type":"VEC3","componentType":5126,"count":762,"bufferView":0,"byteOffset":12},{"type":"VEC2","componentType":5126,"count":762,"bufferView":0,"byteOffset":24},{"type":"VEC2","componentType":5126,"count":762,"bufferView":0,"byteOffset":32},{"type":"SCALAR","componentType":5123,"count":768,"bufferView":1,"byteOffset":0}],"bufferViews":[{"buffer":0,"byteOffset":0,"byteLength":30480,"byteStride":40,"target":34962},{"buffer":0,"byteOffset":30480,"byteLength":1536,"target":34963}],"samplers":[{"wrapS":10497,"wrapT":10497}],"textures":[{"source":0,"sampler":0}],"images":[{"name":"bush5_summer","mimeType":"image/png","uri":"0de90bcde74dca80.png"}],"buffers":[{"uri":"bush05.bin","byteLength":32016}],"materials":[{"name":"bush05","doubleSided":true,"pbrMetallicRoughness":{"metallicFactor":0,"baseColorTexture":{"index":0}}}],"meshes":[{"name":"bush5","primitives":[{"attributes":{"POSITION":0,"NORMAL":1,"TEXCOORD_0":2,"TEXCOORD_1":3},"mode":4,"material":0,"indices":4}]}],"nodes":[{"name":"bush5","mesh":0}],"scenes":[{"name":"Scene","nodes":[0]}],"scene":0}