{"asset":{"generator":"glTF-Transform v4.3.0","version":"2.0"},"accessors":[{"type":"VEC3","componentType":5126,"count":138,"max":[0.5009999871253967,0.5,0.4999995827674866],"min":[-0.5009999871253967,0,-0.5000004172325134],"bufferView":0,"byteOffset":0},{"type":"VEC3","componentType":5126,"count":138,"bufferView":0,"byteOffset":12},{"type":"VEC2","componentType":5126,"count":138,"bufferView":0,"byteOffset":24},{"type":"SCALAR","componentType":5123,"count":144,"bufferView":1,"byteOffset":0}],"bufferViews":[{"buffer":0,"byteOffset":0,"byteLength":4416,"byteStride":32,"target":34962},{"buffer":0,"byteOffset":4416,"byteLength":288,"target":34963}],"samplers":[{"wrapS":10497,"wrapT":10497}],"textures":[{"source":0,"sampler":0}],"images":[{"name":"grass_bush_summer","mimeType":"image/png","uri":"2c122667a610b872.png"}],"buffers":[{"uri":"grass_bush.bin","byteLength":4704}],"materials":[{"name":"grass_bush","doubleSided":true,"pbrMetallicRoughness":{"metallicFactor":0,"baseColorTexture":{"index":0}}}],"meshes":[{"name":"grass_bush","primitives":[{"attributes":{"POSITION":0,"NORMAL":1,"TEXCOORD_0":2},"mode":4,"material":0,"indices":3}]}],"nodes":[{"name":"grass_bush","mesh":0}],"scenes":[{"name":"Scene","nodes":[0]}],"scene":0}