{"asset":{"generator":"glTF-Transform v4.3.0","version":"2.0"},"accessors":[{"type":"VEC3","componentType":5126,"count":858,"max":[1.0499999523162842,0.5000001192092896,0.9972256422042847],"min":[-0.9972255825996399,-3.552713678800501e-15,-1.0499999523162842],"bufferView":0,"byteOffset":0},{"type":"VEC3","componentType":5126,"count":858,"bufferView":0,"byteOffset":12},{"type":"VEC2","componentType":5126,"count":858,"bufferView":0,"byteOffset":24},{"type":"VEC2","componentType":5126,"count":858,"bufferView":0,"byteOffset":32},{"type":"SCALAR","componentType":5123,"count":858,"bufferView":1,"byteOffset":0}],"bufferViews":[{"buffer":0,"byteOffset":0,"byteLength":34320,"byteStride":40,"target":34962},{"buffer":0,"byteOffset":34320,"byteLength":1716,"target":34963}],"samplers":[{"wrapS":10497,"wrapT":10497}],"textures":[{"source":0,"sampler":0}],"images":[{"name":"grass_summer","mimeType":"image/png","uri":"525139024e6dba21.png"}],"buffers":[{"uri":"grass_patch_corner.bin","byteLength":36036}],"materials":[{"name":"grass_patch_corner","doubleSided":true,"pbrMetallicRoughness":{"metallicFactor":0,"baseColorTexture":{"index":0}}}],"meshes":[{"name":"grass_patch_corner","primitives":[{"attributes":{"POSITION":0,"NORMAL":1,"TEXCOORD_0":2,"TEXCOORD_1":3},"mode":4,"material":0,"indices":4}]}],"nodes":[{"name":"grass_patch_corner","mesh":0}],"scenes":[{"name":"Scene","nodes":[0]}],"scene":0}