{"asset":{"generator":"glTF-Transform v4.3.0","version":"2.0"},"accessors":[{"type":"VEC3","componentType":5126,"count":24,"max":[0.25099998712539673,0.5,0.2504997253417969],"min":[-0.25,0,-0.25050026178359985],"bufferView":0,"byteOffset":0},{"type":"VEC3","componentType":5126,"count":24,"bufferView":0,"byteOffset":12},{"type":"VEC2","componentType":5126,"count":24,"bufferView":0,"byteOffset":24},{"type":"VEC2","componentType":5126,"count":24,"bufferView":0,"byteOffset":32},{"type":"SCALAR","componentType":5123,"count":24,"bufferView":1,"byteOffset":0}],"bufferViews":[{"buffer":0,"byteOffset":0,"byteLength":960,"byteStride":40,"target":34962},{"buffer":0,"byteOffset":960,"byteLength":48,"target":34963}],"samplers":[{"wrapS":10497,"wrapT":10497}],"textures":[{"source":0,"sampler":0}],"images":[{"name":"grass_summer","mimeType":"image/png","uri":"525139024e6dba21.png"}],"buffers":[{"uri":"grass06.bin","byteLength":1008}],"materials":[{"name":"grass06","doubleSided":true,"pbrMetallicRoughness":{"metallicFactor":0,"baseColorTexture":{"index":0}}}],"meshes":[{"name":"grass6","primitives":[{"attributes":{"POSITION":0,"NORMAL":1,"TEXCOORD_0":2,"TEXCOORD_1":3},"mode":4,"material":0,"indices":4}]}],"nodes":[{"name":"grass6","mesh":0}],"scenes":[{"name":"Scene","nodes":[0]}],"scene":0}