{"asset":{"generator":"glTF-Transform v4.3.0","version":"2.0"},"accessors":[{"type":"VEC3","componentType":5126,"count":16,"max":[0.20000000298023224,0.5,0.20200000703334808],"min":[-0.20500001311302185,0,-0.20200000703334808],"bufferView":0,"byteOffset":0},{"type":"VEC3","componentType":5126,"count":16,"bufferView":0,"byteOffset":12},{"type":"VEC2","componentType":5126,"count":16,"bufferView":0,"byteOffset":24},{"type":"SCALAR","componentType":5123,"count":24,"bufferView":1,"byteOffset":0}],"bufferViews":[{"buffer":0,"byteOffset":0,"byteLength":512,"byteStride":32,"target":34962},{"buffer":0,"byteOffset":512,"byteLength":48,"target":34963}],"samplers":[{"wrapS":10497,"wrapT":10497}],"textures":[{"source":0,"sampler":0}],"images":[{"name":"grass_summer","mimeType":"image/png","uri":"525139024e6dba21.png"}],"buffers":[{"uri":"grass01.bin","byteLength":560}],"materials":[{"name":"grass01","doubleSided":true,"pbrMetallicRoughness":{"metallicFactor":0,"baseColorTexture":{"index":0}}}],"meshes":[{"name":"grass1","primitives":[{"attributes":{"POSITION":0,"NORMAL":1,"TEXCOORD_0":2},"mode":4,"material":0,"indices":3}]}],"nodes":[{"name":"grass1","mesh":0}],"scenes":[{"name":"Scene","nodes":[0]}],"scene":0}