{"asset":{"generator":"glTF-Transform v4.3.0","version":"2.0"},"accessors":[{"type":"VEC3","componentType":5126,"count":836,"max":[1.0499999523162842,0.5000001192092896,1.0499999523162842],"min":[-1.0499999523162842,-3.552713678800501e-15,-1.0499999523162842],"bufferView":0,"byteOffset":0},{"type":"VEC3","componentType":5126,"count":836,"bufferView":0,"byteOffset":12},{"type":"VEC2","componentType":5126,"count":836,"bufferView":0,"byteOffset":24},{"type":"VEC2","componentType":5126,"count":836,"bufferView":0,"byteOffset":32},{"type":"SCALAR","componentType":5123,"count":840,"bufferView":1,"byteOffset":0}],"bufferViews":[{"buffer":0,"byteOffset":0,"byteLength":33440,"byteStride":40,"target":34962},{"buffer":0,"byteOffset":33440,"byteLength":1680,"target":34963}],"samplers":[{"wrapS":10497,"wrapT":10497}],"textures":[{"source":0,"sampler":0}],"images":[{"name":"grass_patch_summer","mimeType":"image/png","uri":"3cb88c1ef8236bb4.png"}],"buffers":[{"uri":"grass_patch.bin","byteLength":35120}],"materials":[{"name":"grass_patch","doubleSided":true,"pbrMetallicRoughness":{"metallicFactor":0,"baseColorTexture":{"index":0}}}],"meshes":[{"name":"grass_patch","primitives":[{"attributes":{"POSITION":0,"NORMAL":1,"TEXCOORD_0":2,"TEXCOORD_1":3},"mode":4,"material":0,"indices":4}]}],"nodes":[{"name":"grass_patch","mesh":0}],"scenes":[{"name":"Scene","nodes":[0]}],"scene":0}