{"asset":{"generator":"glTF-Transform v4.3.0","version":"2.0"},"accessors":[{"type":"VEC3","componentType":5126,"count":735,"max":[1.200000286102295,1.5999999046325684,1.2000000476837158],"min":[-1.2000007629394531,-1.399999976158142,-1.2000001668930054],"bufferView":0,"byteOffset":0},{"type":"VEC3","componentType":5126,"count":735,"bufferView":0,"byteOffset":12},{"type":"VEC2","componentType":5126,"count":735,"bufferView":0,"byteOffset":24},{"type":"SCALAR","componentType":5123,"count":768,"bufferView":1,"byteOffset":0},{"type":"SCALAR","componentType":5123,"count":282,"bufferView":1,"byteOffset":1536},{"type":"VEC3","componentType":5126,"count":281,"max":[0.40529966354370117,2.762871503829956,0.5490720868110657],"min":[-0.6860030293464661,-0.1763090193271637,-0.6089479923248291],"bufferView":2,"byteOffset":0},{"type":"VEC3","componentType":5126,"count":281,"bufferView":2,"byteOffset":12},{"type":"VEC2","componentType":5126,"count":281,"bufferView":2,"byteOffset":24}],"bufferViews":[{"buffer":0,"byteOffset":0,"byteLength":23520,"byteStride":32,"target":34962},{"buffer":0,"byteOffset":23520,"byteLength":2100,"target":34963},{"buffer":0,"byteOffset":25620,"byteLength":8992,"byteStride":32,"target":34962}],"samplers":[{"wrapS":10497,"wrapT":10497}],"textures":[{"source":0,"sampler":0}],"images":[{"name":"tree02_summer","mimeType":"image/png","uri":"69d9f8a452b83875.png"}],"buffers":[{"uri":"tree02.bin","byteLength":34612}],"materials":[{"name":"tree02","doubleSided":true,"pbrMetallicRoughness":{"metallicFactor":0,"baseColorTexture":{"index":0}}}],"meshes":[{"name":"tree02_top","primitives":[{"attributes":{"POSITION":0,"NORMAL":1,"TEXCOORD_0":2},"mode":4,"material":0,"indices":3}]},{"name":"tree02","primitives":[{"attributes":{"POSITION":5,"NORMAL":6,"TEXCOORD_0":7},"mode":4,"material":0,"indices":4}]}],"nodes":[{"name":"tree02_top","translation":[0,2.1000001430511475,0],"mesh":0},{"name":"tree02","mesh":1,"children":[0]}],"scenes":[{"name":"Scene","nodes":[1]}],"scene":0}