{"asset":{"generator":"glTF-Transform v4.3.0","version":"2.0"},"accessors":[{"type":"VEC3","componentType":5126,"count":44,"max":[1.6800001859664917,1.600000023841858,1.6800003051757812],"min":[-1.6800001859664917,-1.399999976158142,-1.6800003051757812],"bufferView":0,"byteOffset":0},{"type":"VEC3","componentType":5126,"count":44,"bufferView":0,"byteOffset":12},{"type":"VEC2","componentType":5126,"count":44,"bufferView":0,"byteOffset":24},{"type":"VEC2","componentType":5126,"count":44,"bufferView":0,"byteOffset":32},{"type":"SCALAR","componentType":5123,"count":48,"bufferView":1,"byteOffset":0},{"type":"SCALAR","componentType":5123,"count":282,"bufferView":1,"byteOffset":96},{"type":"VEC3","componentType":5126,"count":280,"max":[0.6937693357467651,3.0628714561462402,0.5260870456695557],"min":[-0.4925874173641205,-0.19466353952884674,-0.5342395901679993],"bufferView":2,"byteOffset":0},{"type":"VEC3","componentType":5126,"count":280,"bufferView":2,"byteOffset":12},{"type":"VEC2","componentType":5126,"count":280,"bufferView":2,"byteOffset":24}],"bufferViews":[{"buffer":0,"byteOffset":0,"byteLength":1760,"byteStride":40,"target":34962},{"buffer":0,"byteOffset":1760,"byteLength":660,"target":34963},{"buffer":0,"byteOffset":2420,"byteLength":8960,"byteStride":32,"target":34962}],"samplers":[{"wrapS":10497,"wrapT":10497}],"textures":[{"source":0,"sampler":0}],"images":[{"name":"tree05_winter","mimeType":"image/png","uri":"f32caa7ad2af95cf.png"}],"buffers":[{"uri":"tree05_winter.bin","byteLength":11380}],"materials":[{"name":"tree05_winter","doubleSided":true,"pbrMetallicRoughness":{"metallicFactor":0,"baseColorTexture":{"index":0}}}],"meshes":[{"name":"tree05_top","primitives":[{"attributes":{"POSITION":0,"NORMAL":1,"TEXCOORD_0":2,"TEXCOORD_1":3},"mode":4,"material":0,"indices":4}]},{"name":"tree05","primitives":[{"attributes":{"POSITION":6,"NORMAL":7,"TEXCOORD_0":8},"mode":4,"material":0,"indices":5}]}],"nodes":[{"name":"tree05_top","translation":[0,2.4000000953674316,0],"mesh":0},{"name":"tree05","mesh":1,"children":[0]}],"scenes":[{"name":"Scene","nodes":[1]}],"scene":0}