{"asset":{"generator":"glTF-Transform v4.3.0","version":"2.0"},"accessors":[{"type":"VEC3","componentType":5126,"count":48,"max":[1.5800000429153442,1.600000023841858,1.580000400543213],"min":[-1.5800002813339233,-1.399999976158142,-1.5800001621246338],"bufferView":0,"byteOffset":0},{"type":"VEC3","componentType":5126,"count":48,"bufferView":0,"byteOffset":12},{"type":"VEC2","componentType":5126,"count":48,"bufferView":0,"byteOffset":24},{"type":"VEC2","componentType":5126,"count":48,"bufferView":0,"byteOffset":32},{"type":"SCALAR","componentType":5123,"count":48,"bufferView":1,"byteOffset":0},{"type":"SCALAR","componentType":5123,"count":282,"bufferView":1,"byteOffset":96},{"type":"VEC3","componentType":5126,"count":282,"max":[0.3631577491760254,3.0628714561462402,0.6029328107833862],"min":[-0.6811527013778687,-0.13242954015731812,-0.6029328107833862],"bufferView":2,"byteOffset":0},{"type":"VEC3","componentType":5126,"count":282,"bufferView":2,"byteOffset":12},{"type":"VEC2","componentType":5126,"count":282,"bufferView":2,"byteOffset":24}],"bufferViews":[{"buffer":0,"byteOffset":0,"byteLength":1920,"byteStride":40,"target":34962},{"buffer":0,"byteOffset":1920,"byteLength":660,"target":34963},{"buffer":0,"byteOffset":2580,"byteLength":9024,"byteStride":32,"target":34962}],"samplers":[{"wrapS":10497,"wrapT":10497}],"textures":[{"source":0,"sampler":0}],"images":[{"name":"tree06_winter","mimeType":"image/png","uri":"42e1c177e6fb4e4d.png"}],"buffers":[{"uri":"tree06_winter.bin","byteLength":11604}],"materials":[{"name":"tree06_winter","doubleSided":true,"pbrMetallicRoughness":{"metallicFactor":0,"baseColorTexture":{"index":0}}}],"meshes":[{"name":"tree06_top","primitives":[{"attributes":{"POSITION":0,"NORMAL":1,"TEXCOORD_0":2,"TEXCOORD_1":3},"mode":4,"material":0,"indices":4}]},{"name":"tree06","primitives":[{"attributes":{"POSITION":6,"NORMAL":7,"TEXCOORD_0":8},"mode":4,"material":0,"indices":5}]}],"nodes":[{"name":"tree06_top","translation":[0,2.4000000953674316,0],"mesh":0},{"name":"tree06","mesh":1,"children":[0]}],"scenes":[{"name":"Scene","nodes":[1]}],"scene":0}