{"asset":{"generator":"glTF-Transform v4.3.0","version":"2.0"},"accessors":[{"type":"VEC3","componentType":5126,"count":48,"max":[1.6800000667572021,1.399999976158142,1.6790003776550293],"min":[-1.6800004243850708,-1.399999976158142,-1.6810004711151123],"bufferView":0,"byteOffset":0},{"type":"VEC3","componentType":5126,"count":48,"bufferView":0,"byteOffset":12},{"type":"VEC2","componentType":5126,"count":48,"bufferView":0,"byteOffset":24},{"type":"SCALAR","componentType":5123,"count":48,"bufferView":1,"byteOffset":0},{"type":"SCALAR","componentType":5123,"count":282,"bufferView":1,"byteOffset":96},{"type":"VEC3","componentType":5126,"count":278,"max":[0.6091586351394653,3.0628714561462402,0.5303096175193787],"min":[-0.38697725534439087,-0.2374083697795868,-0.557055652141571],"bufferView":2,"byteOffset":0},{"type":"VEC3","componentType":5126,"count":278,"bufferView":2,"byteOffset":12},{"type":"VEC2","componentType":5126,"count":278,"bufferView":2,"byteOffset":24}],"bufferViews":[{"buffer":0,"byteOffset":0,"byteLength":1536,"byteStride":32,"target":34962},{"buffer":0,"byteOffset":1536,"byteLength":660,"target":34963},{"buffer":0,"byteOffset":2196,"byteLength":8896,"byteStride":32,"target":34962}],"samplers":[{"wrapS":10497,"wrapT":10497}],"textures":[{"source":0,"sampler":0}],"images":[{"name":"tree01_winter","mimeType":"image/png","uri":"baa7a095fbb4c13b.png"}],"buffers":[{"uri":"tree01_winter.bin","byteLength":11092}],"materials":[{"name":"tree01_winter","doubleSided":true,"pbrMetallicRoughness":{"metallicFactor":0,"baseColorTexture":{"index":0}}}],"meshes":[{"name":"tree01_top","primitives":[{"attributes":{"POSITION":0,"NORMAL":1,"TEXCOORD_0":2},"mode":4,"material":0,"indices":3}]},{"name":"tree01","primitives":[{"attributes":{"POSITION":5,"NORMAL":6,"TEXCOORD_0":7},"mode":4,"material":0,"indices":4}]}],"nodes":[{"name":"tree01_top","translation":[0,2.4000000953674316,0.0010000000474974513],"mesh":0},{"name":"tree01","mesh":1,"children":[0]}],"scenes":[{"name":"Scene","nodes":[1]}],"scene":0}