{"asset":{"generator":"glTF-Transform v4.3.0","version":"2.0"},"accessors":[{"type":"VEC3","componentType":5126,"count":716,"max":[1.2000000476837158,2.5200002193450928,1.200000286102295],"min":[-1.2000000476837158,-1.6800004243850708,-1.2000001668930054],"bufferView":0,"byteOffset":0},{"type":"VEC3","componentType":5126,"count":716,"bufferView":0,"byteOffset":12},{"type":"VEC2","componentType":5126,"count":716,"bufferView":0,"byteOffset":24},{"type":"VEC2","componentType":5126,"count":716,"bufferView":0,"byteOffset":32},{"type":"SCALAR","componentType":5123,"count":720,"bufferView":1,"byteOffset":0},{"type":"SCALAR","componentType":5123,"count":282,"bufferView":1,"byteOffset":1440},{"type":"VEC3","componentType":5126,"count":282,"max":[0.6934160590171814,4.06287145614624,0.6867144107818604],"min":[-0.4207018315792084,-0.5259588956832886,-0.6627592444419861],"bufferView":2,"byteOffset":0},{"type":"VEC3","componentType":5126,"count":282,"bufferView":2,"byteOffset":12},{"type":"VEC2","componentType":5126,"count":282,"bufferView":2,"byteOffset":24}],"bufferViews":[{"buffer":0,"byteOffset":0,"byteLength":28640,"byteStride":40,"target":34962},{"buffer":0,"byteOffset":28640,"byteLength":2004,"target":34963},{"buffer":0,"byteOffset":30644,"byteLength":9024,"byteStride":32,"target":34962}],"samplers":[{"wrapS":10497,"wrapT":10497}],"textures":[{"source":0,"sampler":0}],"images":[{"name":"tree07_summer","mimeType":"image/png","uri":"b587b84979615e65.png"}],"buffers":[{"uri":"tree07.bin","byteLength":39668}],"materials":[{"name":"tree07","doubleSided":true,"pbrMetallicRoughness":{"metallicFactor":0,"baseColorTexture":{"index":0}}}],"meshes":[{"name":"tree07_top","primitives":[{"attributes":{"POSITION":0,"NORMAL":1,"TEXCOORD_0":2,"TEXCOORD_1":3},"mode":4,"material":0,"indices":4}]},{"name":"tree07","primitives":[{"attributes":{"POSITION":6,"NORMAL":7,"TEXCOORD_0":8},"mode":4,"material":0,"indices":5}]}],"nodes":[{"name":"tree07_top","translation":[0,2.700000286102295,0],"mesh":0},{"name":"tree07","mesh":1,"children":[0]}],"scenes":[{"name":"Scene","nodes":[1]}],"scene":0}