{"asset":{"generator":"glTF-Transform v4.3.0","version":"2.0"},"accessors":[{"type":"VEC3","componentType":5126,"count":48,"max":[1.480002760887146,1.8000001907348633,1.47999906539917],"min":[-1.4799975156784058,-1.4000000953674316,-1.48000168800354],"bufferView":0,"byteOffset":0},{"type":"VEC3","componentType":5126,"count":48,"bufferView":0,"byteOffset":12},{"type":"VEC2","componentType":5126,"count":48,"bufferView":0,"byteOffset":24},{"type":"VEC2","componentType":5126,"count":48,"bufferView":0,"byteOffset":32},{"type":"SCALAR","componentType":5123,"count":48,"bufferView":1,"byteOffset":0},{"type":"SCALAR","componentType":5123,"count":282,"bufferView":1,"byteOffset":96},{"type":"VEC3","componentType":5126,"count":280,"max":[0.3099410831928253,2.5628714561462402,0.5034753680229187],"min":[-0.5621038675308228,-0.12144535779953003,-0.5034753084182739],"bufferView":2,"byteOffset":0},{"type":"VEC3","componentType":5126,"count":280,"bufferView":2,"byteOffset":12},{"type":"VEC2","componentType":5126,"count":280,"bufferView":2,"byteOffset":24}],"bufferViews":[{"buffer":0,"byteOffset":0,"byteLength":1920,"byteStride":40,"target":34962},{"buffer":0,"byteOffset":1920,"byteLength":660,"target":34963},{"buffer":0,"byteOffset":2580,"byteLength":8960,"byteStride":32,"target":34962}],"samplers":[{"wrapS":10497,"wrapT":10497}],"textures":[{"source":0,"sampler":0}],"images":[{"name":"tree04_winter","mimeType":"image/png","uri":"6792c556946c8d77.png"}],"buffers":[{"uri":"tree04_winter.bin","byteLength":11540}],"materials":[{"name":"tree04_winter","doubleSided":true,"pbrMetallicRoughness":{"metallicFactor":0,"baseColorTexture":{"index":0}}}],"meshes":[{"name":"tree04_top","primitives":[{"attributes":{"POSITION":0,"NORMAL":1,"TEXCOORD_0":2,"TEXCOORD_1":3},"mode":4,"material":0,"indices":4}]},{"name":"tree04","primitives":[{"attributes":{"POSITION":6,"NORMAL":7,"TEXCOORD_0":8},"mode":4,"material":0,"indices":5}]}],"nodes":[{"name":"tree04_top","translation":[0,2.4000000953674316,0],"mesh":0},{"name":"tree04","mesh":1,"children":[0]}],"scenes":[{"name":"Scene","nodes":[1]}],"scene":0}