{"asset":{"generator":"glTF-Transform v4.3.0","version":"2.0"},"accessors":[{"type":"VEC3","componentType":5126,"count":528,"max":[1.0499999523162842,2.2049999237060547,1.050002932548523],"min":[-1.0499999523162842,-1.4700000286102295,-1.0499972105026245],"bufferView":0,"byteOffset":0},{"type":"VEC3","componentType":5126,"count":528,"bufferView":0,"byteOffset":12},{"type":"VEC2","componentType":5126,"count":528,"bufferView":0,"byteOffset":24},{"type":"VEC2","componentType":5126,"count":528,"bufferView":0,"byteOffset":32},{"type":"SCALAR","componentType":5123,"count":534,"bufferView":1,"byteOffset":0},{"type":"SCALAR","componentType":5123,"count":282,"bufferView":1,"byteOffset":1068},{"type":"VEC3","componentType":5126,"count":282,"max":[0.32443132996559143,3.762871026992798,0.5179627537727356],"min":[-0.6059739589691162,-0.38470497727394104,-0.5120300054550171],"bufferView":2,"byteOffset":0},{"type":"VEC3","componentType":5126,"count":282,"bufferView":2,"byteOffset":12},{"type":"VEC2","componentType":5126,"count":282,"bufferView":2,"byteOffset":24}],"bufferViews":[{"buffer":0,"byteOffset":0,"byteLength":21120,"byteStride":40,"target":34962},{"buffer":0,"byteOffset":21120,"byteLength":1632,"target":34963},{"buffer":0,"byteOffset":22752,"byteLength":9024,"byteStride":32,"target":34962}],"samplers":[{"wrapS":10497,"wrapT":10497}],"textures":[{"source":0,"sampler":0}],"images":[{"name":"tree08_summer","mimeType":"image/png","uri":"da1a377581f81f35.png"}],"buffers":[{"uri":"tree08.bin","byteLength":31776}],"materials":[{"name":"tree08","doubleSided":true,"pbrMetallicRoughness":{"metallicFactor":0,"baseColorTexture":{"index":0}}}],"meshes":[{"name":"tree08_top","primitives":[{"attributes":{"POSITION":0,"NORMAL":1,"TEXCOORD_0":2,"TEXCOORD_1":3},"mode":4,"material":0,"indices":4}]},{"name":"tree08","primitives":[{"attributes":{"POSITION":6,"NORMAL":7,"TEXCOORD_0":8},"mode":4,"material":0,"indices":5}]}],"nodes":[{"name":"tree08_top","translation":[-0.000003814697265625,2.5,0],"mesh":0},{"name":"tree08","mesh":1,"children":[0]}],"scenes":[{"name":"Scene","nodes":[1]}],"scene":0}