{"asset":{"generator":"glTF-Transform v4.3.0","version":"2.0"},"accessors":[{"type":"VEC3","componentType":5126,"count":380,"max":[0.9556242823600769,0.9556242823600769,0.20163647830486298],"min":[-0.9556242823600769,-0.9556242823600769,-0.20163647830486298],"bufferView":0,"byteOffset":0},{"type":"VEC3","componentType":5126,"count":380,"bufferView":0,"byteOffset":12},{"type":"VEC2","componentType":5126,"count":380,"bufferView":0,"byteOffset":24},{"type":"SCALAR","componentType":5123,"count":852,"bufferView":1,"byteOffset":0}],"bufferViews":[{"buffer":0,"byteOffset":0,"byteLength":12160,"byteStride":32,"target":34962},{"buffer":0,"byteOffset":12160,"byteLength":1704,"target":34963}],"samplers":[{"magFilter":9728,"minFilter":9984,"wrapS":10497,"wrapT":10497}],"textures":[{"source":0,"sampler":0}],"images":[{"name":"Amulet_1_Base_color","mimeType":"image/png","uri":"textures/8dd28c14cdc12eb7.png"}],"buffers":[{"uri":"Amulet_1.bin","byteLength":13864}],"materials":[{"name":"Amulet_1","doubleSided":true,"pbrMetallicRoughness":{"baseColorFactor":[0,0,0,1]},"emissiveFactor":[1,1,1],"emissiveTexture":{"index":0}}],"meshes":[{"name":"Cylinder.037","primitives":[{"attributes":{"POSITION":0,"NORMAL":1,"TEXCOORD_0":2},"mode":4,"material":0,"indices":3}]}],"nodes":[{"name":"Amulet_1","translation":[-24.333965301513672,-3.1196413040161133,-34.62877655029297],"rotation":[0.70710688829422,0,0,0.7071066498756409],"mesh":0,"scale":[0.2,0.2,0.2]}],"scenes":[{"name":"Scene","nodes":[0]}],"scene":0}