{"asset":{"generator":"glTF-Transform v4.3.0","version":"2.0"},"accessors":[{"type":"VEC3","componentType":5126,"count":176,"max":[1.3650431632995605,0.8716666102409363,1.2579550743103027],"min":[-1.2874486446380615,-0.8716663122177124,-0.8719082474708557],"bufferView":0,"byteOffset":0},{"type":"VEC3","componentType":5126,"count":176,"bufferView":0,"byteOffset":12},{"type":"VEC2","componentType":5126,"count":176,"bufferView":0,"byteOffset":24},{"type":"SCALAR","componentType":5123,"count":468,"bufferView":1,"byteOffset":0}],"bufferViews":[{"buffer":0,"byteOffset":0,"byteLength":5632,"byteStride":32,"target":34962},{"buffer":0,"byteOffset":5632,"byteLength":936,"target":34963}],"samplers":[{"magFilter":9728,"minFilter":9984,"wrapS":10497,"wrapT":10497}],"textures":[{"source":0,"sampler":0}],"images":[{"name":"Anvil_Base_color","mimeType":"image/png","uri":"textures/8922c2fafdae1f45.png"}],"buffers":[{"uri":"Anvil.bin","byteLength":6568}],"materials":[{"name":"Anvil","doubleSided":true,"pbrMetallicRoughness":{"baseColorFactor":[0,0,0,1]},"emissiveFactor":[1,1,1],"emissiveTexture":{"index":0}}],"meshes":[{"name":"Cube.027","primitives":[{"attributes":{"POSITION":0,"NORMAL":1,"TEXCOORD_0":2},"mode":4,"material":0,"indices":3}]}],"nodes":[{"name":"Anvil","translation":[8.25238037109375,-0.17542800307273865,35.74362564086914],"rotation":[0.70710688829422,0,0,0.7071066498756409],"mesh":0,"scale":[0.2,0.2,0.2]}],"scenes":[{"name":"Scene","nodes":[0]}],"scene":0}