{"asset":{"generator":"glTF-Transform v4.3.0","version":"2.0"},"accessors":[{"type":"VEC3","componentType":5126,"count":92,"max":[1.3963381052017212,0.10018487274646759,6.994648456573486],"min":[-1.3963443040847778,-0.10018491744995117,-0.655305802822113],"bufferView":0,"byteOffset":0},{"type":"VEC3","componentType":5126,"count":92,"bufferView":0,"byteOffset":12},{"type":"VEC2","componentType":5126,"count":92,"bufferView":0,"byteOffset":24},{"type":"SCALAR","componentType":5123,"count":228,"bufferView":1,"byteOffset":0}],"bufferViews":[{"buffer":0,"byteOffset":0,"byteLength":2944,"byteStride":32,"target":34962},{"buffer":0,"byteOffset":2944,"byteLength":456,"target":34963}],"samplers":[{"magFilter":9728,"minFilter":9984,"wrapS":10497,"wrapT":10497}],"textures":[{"source":0,"sampler":0}],"images":[{"name":"Banner_2_Base_color","mimeType":"image/png","uri":"textures/ee4124c2a162e77f.png"}],"buffers":[{"uri":"Banner_2.bin","byteLength":3400}],"materials":[{"name":"Banner_2","doubleSided":true,"pbrMetallicRoughness":{"baseColorFactor":[0,0,0,1]},"emissiveFactor":[1,1,1],"emissiveTexture":{"index":0}}],"meshes":[{"name":"Cube.015","primitives":[{"attributes":{"POSITION":0,"NORMAL":1,"TEXCOORD_0":2},"mode":4,"material":0,"indices":3}]}],"nodes":[{"name":"Banner_2","translation":[32.8754997253418,1.0837751626968384,22.387075424194336],"rotation":[0.70710688829422,0,0,0.7071066498756409],"mesh":0,"scale":[0.2,0.2,0.2]}],"scenes":[{"name":"Scene","nodes":[0]}],"scene":0}