{"asset":{"generator":"glTF-Transform v4.3.0","version":"2.0"},"accessors":[{"type":"VEC3","componentType":5126,"count":277,"max":[1.1444841623306274,1.1444838047027588,1.3129775524139404],"min":[-1.1444833278656006,-1.1444838047027588,-1.2575441598892212],"bufferView":0,"byteOffset":0},{"type":"VEC3","componentType":5126,"count":277,"bufferView":0,"byteOffset":12},{"type":"VEC2","componentType":5126,"count":277,"bufferView":0,"byteOffset":24},{"type":"SCALAR","componentType":5123,"count":852,"bufferView":1,"byteOffset":0}],"bufferViews":[{"buffer":0,"byteOffset":0,"byteLength":8864,"byteStride":32,"target":34962},{"buffer":0,"byteOffset":8864,"byteLength":1704,"target":34963}],"samplers":[{"magFilter":9728,"minFilter":9984,"wrapS":10497,"wrapT":10497}],"textures":[{"source":0,"sampler":0}],"images":[{"name":"Barrel_1_Base_color","mimeType":"image/png","uri":"textures/813b3ecb81278b5c.png"}],"buffers":[{"uri":"Barrel_1.bin","byteLength":10568}],"materials":[{"name":"Barrel_1","doubleSided":true,"pbrMetallicRoughness":{"baseColorFactor":[0,0,0,1]},"emissiveFactor":[1,1,1],"emissiveTexture":{"index":0}}],"meshes":[{"name":"Cylinder.007","primitives":[{"attributes":{"POSITION":0,"NORMAL":1,"TEXCOORD_0":2},"mode":4,"material":0,"indices":3}]}],"nodes":[{"name":"Barrel_1","translation":[21.837303161621094,0.15627670288085938,7.269935607910156],"rotation":[0.70710688829422,0,0,0.7071066498756409],"mesh":0,"scale":[0.2,0.2,0.2]}],"scenes":[{"name":"Scene","nodes":[0]}],"scene":0}