{"asset":{"generator":"glTF-Transform v4.3.0","version":"2.0"},"accessors":[{"type":"VEC3","componentType":5126,"count":752,"max":[1.4947274923324585,1.649017333984375,1.468196153640747],"min":[-1.498228669166565,-1.6647197008132935,-1.8694912195205688],"bufferView":0,"byteOffset":0},{"type":"VEC3","componentType":5126,"count":752,"bufferView":0,"byteOffset":12},{"type":"VEC2","componentType":5126,"count":752,"bufferView":0,"byteOffset":24},{"type":"SCALAR","componentType":5123,"count":1920,"bufferView":1,"byteOffset":0}],"bufferViews":[{"buffer":0,"byteOffset":0,"byteLength":24064,"byteStride":32,"target":34962},{"buffer":0,"byteOffset":24064,"byteLength":3840,"target":34963}],"samplers":[{"magFilter":9728,"minFilter":9984,"wrapS":10497,"wrapT":10497}],"textures":[{"source":0,"sampler":0}],"images":[{"name":"Barrel_2_Base_color","mimeType":"image/png","uri":"textures/835d163d511fd84c.png"}],"buffers":[{"uri":"Barrel_2.bin","byteLength":27904}],"materials":[{"name":"Barrel_2","doubleSided":true,"pbrMetallicRoughness":{"baseColorFactor":[0,0,0,1]},"emissiveFactor":[1,1,1],"emissiveTexture":{"index":0}}],"meshes":[{"name":"Cylinder.008","primitives":[{"attributes":{"POSITION":0,"NORMAL":1,"TEXCOORD_0":2},"mode":4,"material":0,"indices":3}]}],"nodes":[{"name":"Barrel_2","translation":[25.542747497558594,-0.1289987564086914,7.268730640411377],"rotation":[0.70710688829422,0,0,0.7071066498756409],"mesh":0,"scale":[0.2,0.2,0.2]}],"scenes":[{"name":"Scene","nodes":[0]}],"scene":0}