{"asset":{"generator":"glTF-Transform v4.3.0","version":"2.0"},"accessors":[{"type":"VEC3","componentType":5126,"count":1244,"max":[2.0699715614318848,2.7482833862304688,1.972179889678955],"min":[-2.0703823566436768,-4.385260581970215,-2.7947213649749756],"bufferView":0,"byteOffset":0},{"type":"VEC3","componentType":5126,"count":1244,"bufferView":0,"byteOffset":12},{"type":"VEC2","componentType":5126,"count":1244,"bufferView":0,"byteOffset":24},{"type":"SCALAR","componentType":5123,"count":3078,"bufferView":1,"byteOffset":0}],"bufferViews":[{"buffer":0,"byteOffset":0,"byteLength":39808,"byteStride":32,"target":34962},{"buffer":0,"byteOffset":39808,"byteLength":6156,"target":34963}],"samplers":[{"magFilter":9728,"minFilter":9984,"wrapS":10497,"wrapT":10497}],"textures":[{"source":0,"sampler":0}],"images":[{"name":"Barrel_3_Base_color","mimeType":"image/png","uri":"textures/e2fb5c868974f1c7.png"}],"buffers":[{"uri":"Barrel_3.bin","byteLength":45964}],"materials":[{"name":"Barrel_3","doubleSided":true,"pbrMetallicRoughness":{"baseColorFactor":[0,0,0,1]},"emissiveFactor":[1,1,1],"emissiveTexture":{"index":0}}],"meshes":[{"name":"Cylinder.039","primitives":[{"attributes":{"POSITION":0,"NORMAL":1,"TEXCOORD_0":2},"mode":4,"material":0,"indices":3}]}],"nodes":[{"name":"Barrel_3","translation":[6.446112632751465,-0.6239013671875,30.23821258544922],"rotation":[0.70710688829422,0,0,0.7071066498756409],"mesh":0,"scale":[0.2,0.2,0.2]}],"scenes":[{"name":"Scene","nodes":[0]}],"scene":0}