{"asset":{"generator":"glTF-Transform v4.3.0","version":"2.0"},"accessors":[{"type":"VEC3","componentType":5126,"count":1808,"max":[3.1683249473571777,0.8880056738853455,2.622565746307373],"min":[-3.256546974182129,-1.043228030204773,-2.5404601097106934],"bufferView":0,"byteOffset":0},{"type":"VEC3","componentType":5126,"count":1808,"bufferView":0,"byteOffset":12},{"type":"VEC2","componentType":5126,"count":1808,"bufferView":0,"byteOffset":24},{"type":"SCALAR","componentType":5123,"count":5064,"bufferView":1,"byteOffset":0}],"bufferViews":[{"buffer":0,"byteOffset":0,"byteLength":57856,"byteStride":32,"target":34962},{"buffer":0,"byteOffset":57856,"byteLength":10128,"target":34963}],"samplers":[{"magFilter":9728,"minFilter":9984,"wrapS":10497,"wrapT":10497}],"textures":[{"source":0,"sampler":0}],"images":[{"name":"Barrel_Shelf_Base_color","mimeType":"image/png","uri":"textures/85d7f0ac434c0b6d.png"}],"buffers":[{"uri":"Barrel_Shelf.bin","byteLength":67984}],"materials":[{"name":"Barrel_Shelf","doubleSided":true,"pbrMetallicRoughness":{"baseColorFactor":[0,0,0,1]},"emissiveFactor":[1,1,1],"emissiveTexture":{"index":0}}],"meshes":[{"name":"Cube.056","primitives":[{"attributes":{"POSITION":0,"NORMAL":1,"TEXCOORD_0":2},"mode":4,"material":0,"indices":3}]}],"nodes":[{"name":"Barrel_Shelf","translation":[-13.773990631103516,0.6890213489532471,24.23693084716797],"rotation":[0.70710688829422,0,0,0.7071066498756409],"mesh":0,"scale":[0.2,0.2,0.2]}],"scenes":[{"name":"Scene","nodes":[0]}],"scene":0}