{"asset":{"generator":"glTF-Transform v4.3.0","version":"2.0"},"accessors":[{"type":"VEC3","componentType":5126,"count":440,"max":[2.311768054962158,3.5760252475738525,1.1812599897384644],"min":[-2.262094497680664,-2.4839954376220703,-1.7167003154754639],"bufferView":0,"byteOffset":0},{"type":"VEC3","componentType":5126,"count":440,"bufferView":0,"byteOffset":12},{"type":"VEC2","componentType":5126,"count":440,"bufferView":0,"byteOffset":24},{"type":"SCALAR","componentType":5123,"count":990,"bufferView":1,"byteOffset":0}],"bufferViews":[{"buffer":0,"byteOffset":0,"byteLength":14080,"byteStride":32,"target":34962},{"buffer":0,"byteOffset":14080,"byteLength":1980,"target":34963}],"samplers":[{"magFilter":9728,"minFilter":9984,"wrapS":10497,"wrapT":10497}],"textures":[{"source":0,"sampler":0}],"images":[{"name":"Bed_1_Base_color_Var2","mimeType":"image/png","uri":"textures/ef4eed2a0fd5ec9a.png"}],"buffers":[{"uri":"Bed_1.bin","byteLength":16060}],"materials":[{"name":"Bed_1","doubleSided":true,"pbrMetallicRoughness":{"baseColorFactor":[0,0,0,1]},"emissiveFactor":[1,1,1],"emissiveTexture":{"index":0}}],"meshes":[{"name":"Cube.043","primitives":[{"attributes":{"POSITION":0,"NORMAL":1,"TEXCOORD_0":2},"mode":4,"material":0,"indices":3}]}],"nodes":[{"name":"Bed_1","translation":[-19.995399475097656,0.32152220606803894,37.977230072021484],"rotation":[0.70710688829422,0,0,0.7071066498756409],"mesh":0,"scale":[0.2,0.2,0.2]}],"scenes":[{"name":"Scene","nodes":[0]}],"scene":0}