{"asset":{"generator":"glTF-Transform v4.3.0","version":"2.0"},"accessors":[{"type":"VEC3","componentType":5126,"count":952,"max":[2.270948886871338,3.3981497287750244,2.1936869621276855],"min":[-2.240054130554199,-2.7006022930145264,-3.4519617557525635],"bufferView":0,"byteOffset":0},{"type":"VEC3","componentType":5126,"count":952,"bufferView":0,"byteOffset":12},{"type":"VEC2","componentType":5126,"count":952,"bufferView":0,"byteOffset":24},{"type":"SCALAR","componentType":5123,"count":2214,"bufferView":1,"byteOffset":0}],"bufferViews":[{"buffer":0,"byteOffset":0,"byteLength":30464,"byteStride":32,"target":34962},{"buffer":0,"byteOffset":30464,"byteLength":4428,"target":34963}],"samplers":[{"magFilter":9728,"minFilter":9984,"wrapS":10497,"wrapT":10497}],"textures":[{"source":0,"sampler":0}],"images":[{"name":"Bed_Double_2_Base_color_Var2","mimeType":"image/png","uri":"textures/4f89fd8c8288444a.png"}],"buffers":[{"uri":"Bed_Double_2.bin","byteLength":34892}],"materials":[{"name":"Bed_Double_2","doubleSided":true,"pbrMetallicRoughness":{"baseColorFactor":[0,0,0,1]},"emissiveFactor":[1,1,1],"emissiveTexture":{"index":0}}],"meshes":[{"name":"Cylinder.032","primitives":[{"attributes":{"POSITION":0,"NORMAL":1,"TEXCOORD_0":2},"mode":4,"material":0,"indices":3}]}],"nodes":[{"name":"Bed_Double_2","translation":[37.218727111816406,1.0188970565795898,10.367015838623047],"rotation":[0.70710688829422,0,0,0.7071066498756409],"mesh":0,"scale":[0.2,0.2,0.2]}],"scenes":[{"name":"Scene","nodes":[0]}],"scene":0}