{"asset":{"generator":"glTF-Transform v4.3.0","version":"2.0"},"accessors":[{"type":"VEC3","componentType":5126,"count":708,"max":[2.4919536113739014,3.634281873703003,2.1936869621276855],"min":[-2.4610588550567627,-2.822061538696289,-3.8741683959960938],"bufferView":0,"byteOffset":0},{"type":"VEC3","componentType":5126,"count":708,"bufferView":0,"byteOffset":12},{"type":"VEC2","componentType":5126,"count":708,"bufferView":0,"byteOffset":24},{"type":"SCALAR","componentType":5123,"count":1578,"bufferView":1,"byteOffset":0}],"bufferViews":[{"buffer":0,"byteOffset":0,"byteLength":22656,"byteStride":32,"target":34962},{"buffer":0,"byteOffset":22656,"byteLength":3156,"target":34963}],"samplers":[{"magFilter":9728,"minFilter":9984,"wrapS":10497,"wrapT":10497}],"textures":[{"source":0,"sampler":0}],"images":[{"name":"Bed_Double_1_Base_color","mimeType":"image/png","uri":"textures/41026d8b196ede74.png"}],"buffers":[{"uri":"Bed_Double_1.bin","byteLength":25812}],"materials":[{"name":"Bed_Double_1","doubleSided":true,"pbrMetallicRoughness":{"baseColorFactor":[0,0,0,1]},"emissiveFactor":[1,1,1],"emissiveTexture":{"index":0}}],"meshes":[{"name":"Cylinder.020","primitives":[{"attributes":{"POSITION":0,"NORMAL":1,"TEXCOORD_0":2},"mode":4,"material":0,"indices":3}]}],"nodes":[{"name":"Bed_Double_1","translation":[37.218727111816406,1.0188965797424316,0.023846149444580078],"rotation":[0.70710688829422,0,0,0.7071066498756409],"mesh":0,"scale":[0.2,0.2,0.2]}],"scenes":[{"name":"Scene","nodes":[0]}],"scene":0}