{"asset":{"generator":"glTF-Transform v4.3.0","version":"2.0"},"accessors":[{"type":"VEC3","componentType":5126,"count":256,"max":[3.7565572261810303,1.3916207551956177,1.179364562034607],"min":[-3.7633464336395264,-1.4311736822128296,-3.343065023422241],"bufferView":0,"byteOffset":0},{"type":"VEC3","componentType":5126,"count":256,"bufferView":0,"byteOffset":12},{"type":"VEC2","componentType":5126,"count":256,"bufferView":0,"byteOffset":24},{"type":"SCALAR","componentType":5123,"count":600,"bufferView":1,"byteOffset":0}],"bufferViews":[{"buffer":0,"byteOffset":0,"byteLength":8192,"byteStride":32,"target":34962},{"buffer":0,"byteOffset":8192,"byteLength":1200,"target":34963}],"samplers":[{"magFilter":9728,"minFilter":9984,"wrapS":10497,"wrapT":10497}],"textures":[{"source":0,"sampler":0}],"images":[{"name":"Bench_1_Base_color","mimeType":"image/png","uri":"textures/9d5390b0ad544097.png"}],"buffers":[{"uri":"Bench_1.bin","byteLength":9392}],"materials":[{"name":"Bench_1","doubleSided":true,"pbrMetallicRoughness":{"baseColorFactor":[0,0,0,1]},"emissiveFactor":[1,1,1],"emissiveTexture":{"index":0}}],"meshes":[{"name":"Cube.105","primitives":[{"attributes":{"POSITION":0,"NORMAL":1,"TEXCOORD_0":2},"mode":4,"material":0,"indices":3}]}],"nodes":[{"name":"Bench_1","translation":[16.94983673095703,0.44838714599609375,-19.73851203918457],"rotation":[0.70710688829422,0,0,0.7071066498756409],"mesh":0,"scale":[0.2,0.2,0.2]}],"scenes":[{"name":"Scene","nodes":[0]}],"scene":0}