{"asset":{"generator":"glTF-Transform v4.3.0","version":"2.0"},"accessors":[{"type":"VEC3","componentType":5126,"count":268,"max":[1.954241394996643,0.8290988206863403,2.826000928878784],"min":[-1.9542429447174072,-0.8395527005195618,-2.767185688018799],"bufferView":0,"byteOffset":0},{"type":"VEC3","componentType":5126,"count":268,"bufferView":0,"byteOffset":12},{"type":"VEC2","componentType":5126,"count":268,"bufferView":0,"byteOffset":24},{"type":"SCALAR","componentType":5123,"count":540,"bufferView":1,"byteOffset":0}],"bufferViews":[{"buffer":0,"byteOffset":0,"byteLength":8576,"byteStride":32,"target":34962},{"buffer":0,"byteOffset":8576,"byteLength":1080,"target":34963}],"samplers":[{"magFilter":9728,"minFilter":9984,"wrapS":10497,"wrapT":10497}],"textures":[{"source":0,"sampler":0}],"images":[{"name":"Bookshelf_Base_color","mimeType":"image/png","uri":"textures/d15ddfb0ca9a971b.png"}],"buffers":[{"uri":"Bookshelf.bin","byteLength":9656}],"materials":[{"name":"Bookshelf","doubleSided":true,"pbrMetallicRoughness":{"baseColorFactor":[0,0,0,1]},"emissiveFactor":[1,1,1],"emissiveTexture":{"index":0}}],"meshes":[{"name":"Cube.077","primitives":[{"attributes":{"POSITION":0,"NORMAL":1,"TEXCOORD_0":2},"mode":4,"material":0,"indices":3}]}],"nodes":[{"name":"Bookshelf","translation":[-11.054497718811035,1.5947256088256836,30.46344757080078],"rotation":[0.70710688829422,0,0,0.7071066498756409],"mesh":0,"scale":[0.2,0.2,0.2]}],"scenes":[{"name":"Scene","nodes":[0]}],"scene":0}