{"asset":{"generator":"glTF-Transform v4.3.0","version":"2.0"},"accessors":[{"type":"VEC3","componentType":5126,"count":100,"max":[1.0226333141326904,0.8516796231269836,0.258076548576355],"min":[-1.0209449529647827,-0.8516796231269836,-0.2054409682750702],"bufferView":0,"byteOffset":0},{"type":"VEC3","componentType":5126,"count":100,"bufferView":0,"byteOffset":12},{"type":"VEC2","componentType":5126,"count":100,"bufferView":0,"byteOffset":24},{"type":"SCALAR","componentType":5123,"count":264,"bufferView":1,"byteOffset":0}],"bufferViews":[{"buffer":0,"byteOffset":0,"byteLength":3200,"byteStride":32,"target":34962},{"buffer":0,"byteOffset":3200,"byteLength":528,"target":34963}],"samplers":[{"magFilter":9728,"minFilter":9984,"wrapS":10497,"wrapT":10497}],"textures":[{"source":0,"sampler":0}],"images":[{"name":"Book_2_Base_color","mimeType":"image/png","uri":"textures/4d812a663b5d406a.png"}],"buffers":[{"uri":"Book_2.bin","byteLength":3728}],"materials":[{"name":"Book_2","doubleSided":true,"pbrMetallicRoughness":{"baseColorFactor":[0,0,0,1]},"emissiveFactor":[1,1,1],"emissiveTexture":{"index":0}}],"meshes":[{"name":"Cube.031","primitives":[{"attributes":{"POSITION":0,"NORMAL":1,"TEXCOORD_0":2},"mode":4,"material":0,"indices":3}]}],"nodes":[{"name":"Book_2","translation":[-13.871761322021484,-3.3861961364746094,-35.57061004638672],"rotation":[0.70710688829422,0,0,0.7071066498756409],"mesh":0,"scale":[0.2,0.2,0.2]}],"scenes":[{"name":"Scene","nodes":[0]}],"scene":0}