{"asset":{"generator":"glTF-Transform v4.3.0","version":"2.0"},"accessors":[{"type":"VEC3","componentType":5126,"count":156,"max":[0.9781307578086853,0.9898585677146912,0.17445063591003418],"min":[-1.0654475688934326,-0.7135006189346313,-0.08254917711019516],"bufferView":0,"byteOffset":0},{"type":"VEC3","componentType":5126,"count":156,"bufferView":0,"byteOffset":12},{"type":"VEC2","componentType":5126,"count":156,"bufferView":0,"byteOffset":24},{"type":"SCALAR","componentType":5123,"count":372,"bufferView":1,"byteOffset":0}],"bufferViews":[{"buffer":0,"byteOffset":0,"byteLength":4992,"byteStride":32,"target":34962},{"buffer":0,"byteOffset":4992,"byteLength":744,"target":34963}],"samplers":[{"magFilter":9728,"minFilter":9984,"wrapS":10497,"wrapT":10497}],"textures":[{"source":0,"sampler":0}],"images":[{"name":"Book_3_Base_color","mimeType":"image/png","uri":"textures/aec1b64ba1a20fb5.png"}],"buffers":[{"uri":"Book_3.bin","byteLength":5736}],"materials":[{"name":"Book_3","doubleSided":true,"pbrMetallicRoughness":{"baseColorFactor":[0,0,0,1]},"emissiveFactor":[1,1,1],"emissiveTexture":{"index":0}}],"meshes":[{"name":"Cube.070","primitives":[{"attributes":{"POSITION":0,"NORMAL":1,"TEXCOORD_0":2},"mode":4,"material":0,"indices":3}]}],"nodes":[{"name":"Book_3","translation":[-11.256145477294922,-3.469820976257324,-35.674720764160156],"rotation":[0.70710688829422,0,0,0.7071066498756409],"mesh":0,"scale":[0.2,0.2,0.2]}],"scenes":[{"name":"Scene","nodes":[0]}],"scene":0}