{"asset":{"generator":"glTF-Transform v4.3.0","version":"2.0"},"accessors":[{"type":"VEC3","componentType":5126,"count":86,"max":[0.8035745024681091,1,0.19394072890281677],"min":[-0.5121622681617737,-1,-0.19119217991828918],"bufferView":0,"byteOffset":0},{"type":"VEC3","componentType":5126,"count":86,"bufferView":0,"byteOffset":12},{"type":"VEC2","componentType":5126,"count":86,"bufferView":0,"byteOffset":24},{"type":"SCALAR","componentType":5123,"count":180,"bufferView":1,"byteOffset":0}],"bufferViews":[{"buffer":0,"byteOffset":0,"byteLength":2752,"byteStride":32,"target":34962},{"buffer":0,"byteOffset":2752,"byteLength":360,"target":34963}],"samplers":[{"magFilter":9728,"minFilter":9984,"wrapS":10497,"wrapT":10497}],"textures":[{"source":0,"sampler":0}],"images":[{"name":"Book_1_Base_color_Var2","mimeType":"image/png","uri":"textures/0a389b8e36411774.png"}],"buffers":[{"uri":"Book_1.bin","byteLength":3112}],"materials":[{"name":"Book_1","doubleSided":true,"pbrMetallicRoughness":{"baseColorFactor":[0,0,0,1]},"emissiveFactor":[1,1,1],"emissiveTexture":{"index":0}}],"meshes":[{"name":"Cube.032","primitives":[{"attributes":{"POSITION":0,"NORMAL":1,"TEXCOORD_0":2},"mode":4,"material":0,"indices":3}]}],"nodes":[{"name":"Book_1","translation":[-16.246929168701172,-3.3849258422851562,-35.57061004638672],"rotation":[0.70710688829422,0,0,0.7071066498756409],"mesh":0,"scale":[0.2,0.2,0.2]}],"scenes":[{"name":"Scene","nodes":[0]}],"scene":0}