{"asset":{"generator":"glTF-Transform v4.3.0","version":"2.0"},"accessors":[{"type":"VEC3","componentType":5126,"count":196,"max":[0.2613375186920166,0.2613375186920166,0.367660254240036],"min":[-0.2613375186920166,-0.261337548494339,-1.6539286375045776],"bufferView":0,"byteOffset":0},{"type":"VEC3","componentType":5126,"count":196,"bufferView":0,"byteOffset":12},{"type":"VEC2","componentType":5126,"count":196,"bufferView":0,"byteOffset":24},{"type":"SCALAR","componentType":5123,"count":708,"bufferView":1,"byteOffset":0}],"bufferViews":[{"buffer":0,"byteOffset":0,"byteLength":6272,"byteStride":32,"target":34962},{"buffer":0,"byteOffset":6272,"byteLength":1416,"target":34963}],"samplers":[{"magFilter":9728,"minFilter":9984,"wrapS":10497,"wrapT":10497}],"textures":[{"source":0,"sampler":0}],"images":[{"name":"Bottle_Base_color","mimeType":"image/png","uri":"textures/e2e3a2b861b518a3.png"}],"buffers":[{"uri":"Bottle.bin","byteLength":7688}],"materials":[{"name":"Bottle","doubleSided":true,"pbrMetallicRoughness":{"baseColorFactor":[0,0,0,1]},"emissiveFactor":[1,1,1],"emissiveTexture":{"index":0}}],"meshes":[{"name":"Cylinder.001","primitives":[{"attributes":{"POSITION":0,"NORMAL":1,"TEXCOORD_0":2},"mode":4,"material":0,"indices":3}]}],"nodes":[{"name":"Bottle","translation":[-20.178997039794922,-2.9100170135498047,-34.572635650634766],"rotation":[0.70710688829422,0,0,0.7071066498756409],"mesh":0,"scale":[0.2,0.2,0.2]}],"scenes":[{"name":"Scene","nodes":[0]}],"scene":0}