{"asset":{"generator":"glTF-Transform v4.3.0","version":"2.0"},"accessors":[{"type":"VEC3","componentType":5126,"count":190,"max":[1,1,1],"min":[-1,-1,-1],"bufferView":0,"byteOffset":0},{"type":"VEC3","componentType":5126,"count":190,"bufferView":0,"byteOffset":12},{"type":"VEC2","componentType":5126,"count":190,"bufferView":0,"byteOffset":24},{"type":"SCALAR","componentType":5123,"count":372,"bufferView":1,"byteOffset":0}],"bufferViews":[{"buffer":0,"byteOffset":0,"byteLength":6080,"byteStride":32,"target":34962},{"buffer":0,"byteOffset":6080,"byteLength":744,"target":34963}],"samplers":[{"magFilter":9728,"minFilter":9984,"wrapS":10497,"wrapT":10497}],"textures":[{"source":0,"sampler":0}],"images":[{"name":"Box_3_Base_color","mimeType":"image/png","uri":"textures/0b357bd7cc1a30f9.png"}],"buffers":[{"uri":"Box_3.bin","byteLength":6824}],"materials":[{"name":"Box_3","doubleSided":true,"pbrMetallicRoughness":{"baseColorFactor":[0,0,0,1]},"emissiveFactor":[1,1,1],"emissiveTexture":{"index":0}}],"meshes":[{"name":"Cube.029","primitives":[{"attributes":{"POSITION":0,"NORMAL":1,"TEXCOORD_0":2},"mode":4,"material":0,"indices":3}]}],"nodes":[{"name":"Box_3","translation":[32.68461608886719,0,-13.995248794555664],"rotation":[0.70710688829422,0,0,0.7071066498756409],"mesh":0,"scale":[0.2,0.2,0.2]}],"scenes":[{"name":"Scene","nodes":[0]}],"scene":0}