{"asset":{"generator":"glTF-Transform v4.3.0","version":"2.0"},"accessors":[{"type":"VEC3","componentType":5126,"count":56,"max":[1.119806170463562,1,0.5465460419654846],"min":[-1.119806170463562,-1,-0.5230370163917542],"bufferView":0,"byteOffset":0},{"type":"VEC3","componentType":5126,"count":56,"bufferView":0,"byteOffset":12},{"type":"VEC2","componentType":5126,"count":56,"bufferView":0,"byteOffset":24},{"type":"SCALAR","componentType":5123,"count":84,"bufferView":1,"byteOffset":0}],"bufferViews":[{"buffer":0,"byteOffset":0,"byteLength":1792,"byteStride":32,"target":34962},{"buffer":0,"byteOffset":1792,"byteLength":168,"target":34963}],"samplers":[{"magFilter":9728,"minFilter":9984,"wrapS":10497,"wrapT":10497}],"textures":[{"source":0,"sampler":0}],"images":[{"name":"Box_1_Base_color","mimeType":"image/png","uri":"textures/85797f9ad83eb59c.png"}],"buffers":[{"uri":"Box_1.bin","byteLength":1960}],"materials":[{"name":"Box_1","doubleSided":true,"pbrMetallicRoughness":{"baseColorFactor":[0,0,0,1]},"emissiveFactor":[1,1,1],"emissiveTexture":{"index":0}}],"meshes":[{"name":"Cube.036","primitives":[{"attributes":{"POSITION":0,"NORMAL":1,"TEXCOORD_0":2},"mode":4,"material":0,"indices":3}]}],"nodes":[{"name":"Box_1","translation":[3.4862823486328125,0.110931396484375,4.755404949188232],"rotation":[0.70710688829422,0,0,0.7071066498756409],"mesh":0,"scale":[0.2,0.2,0.2]}],"scenes":[{"name":"Scene","nodes":[0]}],"scene":0}