{"asset":{"generator":"glTF-Transform v4.3.0","version":"2.0"},"accessors":[{"type":"VEC3","componentType":5126,"count":168,"max":[1,1,1],"min":[-1,-1,-1],"bufferView":0,"byteOffset":0},{"type":"VEC3","componentType":5126,"count":168,"bufferView":0,"byteOffset":12},{"type":"VEC2","componentType":5126,"count":168,"bufferView":0,"byteOffset":24},{"type":"SCALAR","componentType":5123,"count":324,"bufferView":1,"byteOffset":0}],"bufferViews":[{"buffer":0,"byteOffset":0,"byteLength":5376,"byteStride":32,"target":34962},{"buffer":0,"byteOffset":5376,"byteLength":648,"target":34963}],"samplers":[{"magFilter":9728,"minFilter":9984,"wrapS":10497,"wrapT":10497}],"textures":[{"source":0,"sampler":0}],"images":[{"name":"Box_5_Base_color","mimeType":"image/png","uri":"textures/f2b76d24f7ae724a.png"}],"buffers":[{"uri":"Box_5.bin","byteLength":6024}],"materials":[{"name":"Box_5","doubleSided":true,"pbrMetallicRoughness":{"baseColorFactor":[0,0,0,1]},"emissiveFactor":[1,1,1],"emissiveTexture":{"index":0}}],"meshes":[{"name":"Cube.046","primitives":[{"attributes":{"POSITION":0,"NORMAL":1,"TEXCOORD_0":2},"mode":4,"material":0,"indices":3}]}],"nodes":[{"name":"Box_5","translation":[32.68461608886719,0,-9.867244720458984],"rotation":[0.70710688829422,0,0,0.7071066498756409],"mesh":0,"scale":[0.2,0.2,0.2]}],"scenes":[{"name":"Scene","nodes":[0]}],"scene":0}