{"asset":{"generator":"glTF-Transform v4.3.0","version":"2.0"},"accessors":[{"type":"VEC3","componentType":5126,"count":192,"max":[2.0901741981506348,1,1],"min":[-2.0901741981506348,-1,-1],"bufferView":0,"byteOffset":0},{"type":"VEC3","componentType":5126,"count":192,"bufferView":0,"byteOffset":12},{"type":"VEC2","componentType":5126,"count":192,"bufferView":0,"byteOffset":24},{"type":"SCALAR","componentType":5123,"count":372,"bufferView":1,"byteOffset":0}],"bufferViews":[{"buffer":0,"byteOffset":0,"byteLength":6144,"byteStride":32,"target":34962},{"buffer":0,"byteOffset":6144,"byteLength":744,"target":34963}],"samplers":[{"magFilter":9728,"minFilter":9984,"wrapS":10497,"wrapT":10497}],"textures":[{"source":0,"sampler":0}],"images":[{"name":"Box_2_Base_color","mimeType":"image/png","uri":"textures/c3380c699115d0bb.png"}],"buffers":[{"uri":"Box_2.bin","byteLength":6888}],"materials":[{"name":"Box_2","doubleSided":true,"pbrMetallicRoughness":{"baseColorFactor":[0,0,0,1]},"emissiveFactor":[1,1,1],"emissiveTexture":{"index":0}}],"meshes":[{"name":"Cube.028","primitives":[{"attributes":{"POSITION":0,"NORMAL":1,"TEXCOORD_0":2},"mode":4,"material":0,"indices":3}]}],"nodes":[{"name":"Box_2","translation":[28.76195526123047,0,-14.364591598510742],"rotation":[0.70710688829422,0,0,0.7071066498756409],"mesh":0,"scale":[0.2,0.2,0.2]}],"scenes":[{"name":"Scene","nodes":[0]}],"scene":0}