{"asset":{"generator":"glTF-Transform v4.3.0","version":"2.0"},"accessors":[{"type":"VEC3","componentType":5126,"count":800,"max":[0.6881116032600403,0.6799638867378235,3.5399181842803955],"min":[-0.6744090914726257,-0.6825570464134216,-1.7015997171401978],"bufferView":0,"byteOffset":0},{"type":"VEC3","componentType":5126,"count":800,"bufferView":0,"byteOffset":12},{"type":"VEC2","componentType":5126,"count":800,"bufferView":0,"byteOffset":24},{"type":"SCALAR","componentType":5123,"count":1614,"bufferView":1,"byteOffset":0}],"bufferViews":[{"buffer":0,"byteOffset":0,"byteLength":25600,"byteStride":32,"target":34962},{"buffer":0,"byteOffset":25600,"byteLength":3228,"target":34963}],"samplers":[{"magFilter":9728,"minFilter":9984,"wrapS":10497,"wrapT":10497}],"textures":[{"source":0,"sampler":0}],"images":[{"name":"Brazier_5_Base_color","mimeType":"image/png","uri":"textures/7e30e03f710717d6.png"}],"buffers":[{"uri":"Brazier_5.bin","byteLength":28828}],"materials":[{"name":"Brazier_5","doubleSided":true,"pbrMetallicRoughness":{"baseColorFactor":[0,0,0,1]},"emissiveFactor":[1,1,1],"emissiveTexture":{"index":0}}],"meshes":[{"name":"Circle.004","primitives":[{"attributes":{"POSITION":0,"NORMAL":1,"TEXCOORD_0":2},"mode":4,"material":0,"indices":3}]}],"nodes":[{"name":"Brazier_5","translation":[16.256038665771484,3.7803359031677246,3.1849164962768555],"rotation":[0.70710688829422,0,0,0.7071066498756409],"mesh":0,"scale":[0.2,0.2,0.2]}],"scenes":[{"name":"Scene","nodes":[0]}],"scene":0}