{"asset":{"generator":"glTF-Transform v4.3.0","version":"2.0"},"accessors":[{"type":"VEC3","componentType":5126,"count":800,"max":[1.2857744693756104,1.2794698476791382,1.78617525100708],"min":[-1.278427243232727,-1.2847319841384888,-1.4212229251861572],"bufferView":0,"byteOffset":0},{"type":"VEC3","componentType":5126,"count":800,"bufferView":0,"byteOffset":12},{"type":"VEC2","componentType":5126,"count":800,"bufferView":0,"byteOffset":24},{"type":"SCALAR","componentType":5123,"count":1428,"bufferView":1,"byteOffset":0}],"bufferViews":[{"buffer":0,"byteOffset":0,"byteLength":25600,"byteStride":32,"target":34962},{"buffer":0,"byteOffset":25600,"byteLength":2856,"target":34963}],"samplers":[{"magFilter":9728,"minFilter":9984,"wrapS":10497,"wrapT":10497}],"textures":[{"source":0,"sampler":0}],"images":[{"name":"Brazier_3_Base_color","mimeType":"image/png","uri":"textures/540ab71e1c4e1293.png"}],"buffers":[{"uri":"Brazier_3.bin","byteLength":28456}],"materials":[{"name":"Brazier_3","doubleSided":true,"pbrMetallicRoughness":{"baseColorFactor":[0,0,0,1]},"emissiveFactor":[1,1,1],"emissiveTexture":{"index":0}}],"meshes":[{"name":"Cylinder.019","primitives":[{"attributes":{"POSITION":0,"NORMAL":1,"TEXCOORD_0":2},"mode":4,"material":0,"indices":3}]}],"nodes":[{"name":"Brazier_3","translation":[-3.573810577392578,0.9184303283691406,4.000196933746338],"rotation":[0.70710688829422,0,0,0.7071066498756409],"mesh":0,"scale":[0.2,0.2,0.2]}],"scenes":[{"name":"Scene","nodes":[0]}],"scene":0}