{"asset":{"generator":"glTF-Transform v4.3.0","version":"2.0"},"accessors":[{"type":"VEC3","componentType":5126,"count":277,"max":[1.3701082468032837,1.3701081275939941,1.2160661220550537],"min":[-1.3701080083847046,-1.3701083660125732,-0.7506937384605408],"bufferView":0,"byteOffset":0},{"type":"VEC3","componentType":5126,"count":277,"bufferView":0,"byteOffset":12},{"type":"VEC2","componentType":5126,"count":277,"bufferView":0,"byteOffset":24},{"type":"SCALAR","componentType":5123,"count":888,"bufferView":1,"byteOffset":0}],"bufferViews":[{"buffer":0,"byteOffset":0,"byteLength":8864,"byteStride":32,"target":34962},{"buffer":0,"byteOffset":8864,"byteLength":1776,"target":34963}],"samplers":[{"magFilter":9728,"minFilter":9984,"wrapS":10497,"wrapT":10497}],"textures":[{"source":0,"sampler":0}],"images":[{"name":"Brazier_6_Base_color","mimeType":"image/png","uri":"textures/32c10c0a1ce99bd6.png"}],"buffers":[{"uri":"Brazier_6.bin","byteLength":10640}],"materials":[{"name":"Holy_Vase","doubleSided":true,"pbrMetallicRoughness":{"baseColorFactor":[0,0,0,1]},"emissiveFactor":[1,1,1],"emissiveTexture":{"index":0}}],"meshes":[{"name":"Circle.007","primitives":[{"attributes":{"POSITION":0,"NORMAL":1,"TEXCOORD_0":2},"mode":4,"material":0,"indices":3}]}],"nodes":[{"name":"Brazier_6","translation":[-0.045688629150390625,0.7716121673583984,6.962980270385742],"rotation":[0.70710688829422,0,0,0.7071066498756409],"mesh":0,"scale":[0.2,0.2,0.2]}],"scenes":[{"name":"Scene","nodes":[0]}],"scene":0}