{"asset":{"generator":"glTF-Transform v4.3.0","version":"2.0"},"accessors":[{"type":"VEC3","componentType":5126,"count":932,"max":[1.2209888696670532,1.2168174982070923,1.6181670427322388],"min":[-1.212499737739563,-1.2212072610855103,-1.4990440607070923],"bufferView":0,"byteOffset":0},{"type":"VEC3","componentType":5126,"count":932,"bufferView":0,"byteOffset":12},{"type":"VEC2","componentType":5126,"count":932,"bufferView":0,"byteOffset":24},{"type":"SCALAR","componentType":5123,"count":1716,"bufferView":1,"byteOffset":0}],"bufferViews":[{"buffer":0,"byteOffset":0,"byteLength":29824,"byteStride":32,"target":34962},{"buffer":0,"byteOffset":29824,"byteLength":3432,"target":34963}],"samplers":[{"magFilter":9728,"minFilter":9984,"wrapS":10497,"wrapT":10497}],"textures":[{"source":0,"sampler":0}],"images":[{"name":"Brazier_4_Base_color","mimeType":"image/png","uri":"textures/e215e0b8109c7e4b.png"}],"buffers":[{"uri":"Brazier_4.bin","byteLength":33256}],"materials":[{"name":"Brazier_4","doubleSided":true,"pbrMetallicRoughness":{"baseColorFactor":[0,0,0,1]},"emissiveFactor":[1,1,1],"emissiveTexture":{"index":0}}],"meshes":[{"name":"Cube.008","primitives":[{"attributes":{"POSITION":0,"NORMAL":1,"TEXCOORD_0":2},"mode":4,"material":0,"indices":3}]}],"nodes":[{"name":"Brazier_4","translation":[0.14587020874023438,0.750422477722168,3.997493028640747],"rotation":[0.70710688829422,0,0,0.7071066498756409],"mesh":0,"scale":[0.2,0.2,0.2]}],"scenes":[{"name":"Scene","nodes":[0]}],"scene":0}