{"asset":{"generator":"glTF-Transform v4.3.0","version":"2.0"},"accessors":[{"type":"VEC3","componentType":5126,"count":632,"max":[1.2792216539382935,1.2895488739013672,1.7586525678634644],"min":[-1.2849798202514648,-1.2746529579162598,-1.4487450122833252],"bufferView":0,"byteOffset":0},{"type":"VEC3","componentType":5126,"count":632,"bufferView":0,"byteOffset":12},{"type":"VEC2","componentType":5126,"count":632,"bufferView":0,"byteOffset":24},{"type":"SCALAR","componentType":5123,"count":1164,"bufferView":1,"byteOffset":0}],"bufferViews":[{"buffer":0,"byteOffset":0,"byteLength":20224,"byteStride":32,"target":34962},{"buffer":0,"byteOffset":20224,"byteLength":2328,"target":34963}],"samplers":[{"magFilter":9728,"minFilter":9984,"wrapS":10497,"wrapT":10497}],"textures":[{"source":0,"sampler":0}],"images":[{"name":"Brazier_1_Base_color","mimeType":"image/png","uri":"textures/0ded7ea17e50bb8f.png"}],"buffers":[{"uri":"Brazier_1.bin","byteLength":22552}],"materials":[{"name":"Brazier_1","doubleSided":true,"pbrMetallicRoughness":{"baseColorFactor":[0,0,0,1]},"emissiveFactor":[1,1,1],"emissiveTexture":{"index":0}}],"meshes":[{"name":"Cube.006","primitives":[{"attributes":{"POSITION":0,"NORMAL":1,"TEXCOORD_0":2},"mode":4,"material":0,"indices":3}]}],"nodes":[{"name":"Brazier_1","translation":[-3.5672569274902344,0.8909077644348145,-0.010884284973144531],"rotation":[0.70710688829422,0,0,0.7071066498756409],"mesh":0,"scale":[0.2,0.2,0.2]}],"scenes":[{"name":"Scene","nodes":[0]}],"scene":0}