{"asset":{"generator":"glTF-Transform v4.3.0","version":"2.0"},"accessors":[{"type":"VEC3","componentType":5126,"count":774,"max":[1.2143586874008179,1.222915768623352,1.5919232368469238],"min":[-1.2191299200057983,-1.21510910987854,-1.5252878665924072],"bufferView":0,"byteOffset":0},{"type":"VEC3","componentType":5126,"count":774,"bufferView":0,"byteOffset":12},{"type":"VEC2","componentType":5126,"count":774,"bufferView":0,"byteOffset":24},{"type":"SCALAR","componentType":5123,"count":1452,"bufferView":1,"byteOffset":0}],"bufferViews":[{"buffer":0,"byteOffset":0,"byteLength":24768,"byteStride":32,"target":34962},{"buffer":0,"byteOffset":24768,"byteLength":2904,"target":34963}],"samplers":[{"magFilter":9728,"minFilter":9984,"wrapS":10497,"wrapT":10497}],"textures":[{"source":0,"sampler":0}],"images":[{"name":"Brazier_2_Base_color","mimeType":"image/png","uri":"textures/f8cc4c2405253011.png"}],"buffers":[{"uri":"Brazier_2.bin","byteLength":27672}],"materials":[{"name":"Brazier_2","doubleSided":true,"pbrMetallicRoughness":{"baseColorFactor":[0,0,0,1]},"emissiveFactor":[1,1,1],"emissiveTexture":{"index":0}}],"meshes":[{"name":"Cube.011","primitives":[{"attributes":{"POSITION":0,"NORMAL":1,"TEXCOORD_0":2},"mode":4,"material":0,"indices":3}]}],"nodes":[{"name":"Brazier_2","translation":[0.15250015258789062,0.7241787910461426,-0.009607791900634766],"rotation":[0.70710688829422,0,0,0.7071066498756409],"mesh":0,"scale":[0.2,0.2,0.2]}],"scenes":[{"name":"Scene","nodes":[0]}],"scene":0}