{"asset":{"generator":"glTF-Transform v4.3.0","version":"2.0"},"accessors":[{"type":"VEC3","componentType":5126,"count":1426,"max":[2.7776808738708496,0.6919428706169128,5.599997520446777],"min":[-1.0857714414596558,-0.7098271250724792,-1.952581524848938],"bufferView":0,"byteOffset":0},{"type":"VEC3","componentType":5126,"count":1426,"bufferView":0,"byteOffset":12},{"type":"VEC2","componentType":5126,"count":1426,"bufferView":0,"byteOffset":24},{"type":"SCALAR","componentType":5123,"count":3132,"bufferView":1,"byteOffset":0}],"bufferViews":[{"buffer":0,"byteOffset":0,"byteLength":45632,"byteStride":32,"target":34962},{"buffer":0,"byteOffset":45632,"byteLength":6264,"target":34963}],"samplers":[{"magFilter":9728,"minFilter":9984,"wrapS":10497,"wrapT":10497}],"textures":[{"source":0,"sampler":0}],"images":[{"name":"Cage_Post_Base_color","mimeType":"image/png","uri":"textures/9f36e6a655cc24f6.png"}],"buffers":[{"uri":"Cage_Post.bin","byteLength":51896}],"materials":[{"name":"Cage_Post","doubleSided":true,"pbrMetallicRoughness":{"baseColorFactor":[0,0,0,1]},"emissiveFactor":[1,1,1],"emissiveTexture":{"index":0}}],"meshes":[{"name":"Cylinder.024","primitives":[{"attributes":{"POSITION":0,"NORMAL":1,"TEXCOORD_0":2},"mode":4,"material":0,"indices":3}]}],"nodes":[{"name":"Cage_Post","translation":[-26.098743438720703,3.3295536041259766,16.60671615600586],"rotation":[0.70710688829422,0,0,0.7071066498756409],"mesh":0,"scale":[0.2,0.2,0.2]}],"scenes":[{"name":"Scene","nodes":[0]}],"scene":0}