{"asset":{"generator":"glTF-Transform v4.3.0","version":"2.0"},"accessors":[{"type":"VEC3","componentType":5126,"count":840,"max":[1.3672935962677002,2.433366060256958,1.3679202795028687],"min":[-1.3672935962677002,-3.043267011642456,-1.3666667938232422],"bufferView":0,"byteOffset":0},{"type":"VEC3","componentType":5126,"count":840,"bufferView":0,"byteOffset":12},{"type":"VEC2","componentType":5126,"count":840,"bufferView":0,"byteOffset":24},{"type":"SCALAR","componentType":5123,"count":1944,"bufferView":1,"byteOffset":0}],"bufferViews":[{"buffer":0,"byteOffset":0,"byteLength":26880,"byteStride":32,"target":34962},{"buffer":0,"byteOffset":26880,"byteLength":3888,"target":34963}],"samplers":[{"magFilter":9728,"minFilter":9984,"wrapS":10497,"wrapT":10497}],"textures":[{"source":0,"sampler":0}],"images":[{"name":"Cage_4_Base_color","mimeType":"image/png","uri":"textures/6bafcf3bc33110d3.png"}],"buffers":[{"uri":"Cage_4.bin","byteLength":30768}],"materials":[{"name":"Cage_4","doubleSided":true,"pbrMetallicRoughness":{"baseColorFactor":[0,0,0,1]},"emissiveFactor":[1,1,1],"emissiveTexture":{"index":0}}],"meshes":[{"name":"Cylinder.040","primitives":[{"attributes":{"POSITION":0,"NORMAL":1,"TEXCOORD_0":2},"mode":4,"material":0,"indices":3}]}],"nodes":[{"name":"Cage_4","translation":[3.7502193450927734,2.511110782623291,57.94728469848633],"mesh":0,"scale":[0.2,0.2,0.2]}],"scenes":[{"name":"Scene","nodes":[0]}],"scene":0}