{"asset":{"generator":"glTF-Transform v4.3.0","version":"2.0"},"accessors":[{"type":"VEC3","componentType":5126,"count":1088,"max":[1,1.0000001192092896,2.084693431854248],"min":[-1,-1.0000001192092896,-2.0846924781799316],"bufferView":0,"byteOffset":0},{"type":"VEC3","componentType":5126,"count":1088,"bufferView":0,"byteOffset":12},{"type":"VEC2","componentType":5126,"count":1088,"bufferView":0,"byteOffset":24},{"type":"SCALAR","componentType":5123,"count":2376,"bufferView":1,"byteOffset":0}],"bufferViews":[{"buffer":0,"byteOffset":0,"byteLength":34816,"byteStride":32,"target":34962},{"buffer":0,"byteOffset":34816,"byteLength":4752,"target":34963}],"samplers":[{"magFilter":9728,"minFilter":9984,"wrapS":10497,"wrapT":10497}],"textures":[{"source":0,"sampler":0}],"images":[{"name":"Cage_1_Base_color","mimeType":"image/png","uri":"textures/01ece9f69b89bd04.png"}],"buffers":[{"uri":"Cage_1.bin","byteLength":39568}],"materials":[{"name":"Cage_1","doubleSided":true,"pbrMetallicRoughness":{"baseColorFactor":[0,0,0,1]},"emissiveFactor":[1,1,1],"emissiveTexture":{"index":0}}],"meshes":[{"name":"Cylinder.034","primitives":[{"attributes":{"POSITION":0,"NORMAL":1,"TEXCOORD_0":2},"mode":4,"material":0,"indices":3}]}],"nodes":[{"name":"Cage_1","translation":[-8.073951721191406,1.2253131866455078,37.34627151489258],"rotation":[0.70710688829422,0,0,0.7071066498756409],"mesh":0,"scale":[0.2,0.2,0.2]}],"scenes":[{"name":"Scene","nodes":[0]}],"scene":0}