{"asset":{"generator":"glTF-Transform v4.3.0","version":"2.0"},"accessors":[{"type":"VEC3","componentType":5126,"count":708,"max":[1,1,1],"min":[-1,-1.0000001192092896,-2.959118604660034],"bufferView":0,"byteOffset":0},{"type":"VEC3","componentType":5126,"count":708,"bufferView":0,"byteOffset":12},{"type":"VEC2","componentType":5126,"count":708,"bufferView":0,"byteOffset":24},{"type":"SCALAR","componentType":5123,"count":1824,"bufferView":1,"byteOffset":0}],"bufferViews":[{"buffer":0,"byteOffset":0,"byteLength":22656,"byteStride":32,"target":34962},{"buffer":0,"byteOffset":22656,"byteLength":3648,"target":34963}],"samplers":[{"magFilter":9728,"minFilter":9984,"wrapS":10497,"wrapT":10497}],"textures":[{"source":0,"sampler":0}],"images":[{"name":"Cage_2_Base_color","mimeType":"image/png","uri":"textures/cd49d410eadad830.png"}],"buffers":[{"uri":"Cage_2.bin","byteLength":26304}],"materials":[{"name":"Cage_2","doubleSided":true,"pbrMetallicRoughness":{"baseColorFactor":[0,0,0,1]},"emissiveFactor":[1,1,1],"emissiveTexture":{"index":0}}],"meshes":[{"name":"Cube.094","primitives":[{"attributes":{"POSITION":0,"NORMAL":1,"TEXCOORD_0":2},"mode":4,"material":0,"indices":3}]}],"nodes":[{"name":"Cage_2","translation":[-4.532558441162109,0.14061972498893738,37.13813400268555],"rotation":[0.70710688829422,0,0,0.7071066498756409],"mesh":0,"scale":[0.2,0.2,0.2]}],"scenes":[{"name":"Scene","nodes":[0]}],"scene":0}