{"asset":{"generator":"glTF-Transform v4.3.0","version":"2.0"},"accessors":[{"type":"VEC3","componentType":5126,"count":947,"max":[1.31116783618927,2.319091796875,1.3116936683654785],"min":[-1.31116783618927,-2.981552839279175,-1.3106417655944824],"bufferView":0,"byteOffset":0},{"type":"VEC3","componentType":5126,"count":947,"bufferView":0,"byteOffset":12},{"type":"VEC2","componentType":5126,"count":947,"bufferView":0,"byteOffset":24},{"type":"SCALAR","componentType":5123,"count":2286,"bufferView":1,"byteOffset":0}],"bufferViews":[{"buffer":0,"byteOffset":0,"byteLength":30304,"byteStride":32,"target":34962},{"buffer":0,"byteOffset":30304,"byteLength":4572,"target":34963}],"samplers":[{"magFilter":9728,"minFilter":9984,"wrapS":10497,"wrapT":10497}],"textures":[{"source":0,"sampler":0}],"images":[{"name":"Cage_3_Base_color","mimeType":"image/png","uri":"textures/c332fb90513f1e01.png"}],"buffers":[{"uri":"Cage_3.bin","byteLength":34876}],"materials":[{"name":"Cage_3","doubleSided":true,"pbrMetallicRoughness":{"baseColorFactor":[0,0,0,1]},"emissiveFactor":[1,1,1],"emissiveTexture":{"index":0}}],"meshes":[{"name":"Cylinder.044","primitives":[{"attributes":{"POSITION":0,"NORMAL":1,"TEXCOORD_0":2},"mode":4,"material":0,"indices":3}]}],"nodes":[{"name":"Cage_3","translation":[-1.0717544555664062,2.527698516845703,57.9473762512207],"mesh":0,"scale":[0.2,0.2,0.2]}],"scenes":[{"name":"Scene","nodes":[0]}],"scene":0}