{"asset":{"generator":"glTF-Transform v4.3.0","version":"2.0"},"accessors":[{"type":"VEC3","componentType":5126,"count":1836,"max":[1.2493336200714111,1.2608959674835205,5.038600444793701],"min":[-1.2573254108428955,-1.250769853591919,-1.7498266696929932],"bufferView":0,"byteOffset":0},{"type":"VEC3","componentType":5126,"count":1836,"bufferView":0,"byteOffset":12},{"type":"VEC2","componentType":5126,"count":1836,"bufferView":0,"byteOffset":24},{"type":"SCALAR","componentType":5123,"count":4608,"bufferView":1,"byteOffset":0}],"bufferViews":[{"buffer":0,"byteOffset":0,"byteLength":58752,"byteStride":32,"target":34962},{"buffer":0,"byteOffset":58752,"byteLength":9216,"target":34963}],"samplers":[{"magFilter":9728,"minFilter":9984,"wrapS":10497,"wrapT":10497}],"textures":[{"source":0,"sampler":0}],"images":[{"name":"Candelabra_4_Base_color","mimeType":"image/png","uri":"textures/471b6ba80aaf12f4.png"}],"buffers":[{"uri":"Candelabra_4.bin","byteLength":67968}],"materials":[{"name":"Candelabra_4","doubleSided":true,"pbrMetallicRoughness":{"baseColorFactor":[0,0,0,1]},"emissiveFactor":[1,1,1],"emissiveTexture":{"index":0}}],"meshes":[{"name":"Circle.002","primitives":[{"attributes":{"POSITION":0,"NORMAL":1,"TEXCOORD_0":2},"mode":4,"material":0,"indices":3}]}],"nodes":[{"name":"Candelabra_4","translation":[16.267765045166016,5.065786838531494,-0.0023546218872070312],"rotation":[0.70710688829422,0,0,0.7071066498756409],"mesh":0,"scale":[0.2,0.2,0.2]}],"scenes":[{"name":"Scene","nodes":[0]}],"scene":0}