{"asset":{"generator":"glTF-Transform v4.3.0","version":"2.0"},"accessors":[{"type":"VEC3","componentType":5126,"count":99,"max":[0.3570115268230438,0.35956525802612305,0.9223324060440063],"min":[-0.36193424463272095,-0.36121854186058044,-0.5037939548492432],"bufferView":0,"byteOffset":0},{"type":"VEC3","componentType":5126,"count":99,"bufferView":0,"byteOffset":12},{"type":"VEC2","componentType":5126,"count":99,"bufferView":0,"byteOffset":24},{"type":"SCALAR","componentType":5123,"count":258,"bufferView":1,"byteOffset":0}],"bufferViews":[{"buffer":0,"byteOffset":0,"byteLength":3168,"byteStride":32,"target":34962},{"buffer":0,"byteOffset":3168,"byteLength":516,"target":34963}],"samplers":[{"magFilter":9728,"minFilter":9984,"wrapS":10497,"wrapT":10497}],"textures":[{"source":0,"sampler":0}],"images":[{"name":"Candle_2_Base_color","mimeType":"image/png","uri":"textures/d5c72b97ac4e2a40.png"}],"buffers":[{"uri":"Candle_2.bin","byteLength":3684}],"materials":[{"name":"Candle_2","doubleSided":true,"pbrMetallicRoughness":{"baseColorFactor":[0,0,0,1]},"emissiveFactor":[1,1,1],"emissiveTexture":{"index":0}}],"meshes":[{"name":"Plane.003","primitives":[{"attributes":{"POSITION":0,"NORMAL":1,"TEXCOORD_0":2},"mode":4,"material":0,"indices":3}]}],"nodes":[{"name":"Candle_2","translation":[5.352985382080078,0.5661752223968506,0.005060672760009766],"rotation":[0.70710688829422,0,0,0.7071066498756409],"mesh":0,"scale":[0.2,0.2,0.2]}],"scenes":[{"name":"Scene","nodes":[0]}],"scene":0}