{"asset":{"generator":"glTF-Transform v4.3.0","version":"2.0"},"accessors":[{"type":"VEC3","componentType":5126,"count":638,"max":[0.7649168968200684,0.3753024637699127,1.6870708465576172],"min":[-0.7568635940551758,-0.375302255153656,-0.6834142208099365],"bufferView":0,"byteOffset":0},{"type":"VEC3","componentType":5126,"count":638,"bufferView":0,"byteOffset":12},{"type":"VEC2","componentType":5126,"count":638,"bufferView":0,"byteOffset":24},{"type":"SCALAR","componentType":5123,"count":1776,"bufferView":1,"byteOffset":0}],"bufferViews":[{"buffer":0,"byteOffset":0,"byteLength":20416,"byteStride":32,"target":34962},{"buffer":0,"byteOffset":20416,"byteLength":3552,"target":34963}],"samplers":[{"magFilter":9728,"minFilter":9984,"wrapS":10497,"wrapT":10497}],"textures":[{"source":0,"sampler":0}],"images":[{"name":"Candelabra_2_Base_color","mimeType":"image/png","uri":"textures/c42510fd56a119d5.png"}],"buffers":[{"uri":"Candelabra_2.bin","byteLength":23968}],"materials":[{"name":"Candelabra_2","doubleSided":true,"pbrMetallicRoughness":{"baseColorFactor":[0,0,0,1]},"emissiveFactor":[1,1,1],"emissiveTexture":{"index":0}}],"meshes":[{"name":"Circle.003","primitives":[{"attributes":{"POSITION":0,"NORMAL":1,"TEXCOORD_0":2},"mode":4,"material":0,"indices":3}]}],"nodes":[{"name":"Candelabra_2","translation":[11.915096282958984,1.6273417472839355,0],"rotation":[0.70710688829422,0,0,0.7071066498756409],"mesh":0,"scale":[0.2,0.2,0.2]}],"scenes":[{"name":"Scene","nodes":[0]}],"scene":0}