{"asset":{"generator":"glTF-Transform v4.3.0","version":"2.0"},"accessors":[{"type":"VEC3","componentType":5126,"count":991,"max":[1.392192006111145,0.3753024935722351,2.4760172367095947],"min":[-1.398087978363037,-0.3753022253513336,-0.9373453855514526],"bufferView":0,"byteOffset":0},{"type":"VEC3","componentType":5126,"count":991,"bufferView":0,"byteOffset":12},{"type":"VEC2","componentType":5126,"count":991,"bufferView":0,"byteOffset":24},{"type":"SCALAR","componentType":5123,"count":2736,"bufferView":1,"byteOffset":0}],"bufferViews":[{"buffer":0,"byteOffset":0,"byteLength":31712,"byteStride":32,"target":34962},{"buffer":0,"byteOffset":31712,"byteLength":5472,"target":34963}],"samplers":[{"magFilter":9728,"minFilter":9984,"wrapS":10497,"wrapT":10497}],"textures":[{"source":0,"sampler":0}],"images":[{"name":"Candelabra_1_Base_color","mimeType":"image/png","uri":"textures/25af1b845125b0ac.png"}],"buffers":[{"uri":"Candelabra_1.bin","byteLength":37184}],"materials":[{"name":"Candelabra_1","doubleSided":true,"pbrMetallicRoughness":{"baseColorFactor":[0,0,0,1]},"emissiveFactor":[1,1,1],"emissiveTexture":{"index":0}}],"meshes":[{"name":"Circle.001","primitives":[{"attributes":{"POSITION":0,"NORMAL":1,"TEXCOORD_0":2},"mode":4,"material":0,"indices":3}]}],"nodes":[{"name":"Candelabra_1","translation":[9.337360382080078,2.4639835357666016,0],"rotation":[0.70710688829422,0,0,0.7071066498756409],"mesh":0,"scale":[0.2,0.2,0.2]}],"scenes":[{"name":"Scene","nodes":[0]}],"scene":0}