{"asset":{"generator":"glTF-Transform v4.3.0","version":"2.0"},"accessors":[{"type":"VEC3","componentType":5126,"count":1310,"max":[1.0000135898590088,0.3755514919757843,2.3364884853363037],"min":[-1.0503973960876465,-0.3750532269477844,-1.8679062128067017],"bufferView":0,"byteOffset":0},{"type":"VEC3","componentType":5126,"count":1310,"bufferView":0,"byteOffset":12},{"type":"VEC2","componentType":5126,"count":1310,"bufferView":0,"byteOffset":24},{"type":"SCALAR","componentType":5123,"count":3576,"bufferView":1,"byteOffset":0}],"bufferViews":[{"buffer":0,"byteOffset":0,"byteLength":41920,"byteStride":32,"target":34962},{"buffer":0,"byteOffset":41920,"byteLength":7152,"target":34963}],"samplers":[{"magFilter":9728,"minFilter":9984,"wrapS":10497,"wrapT":10497}],"textures":[{"source":0,"sampler":0}],"images":[{"name":"Candelabra_3_Base_color","mimeType":"image/png","uri":"textures/46cd1a9559b8fcbc.png"}],"buffers":[{"uri":"Candelabra_3.bin","byteLength":49072}],"materials":[{"name":"Candelabra_3","doubleSided":true,"pbrMetallicRoughness":{"baseColorFactor":[0,0,0,1]},"emissiveFactor":[1,1,1],"emissiveTexture":{"index":0}}],"meshes":[{"name":"Circle.006","primitives":[{"attributes":{"POSITION":0,"NORMAL":1,"TEXCOORD_0":2},"mode":4,"material":0,"indices":3}]}],"nodes":[{"name":"Candelabra_3","translation":[14.402381896972656,2.276759147644043,-0.00024890899658203125],"rotation":[0.70710688829422,0,0,0.7071066498756409],"mesh":0,"scale":[0.2,0.2,0.2]}],"scenes":[{"name":"Scene","nodes":[0]}],"scene":0}