{"asset":{"generator":"glTF-Transform v4.3.0","version":"2.0"},"accessors":[{"type":"VEC3","componentType":5126,"count":1569,"max":[2.1293861865997314,0.7924427390098572,4.051264762878418],"min":[-2.0411736965179443,-0.869346559047699,-0.6191309690475464],"bufferView":0,"byteOffset":0},{"type":"VEC3","componentType":5126,"count":1569,"bufferView":0,"byteOffset":12},{"type":"VEC2","componentType":5126,"count":1569,"bufferView":0,"byteOffset":24},{"type":"SCALAR","componentType":5123,"count":3912,"bufferView":1,"byteOffset":0}],"bufferViews":[{"buffer":0,"byteOffset":0,"byteLength":50208,"byteStride":32,"target":34962},{"buffer":0,"byteOffset":50208,"byteLength":7824,"target":34963}],"samplers":[{"magFilter":9728,"minFilter":9984,"wrapS":10497,"wrapT":10497}],"textures":[{"source":0,"sampler":0}],"images":[{"name":"Candle_Shelf_Base_color","mimeType":"image/png","uri":"textures/e3713628df26c0c9.png"}],"buffers":[{"uri":"Candle_Shelf.bin","byteLength":58032}],"materials":[{"name":"Candle_Shelf","doubleSided":true,"pbrMetallicRoughness":{"baseColorFactor":[0,0,0,1]},"emissiveFactor":[1,1,1],"emissiveTexture":{"index":0}}],"meshes":[{"name":"Cube.059","primitives":[{"attributes":{"POSITION":0,"NORMAL":1,"TEXCOORD_0":2},"mode":4,"material":0,"indices":3}]}],"nodes":[{"name":"Candle_Shelf","translation":[-21.018352508544922,2.1853585243225098,23.65662956237793],"rotation":[0.70710688829422,0,0,0.7071066498756409],"mesh":0,"scale":[0.2,0.2,0.2]}],"scenes":[{"name":"Scene","nodes":[0]}],"scene":0}