{"asset":{"generator":"glTF-Transform v4.3.0","version":"2.0"},"accessors":[{"type":"VEC3","componentType":5126,"count":101,"max":[0.3662385642528534,0.35197359323501587,2.0525448322296143],"min":[-0.34607747197151184,-0.36034244298934937,-0.1255783587694168],"bufferView":0,"byteOffset":0},{"type":"VEC3","componentType":5126,"count":101,"bufferView":0,"byteOffset":12},{"type":"VEC2","componentType":5126,"count":101,"bufferView":0,"byteOffset":24},{"type":"SCALAR","componentType":5123,"count":258,"bufferView":1,"byteOffset":0}],"bufferViews":[{"buffer":0,"byteOffset":0,"byteLength":3232,"byteStride":32,"target":34962},{"buffer":0,"byteOffset":3232,"byteLength":516,"target":34963}],"samplers":[{"magFilter":9728,"minFilter":9984,"wrapS":10497,"wrapT":10497}],"textures":[{"source":0,"sampler":0}],"images":[{"name":"Candle_1_Base_color","mimeType":"image/png","uri":"textures/49facad5a5b8e06a.png"}],"buffers":[{"uri":"Candle_1.bin","byteLength":3748}],"materials":[{"name":"Candle_1","doubleSided":true,"pbrMetallicRoughness":{"baseColorFactor":[0,0,0,1]},"emissiveFactor":[1,1,1],"emissiveTexture":{"index":0}}],"meshes":[{"name":"Plane.004","primitives":[{"attributes":{"POSITION":0,"NORMAL":1,"TEXCOORD_0":2},"mode":4,"material":0,"indices":3}]}],"nodes":[{"name":"Candle_1","translation":[4.383434295654297,1.696387767791748,0.004184246063232422],"rotation":[0.70710688829422,0,0,0.7071066498756409],"mesh":0,"scale":[0.2,0.2,0.2]}],"scenes":[{"name":"Scene","nodes":[0]}],"scene":0}