{"asset":{"generator":"glTF-Transform v4.3.0","version":"2.0"},"accessors":[{"type":"VEC3","componentType":5126,"count":582,"max":[0.9844375252723694,0.5792908072471619,0.608285665512085],"min":[-0.9999542832374573,-0.6937233805656433,-0.8357783555984497],"bufferView":0,"byteOffset":0},{"type":"VEC3","componentType":5126,"count":582,"bufferView":0,"byteOffset":12},{"type":"VEC2","componentType":5126,"count":582,"bufferView":0,"byteOffset":24},{"type":"SCALAR","componentType":5123,"count":1548,"bufferView":1,"byteOffset":0}],"bufferViews":[{"buffer":0,"byteOffset":0,"byteLength":18624,"byteStride":32,"target":34962},{"buffer":0,"byteOffset":18624,"byteLength":3096,"target":34963}],"samplers":[{"magFilter":9728,"minFilter":9984,"wrapS":10497,"wrapT":10497}],"textures":[{"source":0,"sampler":0}],"images":[{"name":"Candles_Base_color","mimeType":"image/png","uri":"textures/148e04d2f98bf454.png"}],"buffers":[{"uri":"Candles.bin","byteLength":21720}],"materials":[{"name":"Candles","doubleSided":true,"pbrMetallicRoughness":{"baseColorFactor":[0,0,0,1]},"emissiveFactor":[1,1,1],"emissiveTexture":{"index":0}}],"meshes":[{"name":"Plane.010","primitives":[{"attributes":{"POSITION":0,"NORMAL":1,"TEXCOORD_0":2},"mode":4,"material":0,"indices":3}]}],"nodes":[{"name":"Candles","translation":[3.9760093688964844,0.5493869781494141,-1.6791085004806519],"rotation":[0.70710688829422,0,0,0.7071066498756409],"mesh":0,"scale":[0.2,0.2,0.2]}],"scenes":[{"name":"Scene","nodes":[0]}],"scene":0}