{"asset":{"generator":"glTF-Transform v4.3.0","version":"2.0"},"accessors":[{"type":"VEC3","componentType":5126,"count":488,"max":[3.073258876800537,1.3799612522125244,1.38973069190979],"min":[-3.05670166015625,-1.4130325317382812,-1.4032628536224365],"bufferView":0,"byteOffset":0},{"type":"VEC3","componentType":5126,"count":488,"bufferView":0,"byteOffset":12},{"type":"VEC2","componentType":5126,"count":488,"bufferView":0,"byteOffset":24},{"type":"SCALAR","componentType":5123,"count":876,"bufferView":1,"byteOffset":0},{"type":"SCALAR","componentType":5123,"count":5805,"bufferView":1,"byteOffset":1752},{"type":"VEC3","componentType":5126,"count":2799,"max":[2.6263132095336914,4.9398040771484375,3.2498931884765625],"min":[-2.5780227184295654,-3.8030457496643066,-3.188854932785034],"bufferView":2,"byteOffset":0},{"type":"VEC3","componentType":5126,"count":2799,"bufferView":2,"byteOffset":12},{"type":"VEC2","componentType":5126,"count":2799,"bufferView":2,"byteOffset":24}],"bufferViews":[{"buffer":0,"byteOffset":0,"byteLength":15616,"byteStride":32,"target":34962},{"buffer":0,"byteOffset":15616,"byteLength":13364,"target":34963},{"buffer":0,"byteOffset":28980,"byteLength":89568,"byteStride":32,"target":34962}],"samplers":[{"magFilter":9728,"minFilter":9984,"wrapS":10497,"wrapT":10497}],"textures":[{"source":0,"sampler":0}],"images":[{"name":"Cart_3_Base_color","mimeType":"image/png","uri":"textures/6580485e4e0cf70b.png"}],"buffers":[{"uri":"Cart_3.bin","byteLength":118548}],"materials":[{"name":"Cart_3","doubleSided":true,"pbrMetallicRoughness":{"baseColorFactor":[0,0,0,1]},"emissiveFactor":[1,1,1],"emissiveTexture":{"index":0}}],"meshes":[{"name":"Cube.092","primitives":[{"attributes":{"POSITION":0,"NORMAL":1,"TEXCOORD_0":2},"mode":4,"material":0,"indices":3}]},{"name":"Cube.065","primitives":[{"attributes":{"POSITION":5,"NORMAL":6,"TEXCOORD_0":7},"mode":4,"material":0,"indices":4}]}],"nodes":[{"name":"Wheels_2","translation":[0.07919692993164062,3.4785218238830566,3.5464882850646973],"mesh":0},{"name":"Wheels_2.001","translation":[0.07919692993164062,-2.322671413421631,3.5464885234832764],"mesh":0},{"name":"Cart_3","translation":[14.232494354248047,0.4393007755279541,19.610013961791992],"rotation":[0.70710688829422,0,0,0.7071066498756409],"mesh":1,"children":[0,1],"scale":[0.2,0.2,0.2]}],"scenes":[{"name":"Scene","nodes":[2]}],"scene":0}