{"asset":{"generator":"glTF-Transform v4.3.0","version":"2.0"},"accessors":[{"type":"VEC3","componentType":5126,"count":752,"max":[1.0509270429611206,1.8821762800216675,1.0509265661239624],"min":[-1.0509274005889893,-1.8821762800216675,-1.0509270429611206],"bufferView":0,"byteOffset":0},{"type":"VEC3","componentType":5126,"count":752,"bufferView":0,"byteOffset":12},{"type":"VEC2","componentType":5126,"count":752,"bufferView":0,"byteOffset":24},{"type":"SCALAR","componentType":5123,"count":1428,"bufferView":1,"byteOffset":0},{"type":"SCALAR","componentType":5123,"count":1992,"bufferView":1,"byteOffset":2856},{"type":"VEC3","componentType":5126,"count":940,"max":[3.0614476203918457,1.5112038850784302,0.7979320883750916],"min":[-3.9232301712036133,-1.4477592706680298,-1.260637640953064],"bufferView":2,"byteOffset":0},{"type":"VEC3","componentType":5126,"count":940,"bufferView":2,"byteOffset":12},{"type":"VEC2","componentType":5126,"count":940,"bufferView":2,"byteOffset":24}],"bufferViews":[{"buffer":0,"byteOffset":0,"byteLength":24064,"byteStride":32,"target":34962},{"buffer":0,"byteOffset":24064,"byteLength":6840,"target":34963},{"buffer":0,"byteOffset":30904,"byteLength":30080,"byteStride":32,"target":34962}],"samplers":[{"magFilter":9728,"minFilter":9984,"wrapS":10497,"wrapT":10497}],"textures":[{"source":0,"sampler":0}],"images":[{"name":"Cart_0_Var_2","mimeType":"image/png","uri":"textures/b9cff477e5cfe96a.png"}],"buffers":[{"uri":"Cart.bin","byteLength":60984}],"materials":[{"name":"Cart","doubleSided":true,"pbrMetallicRoughness":{"baseColorFactor":[0,0,0,1]},"emissiveFactor":[1,1,1],"emissiveTexture":{"index":0}}],"meshes":[{"name":"Cube.048","primitives":[{"attributes":{"POSITION":0,"NORMAL":1,"TEXCOORD_0":2},"mode":4,"material":0,"indices":3}]},{"name":"Cube.088","primitives":[{"attributes":{"POSITION":5,"NORMAL":6,"TEXCOORD_0":7},"mode":4,"material":0,"indices":4}]}],"nodes":[{"name":"Wooden_Cart_Variant2.001","translation":[0.6086845397949219,0.0035900273360311985,0.851434588432312],"mesh":0},{"name":"Cart","translation":[36.834598541259766,-2.104696750640869,-38.34131622314453],"rotation":[0.70710688829422,0,0,0.7071066498756409],"mesh":1,"children":[0],"scale":[0.2,0.2,0.2]}],"scenes":[{"name":"Scene","nodes":[1]}],"scene":0}