{"asset":{"generator":"glTF-Transform v4.3.0","version":"2.0"},"accessors":[{"type":"VEC3","componentType":5126,"count":1121,"max":[3.1784021854400635,1.8364436626434326,1.7081341743469238],"min":[-3.1784026622772217,-1.8364416360855103,-1.7081347703933716],"bufferView":0,"byteOffset":0},{"type":"VEC3","componentType":5126,"count":1121,"bufferView":0,"byteOffset":12},{"type":"VEC2","componentType":5126,"count":1121,"bufferView":0,"byteOffset":24},{"type":"SCALAR","componentType":5123,"count":2004,"bufferView":1,"byteOffset":0},{"type":"SCALAR","componentType":5123,"count":1176,"bufferView":1,"byteOffset":4008},{"type":"VEC3","componentType":5126,"count":637,"max":[2.807485580444336,5.674845218658447,1.4704018831253052],"min":[-2.807485580444336,-4.4873528480529785,-4.834408283233643],"bufferView":2,"byteOffset":0},{"type":"VEC3","componentType":5126,"count":637,"bufferView":2,"byteOffset":12},{"type":"VEC2","componentType":5126,"count":637,"bufferView":2,"byteOffset":24}],"bufferViews":[{"buffer":0,"byteOffset":0,"byteLength":35872,"byteStride":32,"target":34962},{"buffer":0,"byteOffset":35872,"byteLength":6360,"target":34963},{"buffer":0,"byteOffset":42232,"byteLength":20384,"byteStride":32,"target":34962}],"samplers":[{"magFilter":9728,"minFilter":9984,"wrapS":10497,"wrapT":10497}],"textures":[{"source":0,"sampler":0},{"source":1,"sampler":0}],"images":[{"name":"Cart_4_Base_color","mimeType":"image/png","uri":"textures/61fba704b8074ef0.png"},{"name":"Cart_2_Base_color","mimeType":"image/png","uri":"textures/6e49948fbaa5c7c7.png"}],"buffers":[{"uri":"Cart_2.bin","byteLength":62616}],"materials":[{"name":"Cart_4","doubleSided":true,"pbrMetallicRoughness":{"baseColorFactor":[0,0,0,1]},"emissiveFactor":[1,1,1],"emissiveTexture":{"index":0}},{"name":"Cart_2","doubleSided":true,"pbrMetallicRoughness":{"baseColorFactor":[0,0,0,1]},"emissiveFactor":[1,1,1],"emissiveTexture":{"index":1}}],"meshes":[{"name":"Cube.049","primitives":[{"attributes":{"POSITION":0,"NORMAL":1,"TEXCOORD_0":2},"mode":4,"material":0,"indices":3}]},{"name":"Cube.050","primitives":[{"attributes":{"POSITION":5,"NORMAL":6,"TEXCOORD_0":7},"mode":4,"material":1,"indices":4}]}],"nodes":[{"name":"Wheels_1.001","translation":[-0.04194211959838867,3.883690357208252,1.5255308151245117],"mesh":0},{"name":"Wheels_1.002","translation":[-0.04194211959838867,-2.318110942840576,1.5255311727523804],"mesh":0},{"name":"Cart_2","translation":[5.687618255615234,-1.585748314857483,19.376319885253906],"rotation":[0.70710688829422,0,0,0.7071066498756409],"mesh":1,"children":[0,1],"scale":[0.2,0.2,0.2]}],"scenes":[{"name":"Scene","nodes":[2]}],"scene":0}