{"asset":{"generator":"glTF-Transform v4.3.0","version":"2.0"},"accessors":[{"type":"VEC3","componentType":5126,"count":852,"max":[0.4118229150772095,0.1802835613489151,2.9442930221557617],"min":[-0.41182270646095276,-0.18028415739536285,-2.9744176864624023],"bufferView":0,"byteOffset":0},{"type":"VEC3","componentType":5126,"count":852,"bufferView":0,"byteOffset":12},{"type":"VEC2","componentType":5126,"count":852,"bufferView":0,"byteOffset":24},{"type":"SCALAR","componentType":5123,"count":1692,"bufferView":1,"byteOffset":0}],"bufferViews":[{"buffer":0,"byteOffset":0,"byteLength":27264,"byteStride":32,"target":34962},{"buffer":0,"byteOffset":27264,"byteLength":3384,"target":34963}],"samplers":[{"magFilter":9728,"minFilter":9984,"wrapS":10497,"wrapT":10497}],"textures":[{"source":0,"sampler":0}],"images":[{"name":"Chains_1_Base_color","mimeType":"image/png","uri":"textures/d0edef7cfb61154c.png"}],"buffers":[{"uri":"Chains_1.bin","byteLength":30648}],"materials":[{"name":"Chains_1","doubleSided":true,"pbrMetallicRoughness":{"baseColorFactor":[0,0,0,1]},"emissiveFactor":[1,1,1],"emissiveTexture":{"index":0}}],"meshes":[{"name":"Sphere.007","primitives":[{"attributes":{"POSITION":0,"NORMAL":1,"TEXCOORD_0":2},"mode":4,"material":0,"indices":3}]}],"nodes":[{"name":"Chains_1","translation":[-21.200214385986328,1.4274280071258545,-4.404661655426025],"rotation":[0.70710688829422,0,0,0.7071066498756409],"mesh":0,"scale":[0.2,0.2,0.2]}],"scenes":[{"name":"Scene","nodes":[0]}],"scene":0}