{"asset":{"generator":"glTF-Transform v4.3.0","version":"2.0"},"accessors":[{"type":"VEC3","componentType":5126,"count":768,"max":[0.180283784866333,0.17506732046604156,2.690237522125244],"min":[-0.1802837997674942,-0.17506732046604156,-2.690237283706665],"bufferView":0,"byteOffset":0},{"type":"VEC3","componentType":5126,"count":768,"bufferView":0,"byteOffset":12},{"type":"VEC2","componentType":5126,"count":768,"bufferView":0,"byteOffset":24},{"type":"SCALAR","componentType":5123,"count":1536,"bufferView":1,"byteOffset":0}],"bufferViews":[{"buffer":0,"byteOffset":0,"byteLength":24576,"byteStride":32,"target":34962},{"buffer":0,"byteOffset":24576,"byteLength":3072,"target":34963}],"samplers":[{"magFilter":9728,"minFilter":9984,"wrapS":10497,"wrapT":10497}],"textures":[{"source":0,"sampler":0}],"images":[{"name":"Chains_3_Base_color","mimeType":"image/png","uri":"textures/6ac6ba38aedb2e8a.png"}],"buffers":[{"uri":"Chains_3.bin","byteLength":27648}],"materials":[{"name":"Chains_3","doubleSided":true,"pbrMetallicRoughness":{"baseColorFactor":[0,0,0,1]},"emissiveFactor":[1,1,1],"emissiveTexture":{"index":0}}],"meshes":[{"name":"Cube.037","primitives":[{"attributes":{"POSITION":0,"NORMAL":1,"TEXCOORD_0":2},"mode":4,"material":0,"indices":3}]}],"nodes":[{"name":"Chains_3","translation":[-18.810916900634766,1.7116081714630127,-4.404661655426025],"rotation":[0.70710688829422,0,0,0.7071066498756409],"mesh":0,"scale":[0.2,0.2,0.2]}],"scenes":[{"name":"Scene","nodes":[0]}],"scene":0}