{"asset":{"generator":"glTF-Transform v4.3.0","version":"2.0"},"accessors":[{"type":"VEC3","componentType":5126,"count":184,"max":[1,1.0924925804138184,2.052532196044922],"min":[-1,-1.000000238418579,-4.443296432495117],"bufferView":0,"byteOffset":0},{"type":"VEC3","componentType":5126,"count":184,"bufferView":0,"byteOffset":12},{"type":"VEC2","componentType":5126,"count":184,"bufferView":0,"byteOffset":24},{"type":"SCALAR","componentType":5123,"count":456,"bufferView":1,"byteOffset":0}],"bufferViews":[{"buffer":0,"byteOffset":0,"byteLength":5888,"byteStride":32,"target":34962},{"buffer":0,"byteOffset":5888,"byteLength":912,"target":34963}],"samplers":[{"magFilter":9728,"minFilter":9984,"wrapS":10497,"wrapT":10497}],"textures":[{"source":0,"sampler":0}],"images":[{"name":"Chair_3_Base_color","mimeType":"image/png","uri":"textures/c556fb0582524bb7.png"}],"buffers":[{"uri":"Chair_3.bin","byteLength":6800}],"materials":[{"name":"Chair_3","doubleSided":true,"pbrMetallicRoughness":{"baseColorFactor":[0,0,0,1]},"emissiveFactor":[1,1,1],"emissiveTexture":{"index":0}}],"meshes":[{"name":"Cube.033","primitives":[{"attributes":{"POSITION":0,"NORMAL":1,"TEXCOORD_0":2},"mode":4,"material":0,"indices":3}]}],"nodes":[{"name":"Chair_3","translation":[9.284645080566406,0.07622241973876953,-16.860393524169922],"rotation":[0.70710688829422,0,0,0.7071066498756409],"mesh":0,"scale":[0.2,0.2,0.2]}],"scenes":[{"name":"Scene","nodes":[0]}],"scene":0}