{"asset":{"generator":"glTF-Transform v4.3.0","version":"2.0"},"accessors":[{"type":"VEC3","componentType":5126,"count":1443,"max":[1.9021031856536865,3.1011223793029785,0.17183701694011688],"min":[-1.1669293642044067,-1.1885571479797363,-0.17183707654476166],"bufferView":0,"byteOffset":0},{"type":"VEC3","componentType":5126,"count":1443,"bufferView":0,"byteOffset":12},{"type":"VEC2","componentType":5126,"count":1443,"bufferView":0,"byteOffset":24},{"type":"SCALAR","componentType":5123,"count":2880,"bufferView":1,"byteOffset":0}],"bufferViews":[{"buffer":0,"byteOffset":0,"byteLength":46176,"byteStride":32,"target":34962},{"buffer":0,"byteOffset":46176,"byteLength":5760,"target":34963}],"samplers":[{"magFilter":9728,"minFilter":9984,"wrapS":10497,"wrapT":10497}],"textures":[{"source":0,"sampler":0}],"images":[{"name":"Chain_Curled_3_Base_color","mimeType":"image/png","uri":"textures/3f82b5219268a2f6.png"}],"buffers":[{"uri":"Chain_Curled_3.bin","byteLength":51936}],"materials":[{"name":"Chain_Curled_3","doubleSided":true,"pbrMetallicRoughness":{"baseColorFactor":[0,0,0,1]},"emissiveFactor":[1,1,1],"emissiveTexture":{"index":0}}],"meshes":[{"name":"Cube.007","primitives":[{"attributes":{"POSITION":0,"NORMAL":1,"TEXCOORD_0":2},"mode":4,"material":0,"indices":3}]}],"nodes":[{"name":"Chain_Curled_3","translation":[-16.258113861083984,-0.23722553253173828,4.9052414894104],"rotation":[0.70710688829422,0,0,0.7071066498756409],"mesh":0,"scale":[0.2,0.2,0.2]}],"scenes":[{"name":"Scene","nodes":[0]}],"scene":0}