{"asset":{"generator":"glTF-Transform v4.3.0","version":"2.0"},"accessors":[{"type":"VEC3","componentType":5126,"count":254,"max":[1,1.2067334651947021,2.6524736881256104],"min":[-1,-1.0294983386993408,-3.1934874057769775],"bufferView":0,"byteOffset":0},{"type":"VEC3","componentType":5126,"count":254,"bufferView":0,"byteOffset":12},{"type":"VEC2","componentType":5126,"count":254,"bufferView":0,"byteOffset":24},{"type":"SCALAR","componentType":5123,"count":612,"bufferView":1,"byteOffset":0}],"bufferViews":[{"buffer":0,"byteOffset":0,"byteLength":8128,"byteStride":32,"target":34962},{"buffer":0,"byteOffset":8128,"byteLength":1224,"target":34963}],"samplers":[{"magFilter":9728,"minFilter":9984,"wrapS":10497,"wrapT":10497}],"textures":[{"source":0,"sampler":0}],"images":[{"name":"Chair_1_Base_color","mimeType":"image/png","uri":"textures/b1282fc488c4cf34.png"}],"buffers":[{"uri":"Chair_1.bin","byteLength":9352}],"materials":[{"name":"Chair_1","doubleSided":true,"pbrMetallicRoughness":{"baseColorFactor":[0,0,0,1]},"emissiveFactor":[1,1,1],"emissiveTexture":{"index":0}}],"meshes":[{"name":"Cube.035","primitives":[{"attributes":{"POSITION":0,"NORMAL":1,"TEXCOORD_0":2},"mode":4,"material":0,"indices":3}]}],"nodes":[{"name":"Chair_1","translation":[1.2076606750488281,0.6761636734008789,-16.830894470214844],"rotation":[0.70710688829422,0,0,0.7071066498756409],"mesh":0,"scale":[0.2,0.2,0.2]}],"scenes":[{"name":"Scene","nodes":[0]}],"scene":0}