{"asset":{"generator":"glTF-Transform v4.3.0","version":"2.0"},"accessors":[{"type":"VEC3","componentType":5126,"count":882,"max":[0.4071488380432129,0.40509453415870667,2.6666879653930664],"min":[-0.4071485102176666,-0.40509435534477234,-3.2420156002044678],"bufferView":0,"byteOffset":0},{"type":"VEC3","componentType":5126,"count":882,"bufferView":0,"byteOffset":12},{"type":"VEC2","componentType":5126,"count":882,"bufferView":0,"byteOffset":24},{"type":"SCALAR","componentType":5123,"count":1896,"bufferView":1,"byteOffset":0}],"bufferViews":[{"buffer":0,"byteOffset":0,"byteLength":28224,"byteStride":32,"target":34962},{"buffer":0,"byteOffset":28224,"byteLength":3792,"target":34963}],"samplers":[{"magFilter":9728,"minFilter":9984,"wrapS":10497,"wrapT":10497}],"textures":[{"source":0,"sampler":0}],"images":[{"name":"Chains_2_Base_color","mimeType":"image/png","uri":"textures/6101fa4be873da28.png"}],"buffers":[{"uri":"Chains_2.bin","byteLength":32016}],"materials":[{"name":"Chains_2","doubleSided":true,"pbrMetallicRoughness":{"baseColorFactor":[0,0,0,1]},"emissiveFactor":[1,1,1],"emissiveTexture":{"index":0}}],"meshes":[{"name":"Sphere.006","primitives":[{"attributes":{"POSITION":0,"NORMAL":1,"TEXCOORD_0":2},"mode":4,"material":0,"indices":3}]}],"nodes":[{"name":"Chains_2","translation":[-19.932628631591797,1.159830093383789,-4.404661655426025],"rotation":[0.70710688829422,0,0,0.7071066498756409],"mesh":0,"scale":[0.2,0.2,0.2]}],"scenes":[{"name":"Scene","nodes":[0]}],"scene":0}