{"asset":{"generator":"glTF-Transform v4.3.0","version":"2.0"},"accessors":[{"type":"VEC3","componentType":5126,"count":1152,"max":[1.494157075881958,1.5500643253326416,0.17183703184127808],"min":[-1.5748755931854248,-1.7663497924804688,-0.17183703184127808],"bufferView":0,"byteOffset":0},{"type":"VEC3","componentType":5126,"count":1152,"bufferView":0,"byteOffset":12},{"type":"VEC2","componentType":5126,"count":1152,"bufferView":0,"byteOffset":24},{"type":"SCALAR","componentType":5123,"count":2304,"bufferView":1,"byteOffset":0}],"bufferViews":[{"buffer":0,"byteOffset":0,"byteLength":36864,"byteStride":32,"target":34962},{"buffer":0,"byteOffset":36864,"byteLength":4608,"target":34963}],"samplers":[{"magFilter":9728,"minFilter":9984,"wrapS":10497,"wrapT":10497}],"textures":[{"source":0,"sampler":0}],"images":[{"name":"Chain_Curled_1_Base_color","mimeType":"image/png","uri":"textures/79df73f2e1637543.png"}],"buffers":[{"uri":"Chain_Curled_1.bin","byteLength":41472}],"materials":[{"name":"Chain_Curled_1","doubleSided":true,"pbrMetallicRoughness":{"baseColorFactor":[0,0,0,1]},"emissiveFactor":[1,1,1],"emissiveTexture":{"index":0}}],"meshes":[{"name":"Cube.005","primitives":[{"attributes":{"POSITION":0,"NORMAL":1,"TEXCOORD_0":2},"mode":4,"material":0,"indices":3}]}],"nodes":[{"name":"Chain_Curled_1","translation":[-15.850170135498047,-0.23722541332244873,-2.850372791290283],"rotation":[0.70710688829422,0,0,0.7071066498756409],"mesh":0,"scale":[0.2,0.2,0.2]}],"scenes":[{"name":"Scene","nodes":[0]}],"scene":0}