{"asset":{"generator":"glTF-Transform v4.3.0","version":"2.0"},"accessors":[{"type":"VEC3","componentType":5126,"count":1624,"max":[4.032243728637695,1.1790337562561035,4.533665180206299],"min":[-4.050637722015381,-1.4418243169784546,-4.16417121887207],"bufferView":0,"byteOffset":0},{"type":"VEC3","componentType":5126,"count":1624,"bufferView":0,"byteOffset":12},{"type":"VEC2","componentType":5126,"count":1624,"bufferView":0,"byteOffset":24},{"type":"SCALAR","componentType":5123,"count":3240,"bufferView":1,"byteOffset":0}],"bufferViews":[{"buffer":0,"byteOffset":0,"byteLength":51968,"byteStride":32,"target":34962},{"buffer":0,"byteOffset":51968,"byteLength":6480,"target":34963}],"samplers":[{"magFilter":9728,"minFilter":9984,"wrapS":10497,"wrapT":10497}],"textures":[{"source":0,"sampler":0}],"images":[{"name":"Pillars_Base_color","mimeType":"image/png","uri":"textures/c795ed0f60df1762.png"}],"buffers":[{"uri":"Chains_1003.bin","byteLength":58448}],"materials":[{"name":"Pillars","doubleSided":true,"pbrMetallicRoughness":{"baseColorFactor":[0,0,0,1]},"emissiveFactor":[1,1,1],"emissiveTexture":{"index":0}}],"meshes":[{"name":"Sphere.011","primitives":[{"attributes":{"POSITION":0,"NORMAL":1,"TEXCOORD_0":2},"mode":4,"material":0,"indices":3}]}],"nodes":[{"name":"Chains_1.003","translation":[9.741535186767578,-0.07314753532409668,-39.791786193847656],"rotation":[0.70710688829422,0,0,0.7071066498756409],"mesh":0,"scale":[0.2,0.2,0.2]}],"scenes":[{"name":"Scene","nodes":[0]}],"scene":0}