{"asset":{"generator":"glTF-Transform v4.3.0","version":"2.0"},"accessors":[{"type":"VEC3","componentType":5126,"count":2626,"max":[3.9571964740753174,3.8756730556488037,1.6421419382095337],"min":[-3.907092332839966,-3.9085042476654053,-3.441359758377075],"bufferView":0,"byteOffset":0},{"type":"VEC3","componentType":5126,"count":2626,"bufferView":0,"byteOffset":12},{"type":"VEC2","componentType":5126,"count":2626,"bufferView":0,"byteOffset":24},{"type":"SCALAR","componentType":5123,"count":3930,"bufferView":1,"byteOffset":0}],"bufferViews":[{"buffer":0,"byteOffset":0,"byteLength":84032,"byteStride":32,"target":34962},{"buffer":0,"byteOffset":84032,"byteLength":7860,"target":34963}],"samplers":[{"magFilter":9728,"minFilter":9984,"wrapS":10497,"wrapT":10497}],"textures":[{"source":0,"sampler":0}],"images":[{"name":"Chandelier_2_Base_color","mimeType":"image/png","uri":"textures/de8bde0a89e8d5d0.png"}],"buffers":[{"uri":"Chandelier_2.bin","byteLength":91892}],"materials":[{"name":"Chandelier_2","doubleSided":true,"pbrMetallicRoughness":{"baseColorFactor":[0,0,0,1]},"emissiveFactor":[1,1,1],"emissiveTexture":{"index":0}}],"meshes":[{"name":"Cube.016","primitives":[{"attributes":{"POSITION":0,"NORMAL":1,"TEXCOORD_0":2},"mode":4,"material":0,"indices":3}]}],"nodes":[{"name":"Chandelier_2","translation":[8.518028259277344,1.1594147682189941,-8.127983093261719],"rotation":[0.70710688829422,0,0,0.7071066498756409],"mesh":0,"scale":[0.2,0.2,0.2]}],"scenes":[{"name":"Scene","nodes":[0]}],"scene":0}