{"asset":{"generator":"glTF-Transform v4.3.0","version":"2.0"},"accessors":[{"type":"VEC3","componentType":5126,"count":2981,"max":[3.9581713676452637,3.8768203258514404,1.6149746179580688],"min":[-3.906118154525757,-3.907357692718506,-3.4685275554656982],"bufferView":0,"byteOffset":0},{"type":"VEC3","componentType":5126,"count":2981,"bufferView":0,"byteOffset":12},{"type":"VEC2","componentType":5126,"count":2981,"bufferView":0,"byteOffset":24},{"type":"SCALAR","componentType":5123,"count":4974,"bufferView":1,"byteOffset":0}],"bufferViews":[{"buffer":0,"byteOffset":0,"byteLength":95392,"byteStride":32,"target":34962},{"buffer":0,"byteOffset":95392,"byteLength":9948,"target":34963}],"samplers":[{"magFilter":9728,"minFilter":9984,"wrapS":10497,"wrapT":10497}],"textures":[{"source":0,"sampler":0}],"images":[{"name":"Chandelier_1_Base_color","mimeType":"image/png","uri":"textures/41761c1e1515181d.png"}],"buffers":[{"uri":"Chandelier_1.bin","byteLength":105340}],"materials":[{"name":"Chandelier_1","doubleSided":true,"pbrMetallicRoughness":{"baseColorFactor":[0,0,0,1]},"emissiveFactor":[1,1,1],"emissiveTexture":{"index":0}}],"meshes":[{"name":"Circle.010","primitives":[{"attributes":{"POSITION":0,"NORMAL":1,"TEXCOORD_0":2},"mode":4,"material":0,"indices":3}]}],"nodes":[{"name":"Chandelier_1","translation":[8.518028259277344,7.582608222961426,-8.127983093261719],"rotation":[0.70710688829422,0,0,0.7071066498756409],"mesh":0,"scale":[0.2,0.2,0.2]}],"scenes":[{"name":"Scene","nodes":[0]}],"scene":0}