{"asset":{"generator":"glTF-Transform v4.3.0","version":"2.0"},"accessors":[{"type":"VEC3","componentType":5126,"count":130,"max":[1.028554916381836,0.8552681803703308,0.2921954095363617],"min":[-1.1968307495117188,-1.3128671646118164,-0.2921953797340393],"bufferView":0,"byteOffset":0},{"type":"VEC3","componentType":5126,"count":130,"bufferView":0,"byteOffset":12},{"type":"VEC2","componentType":5126,"count":130,"bufferView":0,"byteOffset":24},{"type":"SCALAR","componentType":5123,"count":474,"bufferView":1,"byteOffset":0}],"bufferViews":[{"buffer":0,"byteOffset":0,"byteLength":4160,"byteStride":32,"target":34962},{"buffer":0,"byteOffset":4160,"byteLength":948,"target":34963}],"samplers":[{"magFilter":9728,"minFilter":9984,"wrapS":10497,"wrapT":10497}],"textures":[{"source":0,"sampler":0}],"images":[{"name":"Cheese_Base_color","mimeType":"image/png","uri":"textures/dfd160b971468ac7.png"}],"buffers":[{"uri":"Cheese.bin","byteLength":5108}],"materials":[{"name":"Cheese","doubleSided":true,"pbrMetallicRoughness":{"baseColorFactor":[0,0,0,1]},"emissiveFactor":[1,1,1],"emissiveTexture":{"index":0}}],"meshes":[{"name":"Cylinder.045","primitives":[{"attributes":{"POSITION":0,"NORMAL":1,"TEXCOORD_0":2},"mode":4,"material":0,"indices":3}]}],"nodes":[{"name":"Cheese","translation":[12.634056091308594,-0.6605290174484253,35.474430084228516],"rotation":[0.70710688829422,0,0,0.7071066498756409],"mesh":0,"scale":[0.2,0.2,0.2]}],"scenes":[{"name":"Scene","nodes":[0]}],"scene":0}