{"asset":{"generator":"glTF-Transform v4.3.0","version":"2.0"},"accessors":[{"type":"VEC3","componentType":5126,"count":90,"max":[1.9305319786071777,0.37899747490882874,1.7942674160003662],"min":[-1.671985387802124,-0.199347585439682,-1.8082499504089355],"bufferView":0,"byteOffset":0},{"type":"VEC3","componentType":5126,"count":90,"bufferView":0,"byteOffset":12},{"type":"VEC2","componentType":5126,"count":90,"bufferView":0,"byteOffset":24},{"type":"SCALAR","componentType":5123,"count":432,"bufferView":1,"byteOffset":0}],"bufferViews":[{"buffer":0,"byteOffset":0,"byteLength":2880,"byteStride":32,"target":34962},{"buffer":0,"byteOffset":2880,"byteLength":864,"target":34963}],"samplers":[{"magFilter":9728,"minFilter":9984,"wrapS":10497,"wrapT":10497}],"textures":[{"source":0,"sampler":0}],"images":[{"name":"Coal_Pile_Variant_1_Base_color","mimeType":"image/png","uri":"textures/a93f7b81d5eb9fb0.png"}],"buffers":[{"uri":"Coal_Pile_Variant_1.bin","byteLength":3744}],"materials":[{"name":"Coal_Pile_Variant_1","doubleSided":true,"pbrMetallicRoughness":{"baseColorFactor":[0,0,0,1]},"emissiveFactor":[1,1,1],"emissiveTexture":{"index":0}}],"meshes":[{"name":"Plane.013","primitives":[{"attributes":{"POSITION":0,"NORMAL":1,"TEXCOORD_0":2},"mode":4,"material":0,"indices":3}]}],"nodes":[{"name":"Coal_Pile_Variant_1","translation":[-1.9068570137023926,-0.07944047451019287,64.30152893066406],"mesh":0,"scale":[0.2,0.2,0.2]}],"scenes":[{"name":"Scene","nodes":[0]}],"scene":0}