{"asset":{"generator":"glTF-Transform v4.3.0","version":"2.0"},"accessors":[{"type":"VEC3","componentType":5126,"count":76,"max":[1.1165486574172974,1.964279055595398,1.1869596242904663],"min":[-1.1165486574172974,-3.726059913635254,-0.2515934407711029],"bufferView":0,"byteOffset":0},{"type":"VEC3","componentType":5126,"count":76,"bufferView":0,"byteOffset":12},{"type":"VEC2","componentType":5126,"count":76,"bufferView":0,"byteOffset":24},{"type":"SCALAR","componentType":5123,"count":132,"bufferView":1,"byteOffset":0}],"bufferViews":[{"buffer":0,"byteOffset":0,"byteLength":2432,"byteStride":32,"target":34962},{"buffer":0,"byteOffset":2432,"byteLength":264,"target":34963}],"samplers":[{"magFilter":9728,"minFilter":9984,"wrapS":10497,"wrapT":10497}],"textures":[{"source":0,"sampler":0}],"images":[{"name":"Coffin_2_Base_color","mimeType":"image/png","uri":"textures/aaf87c922fdfb6a9.png"}],"buffers":[{"uri":"Coffin_2.bin","byteLength":2696}],"materials":[{"name":"Coffin_2","doubleSided":true,"pbrMetallicRoughness":{"baseColorFactor":[0,0,0,1]},"emissiveFactor":[1,1,1],"emissiveTexture":{"index":0}}],"meshes":[{"name":"Cube.104","primitives":[{"attributes":{"POSITION":0,"NORMAL":1,"TEXCOORD_0":2},"mode":4,"material":0,"indices":3}]}],"nodes":[{"name":"Coffin_2","translation":[-0.3816490173339844,0.43759796023368835,36.89516067504883],"rotation":[0.70710688829422,0,0,0.7071066498756409],"mesh":0,"scale":[0.2,0.2,0.2]}],"scenes":[{"name":"Scene","nodes":[0]}],"scene":0}