{"asset":{"generator":"glTF-Transform v4.3.0","version":"2.0"},"accessors":[{"type":"VEC3","componentType":5126,"count":36,"max":[1.562659740447998,3.4483375549316406,0.09549350291490555],"min":[-1.562659740447998,-4.515545845031738,-0.09549342095851898],"bufferView":0,"byteOffset":0},{"type":"VEC3","componentType":5126,"count":36,"bufferView":0,"byteOffset":12},{"type":"VEC2","componentType":5126,"count":36,"bufferView":0,"byteOffset":24},{"type":"SCALAR","componentType":5123,"count":60,"bufferView":1,"byteOffset":0}],"bufferViews":[{"buffer":0,"byteOffset":0,"byteLength":1152,"byteStride":32,"target":34962},{"buffer":0,"byteOffset":1152,"byteLength":120,"target":34963}],"samplers":[{"magFilter":9728,"minFilter":9984,"wrapS":10497,"wrapT":10497}],"textures":[{"source":0,"sampler":0}],"images":[{"name":"Coffin_Door_Base_color_Var2","mimeType":"image/png","uri":"textures/95b24aa571ba57e6.png"}],"buffers":[{"uri":"Coffin_Door.bin","byteLength":1272}],"materials":[{"name":"Coffin_Door","doubleSided":true,"pbrMetallicRoughness":{"baseColorFactor":[0,0,0,1]},"emissiveFactor":[1,1,1],"emissiveTexture":{"index":0}}],"meshes":[{"name":"Cube.014","primitives":[{"attributes":{"POSITION":0,"NORMAL":1,"TEXCOORD_0":2},"mode":4,"material":0,"indices":3}]}],"nodes":[{"name":"Coffin_Door","translation":[29.026962280273438,0.9657454490661621,1.047558307647705],"rotation":[0.70710688829422,0,0,0.7071066498756409],"mesh":0,"scale":[0.2,0.2,0.2]}],"scenes":[{"name":"Scene","nodes":[0]}],"scene":0}