{"asset":{"generator":"glTF-Transform v4.3.0","version":"2.0"},"accessors":[{"type":"VEC3","componentType":5126,"count":148,"max":[0.4549062252044678,0.1387556493282318,0.4511055052280426],"min":[-0.4549062252044678,-0.1387556493282318,-0.4511055052280426],"bufferView":0,"byteOffset":0},{"type":"VEC3","componentType":5126,"count":148,"bufferView":0,"byteOffset":12},{"type":"VEC2","componentType":5126,"count":148,"bufferView":0,"byteOffset":24},{"type":"SCALAR","componentType":5123,"count":276,"bufferView":1,"byteOffset":0}],"bufferViews":[{"buffer":0,"byteOffset":0,"byteLength":4736,"byteStride":32,"target":34962},{"buffer":0,"byteOffset":4736,"byteLength":552,"target":34963}],"samplers":[{"magFilter":9728,"minFilter":9984,"wrapS":10497,"wrapT":10497}],"textures":[{"source":0,"sampler":0}],"images":[{"name":"Coin_Base_color","mimeType":"image/png","uri":"textures/3fdc81971ee60f5e.png"}],"buffers":[{"uri":"Coin.bin","byteLength":5288}],"materials":[{"name":"Coin","doubleSided":true,"pbrMetallicRoughness":{"baseColorFactor":[0,0,0,1]},"emissiveFactor":[1,1,1],"emissiveTexture":{"index":0}}],"meshes":[{"name":"Cylinder.016","primitives":[{"attributes":{"POSITION":0,"NORMAL":1,"TEXCOORD_0":2},"mode":4,"material":0,"indices":3}]}],"nodes":[{"name":"Coin","translation":[22.610389709472656,3.618675708770752,-9.867243766784668],"rotation":[0.70710688829422,0,0,0.7071066498756409],"mesh":0,"scale":[0.2,0.2,0.2]}],"scenes":[{"name":"Scene","nodes":[0]}],"scene":0}