{"asset":{"generator":"glTF-Transform v4.3.0","version":"2.0"},"accessors":[{"type":"VEC3","componentType":5126,"count":104,"max":[1.823346495628357,1.823346495628357,0.002518205437809229],"min":[-1.823346495628357,-1.823346495628357,-0.30521222949028015],"bufferView":0,"byteOffset":0},{"type":"VEC3","componentType":5126,"count":104,"bufferView":0,"byteOffset":12},{"type":"VEC2","componentType":5126,"count":104,"bufferView":0,"byteOffset":24},{"type":"SCALAR","componentType":5123,"count":372,"bufferView":1,"byteOffset":0}],"bufferViews":[{"buffer":0,"byteOffset":0,"byteLength":3328,"byteStride":32,"target":34962},{"buffer":0,"byteOffset":3328,"byteLength":744,"target":34963}],"samplers":[{"magFilter":9728,"minFilter":9984,"wrapS":10497,"wrapT":10497}],"textures":[{"source":0,"sampler":0}],"images":[{"name":"Coin_Pile_Base_color","mimeType":"image/png","uri":"textures/1cb4124581c2caec.png"}],"buffers":[{"uri":"Coin_Pile.bin","byteLength":4072}],"materials":[{"name":"Coin_Pile","doubleSided":true,"pbrMetallicRoughness":{"baseColorFactor":[0,0,0,1]},"emissiveFactor":[1,1,1],"emissiveTexture":{"index":0}}],"meshes":[{"name":"Circle.005","primitives":[{"attributes":{"POSITION":0,"NORMAL":1,"TEXCOORD_0":2},"mode":4,"material":0,"indices":3}]}],"nodes":[{"name":"Coin_Pile","translation":[-7.499889373779297,0.1109318733215332,3.7606940269470215],"rotation":[0.70710688829422,0,0,0.7071066498756409],"mesh":0,"scale":[0.2,0.2,0.2]}],"scenes":[{"name":"Scene","nodes":[0]}],"scene":0}