{"asset":{"generator":"glTF-Transform v4.3.0","version":"2.0"},"accessors":[{"type":"VEC3","componentType":5126,"count":232,"max":[0.8201898336410522,0.8558854460716248,1.7719520330429077],"min":[-0.8201876282691956,-0.8558843731880188,-5.986268520355225],"bufferView":0,"byteOffset":0},{"type":"VEC3","componentType":5126,"count":232,"bufferView":0,"byteOffset":12},{"type":"VEC2","componentType":5126,"count":232,"bufferView":0,"byteOffset":24},{"type":"SCALAR","componentType":5123,"count":624,"bufferView":1,"byteOffset":0}],"bufferViews":[{"buffer":0,"byteOffset":0,"byteLength":7424,"byteStride":32,"target":34962},{"buffer":0,"byteOffset":7424,"byteLength":1248,"target":34963}],"samplers":[{"magFilter":9728,"minFilter":9984,"wrapS":10497,"wrapT":10497}],"textures":[{"source":0,"sampler":0}],"images":[{"name":"Column_2_Base_color","mimeType":"image/png","uri":"textures/687bcaff28807ff2.png"}],"buffers":[{"uri":"Column_2.bin","byteLength":8672}],"materials":[{"name":"Column_2","doubleSided":true,"pbrMetallicRoughness":{"baseColorFactor":[0,0,0,1]},"emissiveFactor":[1,1,1],"emissiveTexture":{"index":0}}],"meshes":[{"name":"Cylinder.012","primitives":[{"attributes":{"POSITION":0,"NORMAL":1,"TEXCOORD_0":2},"mode":4,"material":0,"indices":3}]}],"nodes":[{"name":"Column_2","translation":[-8.32375717163086,2.178584098815918,-16.346757888793945],"rotation":[0.70710688829422,0,0,0.7071066498756409],"mesh":0,"scale":[0.2,0.2,0.2]}],"scenes":[{"name":"Scene","nodes":[0]}],"scene":0}