{"asset":{"generator":"glTF-Transform v4.3.0","version":"2.0"},"accessors":[{"type":"VEC3","componentType":5126,"count":172,"max":[0.8201896548271179,0.85588538646698,2.283662796020508],"min":[-0.8201878070831299,-0.8558844327926636,-2.3885393142700195],"bufferView":0,"byteOffset":0},{"type":"VEC3","componentType":5126,"count":172,"bufferView":0,"byteOffset":12},{"type":"VEC2","componentType":5126,"count":172,"bufferView":0,"byteOffset":24},{"type":"SCALAR","componentType":5123,"count":480,"bufferView":1,"byteOffset":0}],"bufferViews":[{"buffer":0,"byteOffset":0,"byteLength":5504,"byteStride":32,"target":34962},{"buffer":0,"byteOffset":5504,"byteLength":960,"target":34963}],"samplers":[{"magFilter":9728,"minFilter":9984,"wrapS":10497,"wrapT":10497}],"textures":[{"source":0,"sampler":0}],"images":[{"name":"Column_1_Base_color","mimeType":"image/png","uri":"textures/c90fcdedbe85bfa4.png"}],"buffers":[{"uri":"Column_1.bin","byteLength":6464}],"materials":[{"name":"Column_1","doubleSided":true,"pbrMetallicRoughness":{"baseColorFactor":[0,0,0,1]},"emissiveFactor":[1,1,1],"emissiveTexture":{"index":0}}],"meshes":[{"name":"Cylinder.013","primitives":[{"attributes":{"POSITION":0,"NORMAL":1,"TEXCOORD_0":2},"mode":4,"material":0,"indices":3}]}],"nodes":[{"name":"Column_1","translation":[-11.59957504272461,2.7023448944091797,-16.353168487548828],"rotation":[0.70710688829422,0,0,0.7071066498756409],"mesh":0,"scale":[0.2,0.2,0.2]}],"scenes":[{"name":"Scene","nodes":[0]}],"scene":0}