{"asset":{"generator":"glTF-Transform v4.3.0","version":"2.0"},"accessors":[{"type":"VEC3","componentType":5126,"count":292,"max":[0.8201895356178284,0.8608871102333069,4.722536087036133],"min":[-0.8201879262924194,-0.8608872294425964,-4.062497138977051],"bufferView":0,"byteOffset":0},{"type":"VEC3","componentType":5126,"count":292,"bufferView":0,"byteOffset":12},{"type":"VEC2","componentType":5126,"count":292,"bufferView":0,"byteOffset":24},{"type":"SCALAR","componentType":5123,"count":720,"bufferView":1,"byteOffset":0}],"bufferViews":[{"buffer":0,"byteOffset":0,"byteLength":9344,"byteStride":32,"target":34962},{"buffer":0,"byteOffset":9344,"byteLength":1440,"target":34963}],"samplers":[{"magFilter":9728,"minFilter":9984,"wrapS":10497,"wrapT":10497}],"textures":[{"source":0,"sampler":0}],"images":[{"name":"Column_3_Base_color","mimeType":"image/png","uri":"textures/7c5a84fc82f04bad.png"}],"buffers":[{"uri":"Column_3.bin","byteLength":10784}],"materials":[{"name":"Column_3","doubleSided":true,"pbrMetallicRoughness":{"baseColorFactor":[0,0,0,1]},"emissiveFactor":[1,1,1],"emissiveTexture":{"index":0}}],"meshes":[{"name":"Cylinder.011","primitives":[{"attributes":{"POSITION":0,"NORMAL":1,"TEXCOORD_0":2},"mode":4,"material":0,"indices":3}]}],"nodes":[{"name":"Column_3","translation":[-4.981472015380859,5.129167556762695,-16.346757888793945],"rotation":[0.70710688829422,0,0,0.7071066498756409],"mesh":0,"scale":[0.2,0.2,0.2]}],"scenes":[{"name":"Scene","nodes":[0]}],"scene":0}