{"asset":{"generator":"glTF-Transform v4.3.0","version":"2.0"},"accessors":[{"type":"VEC3","componentType":5126,"count":462,"max":[2.837380886077881,0.4224343001842499,5.024771213531494],"min":[-2.8442206382751465,-0.420578271150589,-4.38191556930542],"bufferView":0,"byteOffset":0},{"type":"VEC3","componentType":5126,"count":462,"bufferView":0,"byteOffset":12},{"type":"VEC2","componentType":5126,"count":462,"bufferView":0,"byteOffset":24},{"type":"SCALAR","componentType":5123,"count":1164,"bufferView":1,"byteOffset":0}],"bufferViews":[{"buffer":0,"byteOffset":0,"byteLength":14784,"byteStride":32,"target":34962},{"buffer":0,"byteOffset":14784,"byteLength":2328,"target":34963}],"samplers":[{"magFilter":9728,"minFilter":9984,"wrapS":10497,"wrapT":10497}],"textures":[{"source":0,"sampler":0}],"images":[{"name":"Cross_Post_Base_color","mimeType":"image/png","uri":"textures/1f6e2d0b4d25070e.png"}],"buffers":[{"uri":"Cross_Post.bin","byteLength":17112}],"materials":[{"name":"Cross_Post","doubleSided":true,"pbrMetallicRoughness":{"baseColorFactor":[0,0,0,1]},"emissiveFactor":[1,1,1],"emissiveTexture":{"index":0}}],"meshes":[{"name":"Cylinder.025","primitives":[{"attributes":{"POSITION":0,"NORMAL":1,"TEXCOORD_0":2},"mode":4,"material":0,"indices":3}]}],"nodes":[{"name":"Cross_Post","translation":[-18.99251937866211,2.754326820373535,16.633758544921875],"rotation":[0.70710688829422,0,0,0.7071066498756409],"mesh":0,"scale":[0.2,0.2,0.2]}],"scenes":[{"name":"Scene","nodes":[0]}],"scene":0}