{"asset":{"generator":"glTF-Transform v4.3.0","version":"2.0"},"accessors":[{"type":"VEC3","componentType":5126,"count":144,"max":[0.6223210692405701,0.09643638134002686,1.6779513359069824],"min":[-0.6223210692405701,-0.09772028774023056,-0.7178536057472229],"bufferView":0,"byteOffset":0},{"type":"VEC3","componentType":5126,"count":144,"bufferView":0,"byteOffset":12},{"type":"VEC2","componentType":5126,"count":144,"bufferView":0,"byteOffset":24},{"type":"SCALAR","componentType":5123,"count":276,"bufferView":1,"byteOffset":0}],"bufferViews":[{"buffer":0,"byteOffset":0,"byteLength":4608,"byteStride":32,"target":34962},{"buffer":0,"byteOffset":4608,"byteLength":552,"target":34963}],"samplers":[{"magFilter":9728,"minFilter":9984,"wrapS":10497,"wrapT":10497}],"textures":[{"source":0,"sampler":0}],"images":[{"name":"Cross_Base_color","mimeType":"image/png","uri":"textures/f70d91b1e42bf6ca.png"}],"buffers":[{"uri":"Cross.bin","byteLength":5160}],"materials":[{"name":"Cross","doubleSided":true,"pbrMetallicRoughness":{"baseColorFactor":[0,0,0,1]},"emissiveFactor":[1,1,1],"emissiveTexture":{"index":0}}],"meshes":[{"name":"Cube.039","primitives":[{"attributes":{"POSITION":0,"NORMAL":1,"TEXCOORD_0":2},"mode":4,"material":0,"indices":3}]}],"nodes":[{"name":"Cross","translation":[-17.147380828857422,-2.580341339111328,-38.84215545654297],"rotation":[0.70710688829422,0,0,0.7071066498756409],"mesh":0,"scale":[0.2,0.2,0.2]}],"scenes":[{"name":"Scene","nodes":[0]}],"scene":0}