{"asset":{"generator":"glTF-Transform v4.3.0","version":"2.0"},"accessors":[{"type":"VEC3","componentType":5126,"count":54,"max":[1.28766930103302,0.022644761949777603,3.421083450317383],"min":[-0.6088833212852478,-9.330323109679739e-07,-2.6731040477752686],"bufferView":0,"byteOffset":0},{"type":"VEC3","componentType":5126,"count":54,"bufferView":0,"byteOffset":12},{"type":"VEC2","componentType":5126,"count":54,"bufferView":0,"byteOffset":24},{"type":"SCALAR","componentType":5123,"count":108,"bufferView":1,"byteOffset":0}],"bufferViews":[{"buffer":0,"byteOffset":0,"byteLength":1728,"byteStride":32,"target":34962},{"buffer":0,"byteOffset":1728,"byteLength":216,"target":34963}],"samplers":[{"magFilter":9728,"minFilter":9984,"wrapS":10497,"wrapT":10497}],"textures":[{"source":0,"sampler":0}],"images":[{"name":"Curtain_2_Base_color","mimeType":"image/png","uri":"textures/d827269378a767ce.png"}],"buffers":[{"uri":"Curtain_2.bin","byteLength":1944}],"materials":[{"name":"Curtain_2","doubleSided":true,"pbrMetallicRoughness":{"baseColorFactor":[0,0,0,1]},"emissiveFactor":[1,1,1],"emissiveTexture":{"index":0}}],"meshes":[{"name":"Plane.001","primitives":[{"attributes":{"POSITION":0,"NORMAL":1,"TEXCOORD_0":2},"mode":4,"material":0,"indices":3}]}],"nodes":[{"name":"Curtain_2","translation":[-1.2875556945800781,3.0206966400146484,-8.131357192993164],"rotation":[0.70710688829422,0,0,0.7071066498756409],"mesh":0,"scale":[0.2,0.2,0.2]}],"scenes":[{"name":"Scene","nodes":[0]}],"scene":0}