{"asset":{"generator":"glTF-Transform v4.3.0","version":"2.0"},"accessors":[{"type":"VEC3","componentType":5126,"count":930,"max":[0.8292350172996521,0.631449282169342,1.5567381381988525],"min":[-0.885640561580658,-0.6257350444793701,-1.4001270532608032],"bufferView":0,"byteOffset":0},{"type":"VEC3","componentType":5126,"count":930,"bufferView":0,"byteOffset":12},{"type":"VEC2","componentType":5126,"count":930,"bufferView":0,"byteOffset":24},{"type":"SCALAR","componentType":5123,"count":2016,"bufferView":1,"byteOffset":0}],"bufferViews":[{"buffer":0,"byteOffset":0,"byteLength":29760,"byteStride":32,"target":34962},{"buffer":0,"byteOffset":29760,"byteLength":4032,"target":34963}],"samplers":[{"magFilter":9728,"minFilter":9984,"wrapS":10497,"wrapT":10497}],"textures":[{"source":0,"sampler":0}],"images":[{"name":"Doll_2_Base_color","mimeType":"image/png","uri":"textures/74860b155d45958a.png"}],"buffers":[{"uri":"Doll_2.bin","byteLength":33792}],"materials":[{"name":"Doll_2","doubleSided":true,"pbrMetallicRoughness":{"baseColorFactor":[0,0,0,1]},"emissiveFactor":[1,1,1],"emissiveTexture":{"index":0}}],"meshes":[{"name":"Cube.060","primitives":[{"attributes":{"POSITION":0,"NORMAL":1,"TEXCOORD_0":2},"mode":4,"material":0,"indices":3}]}],"nodes":[{"name":"Doll_2","translation":[-12.404674530029297,-2.927870035171509,-39.37576675415039],"rotation":[0.70710688829422,0,0,0.7071066498756409],"mesh":0,"scale":[0.2,0.2,0.2]}],"scenes":[{"name":"Scene","nodes":[0]}],"scene":0}