{"asset":{"generator":"glTF-Transform v4.3.0","version":"2.0"},"accessors":[{"type":"VEC3","componentType":5126,"count":896,"max":[0.7248969078063965,0.4176762104034424,1.5567381381988525],"min":[-0.7248924970626831,-0.41196200251579285,-1.4001270532608032],"bufferView":0,"byteOffset":0},{"type":"VEC3","componentType":5126,"count":896,"bufferView":0,"byteOffset":12},{"type":"VEC2","componentType":5126,"count":896,"bufferView":0,"byteOffset":24},{"type":"SCALAR","componentType":5123,"count":1920,"bufferView":1,"byteOffset":0}],"bufferViews":[{"buffer":0,"byteOffset":0,"byteLength":28672,"byteStride":32,"target":34962},{"buffer":0,"byteOffset":28672,"byteLength":3840,"target":34963}],"samplers":[{"magFilter":9728,"minFilter":9984,"wrapS":10497,"wrapT":10497}],"textures":[{"source":0,"sampler":0}],"images":[{"name":"Doll_1_Base_color","mimeType":"image/png","uri":"textures/000fa0699db5913c.png"}],"buffers":[{"uri":"Doll_1.bin","byteLength":32512}],"materials":[{"name":"Doll_1","doubleSided":true,"pbrMetallicRoughness":{"baseColorFactor":[0,0,0,1]},"emissiveFactor":[1,1,1],"emissiveTexture":{"index":0}}],"meshes":[{"name":"Cube.062","primitives":[{"attributes":{"POSITION":0,"NORMAL":1,"TEXCOORD_0":2},"mode":4,"material":0,"indices":3}]}],"nodes":[{"name":"Doll_1","translation":[-14.607891082763672,-2.927870035171509,-39.37576675415039],"rotation":[0.70710688829422,0,0,0.7071066498756409],"mesh":0,"scale":[0.2,0.2,0.2]}],"scenes":[{"name":"Scene","nodes":[0]}],"scene":0}