{"asset":{"generator":"glTF-Transform v4.3.0","version":"2.0"},"accessors":[{"type":"SCALAR","componentType":5123,"count":36,"bufferView":0,"byteOffset":0},{"type":"VEC3","componentType":5126,"count":24,"max":[0.1099252700805664,1.85063898563385,-3.619492053985596e-05],"min":[-1.5784001350402832,-1.7870210409164429,-0.25921064615249634],"bufferView":1,"byteOffset":0},{"type":"VEC3","componentType":5126,"count":24,"bufferView":1,"byteOffset":12},{"type":"VEC2","componentType":5126,"count":24,"bufferView":1,"byteOffset":24}],"bufferViews":[{"buffer":0,"byteOffset":0,"byteLength":72,"target":34963},{"buffer":0,"byteOffset":72,"byteLength":768,"byteStride":32,"target":34962}],"samplers":[{"magFilter":9728,"minFilter":9984,"wrapS":10497,"wrapT":10497}],"textures":[{"source":0,"sampler":0}],"images":[{"name":"Door_Base_color_Alternative_3","mimeType":"image/png","uri":"textures/d9bc5d011d9c7bb0.png"}],"buffers":[{"uri":"Door_Alternative_3.bin","byteLength":840}],"materials":[{"name":"Door_Alternative_3","doubleSided":true,"pbrMetallicRoughness":{"baseColorFactor":[0,0,0,1]},"emissiveFactor":[1,1,1],"emissiveTexture":{"index":0}}],"meshes":[{"name":"Cube.090","primitives":[{"attributes":{"POSITION":1,"NORMAL":2,"TEXCOORD_0":3},"mode":4,"material":0,"indices":0}]}],"nodes":[{"name":"Door_Alternative_3","translation":[-15.732925415039062,1.5546228885650635,64.29965209960938],"mesh":0,"scale":[0.2,0.2,0.2]}],"scenes":[{"name":"Scene","nodes":[0]}],"scene":0}