{"asset":{"generator":"glTF-Transform v4.3.0","version":"2.0"},"accessors":[{"type":"SCALAR","componentType":5123,"count":36,"bufferView":0,"byteOffset":0},{"type":"VEC3","componentType":5126,"count":24,"max":[0.1114950180053711,1.7705155611038208,-9.723007678985596e-05],"min":[-1.5768303871154785,-1.8671444654464722,-0.25927168130874634],"bufferView":1,"byteOffset":0},{"type":"VEC3","componentType":5126,"count":24,"bufferView":1,"byteOffset":12},{"type":"VEC2","componentType":5126,"count":24,"bufferView":1,"byteOffset":24}],"bufferViews":[{"buffer":0,"byteOffset":0,"byteLength":72,"target":34963},{"buffer":0,"byteOffset":72,"byteLength":768,"byteStride":32,"target":34962}],"samplers":[{"magFilter":9728,"minFilter":9984,"wrapS":10497,"wrapT":10497}],"textures":[{"source":0,"sampler":0}],"images":[{"name":"Door_Base_color_Alternative_2","mimeType":"image/png","uri":"textures/7413969b34cf9eeb.png"}],"buffers":[{"uri":"Door_Alternative_2.bin","byteLength":840}],"materials":[{"name":"Door_Alternative_2","doubleSided":true,"pbrMetallicRoughness":{"baseColorFactor":[0,0,0,1]},"emissiveFactor":[1,1,1],"emissiveTexture":{"index":0}}],"meshes":[{"name":"Cube.089","primitives":[{"attributes":{"POSITION":1,"NORMAL":2,"TEXCOORD_0":3},"mode":4,"material":0,"indices":0}]}],"nodes":[{"name":"Door_Alternative_2","translation":[-13.041714668273926,1.6347463130950928,64.29971313476562],"mesh":0,"scale":[0.2,0.2,0.2]}],"scenes":[{"name":"Scene","nodes":[0]}],"scene":0}