{"asset":{"generator":"glTF-Transform v4.3.0","version":"2.0"},"accessors":[{"type":"VEC3","componentType":5126,"count":24,"max":[0.1023244857788086,1.7828141450881958,6.298720836639404e-05],"min":[-1.586000919342041,-1.8548458814620972,-0.2591114640235901],"bufferView":0,"byteOffset":0},{"type":"VEC3","componentType":5126,"count":24,"bufferView":0,"byteOffset":12},{"type":"VEC2","componentType":5126,"count":24,"bufferView":0,"byteOffset":24},{"type":"SCALAR","componentType":5123,"count":36,"bufferView":1,"byteOffset":0}],"bufferViews":[{"buffer":0,"byteOffset":0,"byteLength":768,"byteStride":32,"target":34962},{"buffer":0,"byteOffset":768,"byteLength":72,"target":34963}],"samplers":[{"magFilter":9728,"minFilter":9984,"wrapS":10497,"wrapT":10497}],"textures":[{"source":0,"sampler":0}],"images":[{"name":"Door_Base_color","mimeType":"image/png","uri":"textures/46a7a41b3456db4f.png"}],"buffers":[{"uri":"Door.bin","byteLength":840}],"materials":[{"name":"Door","doubleSided":true,"pbrMetallicRoughness":{"baseColorFactor":[0,0,0,1]},"emissiveFactor":[1,1,1],"emissiveTexture":{"index":0}}],"meshes":[{"name":"Cube.081","primitives":[{"attributes":{"POSITION":0,"NORMAL":1,"TEXCOORD_0":2},"mode":4,"material":0,"indices":3}]}],"nodes":[{"name":"Door","translation":[-10.043854713439941,1.6224477291107178,64.29955291748047],"mesh":0,"scale":[0.2,0.2,0.2]}],"scenes":[{"name":"Scene","nodes":[0]}],"scene":0}