{"asset":{"generator":"glTF-Transform v4.3.0","version":"2.0"},"accessors":[{"type":"VEC3","componentType":5126,"count":769,"max":[3.5097272396087646,3.5097291469573975,2.5597503185272217],"min":[-3.5097312927246094,-3.5097291469573975,-2.8177897930145264],"bufferView":0,"byteOffset":0},{"type":"VEC3","componentType":5126,"count":769,"bufferView":0,"byteOffset":12},{"type":"VEC2","componentType":5126,"count":769,"bufferView":0,"byteOffset":24},{"type":"SCALAR","componentType":5123,"count":2292,"bufferView":1,"byteOffset":0}],"bufferViews":[{"buffer":0,"byteOffset":0,"byteLength":24608,"byteStride":32,"target":34962},{"buffer":0,"byteOffset":24608,"byteLength":4584,"target":34963}],"samplers":[{"magFilter":9728,"minFilter":9984,"wrapS":10497,"wrapT":10497}],"textures":[{"source":0,"sampler":0}],"images":[{"name":"Fountain_1_Base_color","mimeType":"image/png","uri":"textures/8c04072f98bd0def.png"}],"buffers":[{"uri":"Fountain_1.bin","byteLength":29192}],"materials":[{"name":"Fountain_1","doubleSided":true,"pbrMetallicRoughness":{"baseColorFactor":[0,0,0,1]},"emissiveFactor":[1,1,1],"emissiveTexture":{"index":0}}],"meshes":[{"name":"Cylinder.043","primitives":[{"attributes":{"POSITION":0,"NORMAL":1,"TEXCOORD_0":2},"mode":4,"material":0,"indices":3}]}],"nodes":[{"name":"Fountain_1","translation":[-3.3454322814941406,0.4862391948699951,23.64383888244629],"rotation":[0.70710688829422,0,0,0.7071066498756409],"mesh":0,"scale":[0.2,0.2,0.2]}],"scenes":[{"name":"Scene","nodes":[0]}],"scene":0}