{"asset":{"generator":"glTF-Transform v4.3.0","version":"2.0"},"accessors":[{"type":"VEC3","componentType":5126,"count":1785,"max":[3.622957944869995,3.616755723953247,2.7479710578918457],"min":[-3.630092144012451,-3.636294364929199,-3.1893820762634277],"bufferView":0,"byteOffset":0},{"type":"VEC3","componentType":5126,"count":1785,"bufferView":0,"byteOffset":12},{"type":"VEC2","componentType":5126,"count":1785,"bufferView":0,"byteOffset":24},{"type":"SCALAR","componentType":5123,"count":4902,"bufferView":1,"byteOffset":0}],"bufferViews":[{"buffer":0,"byteOffset":0,"byteLength":57120,"byteStride":32,"target":34962},{"buffer":0,"byteOffset":57120,"byteLength":9804,"target":34963}],"samplers":[{"magFilter":9728,"minFilter":9984,"wrapS":10497,"wrapT":10497}],"textures":[{"source":0,"sampler":0}],"images":[{"name":"Fountain_2_Base_color","mimeType":"image/png","uri":"textures/d6d3363df6e32590.png"}],"buffers":[{"uri":"Fountain_2.bin","byteLength":66924}],"materials":[{"name":"Fountain_2","doubleSided":true,"pbrMetallicRoughness":{"baseColorFactor":[0,0,0,1]},"emissiveFactor":[1,1,1],"emissiveTexture":{"index":0}}],"meshes":[{"name":"Cylinder.065","primitives":[{"attributes":{"POSITION":0,"NORMAL":1,"TEXCOORD_0":2},"mode":4,"material":0,"indices":3}]}],"nodes":[{"name":"Fountain_2","translation":[-3.345447540283203,0.4862394332885742,13.230588912963867],"rotation":[0.70710688829422,0,0,0.7071066498756409],"mesh":0,"scale":[0.2,0.2,0.2]}],"scenes":[{"name":"Scene","nodes":[0]}],"scene":0}