{"asset":{"generator":"glTF-Transform v4.3.0","version":"2.0"},"accessors":[{"type":"VEC3","componentType":5126,"count":184,"max":[1.4977507591247559,1.4147547483444214,1.5945605039596558],"min":[-1.4977517127990723,-2.0299441814422607,-1.5420820713043213],"bufferView":0,"byteOffset":0},{"type":"VEC3","componentType":5126,"count":184,"bufferView":0,"byteOffset":12},{"type":"VEC2","componentType":5126,"count":184,"bufferView":0,"byteOffset":24},{"type":"SCALAR","componentType":5123,"count":336,"bufferView":1,"byteOffset":0}],"bufferViews":[{"buffer":0,"byteOffset":0,"byteLength":5888,"byteStride":32,"target":34962},{"buffer":0,"byteOffset":5888,"byteLength":672,"target":34963}],"samplers":[{"magFilter":9728,"minFilter":9984,"wrapS":10497,"wrapT":10497}],"textures":[{"source":0,"sampler":0}],"images":[{"name":"Furnace_Base_color","mimeType":"image/png","uri":"textures/047634825ecdcd17.png"}],"buffers":[{"uri":"Furnace.bin","byteLength":6560}],"materials":[{"name":"Furnace","doubleSided":true,"pbrMetallicRoughness":{"baseColorFactor":[0,0,0,1]},"emissiveFactor":[1,1,1],"emissiveTexture":{"index":0}}],"meshes":[{"name":"Cube.080","primitives":[{"attributes":{"POSITION":0,"NORMAL":1,"TEXCOORD_0":2},"mode":4,"material":0,"indices":3}]}],"nodes":[{"name":"Furnace","translation":[-6.701496601104736,1.870352029800415,64.29324340820312],"mesh":0,"scale":[0.2,0.2,0.2]}],"scenes":[{"name":"Scene","nodes":[0]}],"scene":0}