{"asset":{"generator":"glTF-Transform v4.3.0","version":"2.0"},"accessors":[{"type":"VEC3","componentType":5126,"count":1796,"max":[1.8137953281402588,0.9408201575279236,2.396681547164917],"min":[-1.8137962818145752,-1.3854050636291504,-2.609032154083252],"bufferView":0,"byteOffset":0},{"type":"VEC3","componentType":5126,"count":1796,"bufferView":0,"byteOffset":12},{"type":"VEC2","componentType":5126,"count":1796,"bufferView":0,"byteOffset":24},{"type":"SCALAR","componentType":5123,"count":2676,"bufferView":1,"byteOffset":0}],"bufferViews":[{"buffer":0,"byteOffset":0,"byteLength":57472,"byteStride":32,"target":34962},{"buffer":0,"byteOffset":57472,"byteLength":5352,"target":34963}],"samplers":[{"magFilter":9728,"minFilter":9984,"wrapS":10497,"wrapT":10497}],"textures":[{"source":0,"sampler":0}],"images":[{"name":"Gargoyle_Var_2_Base_color","mimeType":"image/png","uri":"textures/2992805c35b336d9.png"}],"buffers":[{"uri":"Gargoyle_Var_1.bin","byteLength":62824}],"materials":[{"name":"Gargoyle_Var_1","doubleSided":true,"pbrMetallicRoughness":{"baseColorFactor":[0,0,0,1]},"emissiveFactor":[1,1,1],"emissiveTexture":{"index":0}}],"meshes":[{"name":"Cube.064","primitives":[{"attributes":{"POSITION":0,"NORMAL":1,"TEXCOORD_0":2},"mode":4,"material":0,"indices":3}]}],"nodes":[{"name":"Gargoyle_Var_1","translation":[-5.583156585693359,-2.7340879440307617,-39.13973617553711],"rotation":[0.70710688829422,0,0,0.7071066498756409],"mesh":0,"scale":[0.2,0.2,0.2]}],"scenes":[{"name":"Scene","nodes":[0]}],"scene":0}