{"asset":{"generator":"glTF-Transform v4.3.0","version":"2.0"},"accessors":[{"type":"VEC3","componentType":5126,"count":2472,"max":[1.6374307870864868,0.5017880201339722,2.3941292762756348],"min":[-1.6624736785888672,-1.5316483974456787,-2.6114847660064697],"bufferView":0,"byteOffset":0},{"type":"VEC3","componentType":5126,"count":2472,"bufferView":0,"byteOffset":12},{"type":"VEC2","componentType":5126,"count":2472,"bufferView":0,"byteOffset":24},{"type":"SCALAR","componentType":5123,"count":7596,"bufferView":1,"byteOffset":0}],"bufferViews":[{"buffer":0,"byteOffset":0,"byteLength":79104,"byteStride":32,"target":34962},{"buffer":0,"byteOffset":79104,"byteLength":15192,"target":34963}],"samplers":[{"magFilter":9728,"minFilter":9984,"wrapS":10497,"wrapT":10497}],"textures":[{"source":0,"sampler":0}],"images":[{"name":"Gargoyle_Var_2_Base_color","mimeType":"image/png","uri":"textures/2992805c35b336d9.png"}],"buffers":[{"uri":"Gargoyle_Var_2.bin","byteLength":94296}],"materials":[{"name":"Gargoyle_Var_2","doubleSided":true,"pbrMetallicRoughness":{"baseColorFactor":[0,0,0,1]},"emissiveFactor":[1,1,1],"emissiveTexture":{"index":0}}],"meshes":[{"name":"Cube.086","primitives":[{"attributes":{"POSITION":0,"NORMAL":1,"TEXCOORD_0":2},"mode":4,"material":0,"indices":3}]}],"nodes":[{"name":"Gargoyle_Var_2","translation":[-9.03304672241211,-2.7360267639160156,-39.07626724243164],"rotation":[0.70710688829422,0,0,0.7071066498756409],"mesh":0,"scale":[0.2,0.2,0.2]}],"scenes":[{"name":"Scene","nodes":[0]}],"scene":0}