{"asset":{"generator":"glTF-Transform v4.3.0","version":"2.0"},"accessors":[{"type":"VEC3","componentType":5126,"count":488,"max":[0.5021986961364746,0.5036612153053284,0.4343990385532379],"min":[-0.5081109404563904,-0.5066483616828918,-0.9928972721099854],"bufferView":0,"byteOffset":0},{"type":"VEC3","componentType":5126,"count":488,"bufferView":0,"byteOffset":12},{"type":"VEC2","componentType":5126,"count":488,"bufferView":0,"byteOffset":24},{"type":"SCALAR","componentType":5123,"count":2016,"bufferView":1,"byteOffset":0}],"bufferViews":[{"buffer":0,"byteOffset":0,"byteLength":15616,"byteStride":32,"target":34962},{"buffer":0,"byteOffset":15616,"byteLength":4032,"target":34963}],"samplers":[{"magFilter":9728,"minFilter":9984,"wrapS":10497,"wrapT":10497}],"textures":[{"source":0,"sampler":0}],"images":[{"name":"Garlic_Base_color","mimeType":"image/png","uri":"textures/bb30cbb09d24714c.png"}],"buffers":[{"uri":"Garlic.bin","byteLength":19648}],"materials":[{"name":"Garlic","doubleSided":true,"pbrMetallicRoughness":{"baseColorFactor":[0,0,0,1]},"emissiveFactor":[1,1,1],"emissiveTexture":{"index":0}}],"meshes":[{"name":"Sphere.008","primitives":[{"attributes":{"POSITION":0,"NORMAL":1,"TEXCOORD_0":2},"mode":4,"material":0,"indices":3}]}],"nodes":[{"name":"Garlic","translation":[-28.391826629638672,-3.0084009170532227,-38.84215545654297],"rotation":[0.70710688829422,0,0,0.7071066498756409],"mesh":0,"scale":[0.2,0.2,0.2]}],"scenes":[{"name":"Scene","nodes":[0]}],"scene":0}