{"asset":{"generator":"glTF-Transform v4.3.0","version":"2.0"},"accessors":[{"type":"SCALAR","componentType":5123,"count":72,"bufferView":0,"byteOffset":0},{"type":"VEC3","componentType":5126,"count":36,"max":[0.09640121459960938,3.401355266571045,-5.888938903808594e-05],"min":[-1.7368022203445435,-2.4684324264526367,-0.3891623020172119],"bufferView":1,"byteOffset":0},{"type":"VEC3","componentType":5126,"count":36,"bufferView":1,"byteOffset":12},{"type":"VEC2","componentType":5126,"count":36,"bufferView":1,"byteOffset":24}],"bufferViews":[{"buffer":0,"byteOffset":0,"byteLength":144,"target":34963},{"buffer":0,"byteOffset":144,"byteLength":1152,"byteStride":32,"target":34962}],"samplers":[{"magFilter":9728,"minFilter":9984,"wrapS":10497,"wrapT":10497}],"textures":[{"source":0,"sampler":0}],"images":[{"name":"Gate_Variant_1_Base_color","mimeType":"image/png","uri":"textures/d422d009c27dde94.png"}],"buffers":[{"uri":"Gate_Variant_1_Alternative_1_Right.bin","byteLength":1296}],"materials":[{"name":"Gate_Variant_1_Alternative_1","doubleSided":true,"pbrMetallicRoughness":{"baseColorFactor":[0,0,0,1]},"emissiveFactor":[1,1,1],"emissiveTexture":{"index":0}}],"meshes":[{"name":"Cube.099","primitives":[{"attributes":{"POSITION":1,"NORMAL":2,"TEXCOORD_0":3},"mode":4,"material":0,"indices":0}]}],"nodes":[{"name":"Gate_Variant_1_Alternative_1_Right","translation":[-28.837873458862305,2.6364006996154785,64.418212890625],"mesh":0,"scale":[0.2,0.2,0.2]}],"scenes":[{"name":"Scene","nodes":[0]}],"scene":0}