{"asset":{"generator":"glTF-Transform v4.3.0","version":"2.0"},"accessors":[{"type":"VEC3","componentType":5126,"count":712,"max":[3.4756546020507812,-5.0998511142097414e-05,0.01758652552962303],"min":[-3.580244302749634,-6.533615589141846,-0.35649004578590393],"bufferView":0,"byteOffset":0},{"type":"VEC3","componentType":5126,"count":712,"bufferView":0,"byteOffset":12},{"type":"VEC2","componentType":5126,"count":712,"bufferView":0,"byteOffset":24},{"type":"SCALAR","componentType":5123,"count":1188,"bufferView":1,"byteOffset":0}],"bufferViews":[{"buffer":0,"byteOffset":0,"byteLength":22784,"byteStride":32,"target":34962},{"buffer":0,"byteOffset":22784,"byteLength":2376,"target":34963}],"samplers":[{"magFilter":9728,"minFilter":9984,"wrapS":10497,"wrapT":10497}],"textures":[{"source":0,"sampler":0}],"images":[{"name":"Gate_Variant_2_Base_color","mimeType":"image/png","uri":"textures/7ca2290ab91d2975.png"}],"buffers":[{"uri":"Gate_Variant_2.bin","byteLength":25160}],"materials":[{"name":"Gate_Variant_2","doubleSided":true,"pbrMetallicRoughness":{"baseColorFactor":[0,0,0,1]},"emissiveFactor":[1,1,1],"emissiveTexture":{"index":0}}],"meshes":[{"name":"Cube.075","primitives":[{"attributes":{"POSITION":0,"NORMAL":1,"TEXCOORD_0":2},"mode":4,"material":0,"indices":3}]}],"nodes":[{"name":"Gate_Variant_2","translation":[0.3433074951171875,7.1717915534973145,53.685245513916016],"mesh":0,"scale":[0.2,0.2,0.2]}],"scenes":[{"name":"Scene","nodes":[0]}],"scene":0}