{"asset":{"generator":"glTF-Transform v4.3.0","version":"2.0"},"accessors":[{"type":"VEC3","componentType":5126,"count":36,"max":[1.778693437576294,3.335988998413086,-8.940696716308594e-05],"min":[-0.054509878158569336,-2.5337986946105957,-0.3891928195953369],"bufferView":0,"byteOffset":0},{"type":"VEC3","componentType":5126,"count":36,"bufferView":0,"byteOffset":12},{"type":"VEC2","componentType":5126,"count":36,"bufferView":0,"byteOffset":24},{"type":"SCALAR","componentType":5123,"count":72,"bufferView":1,"byteOffset":0}],"bufferViews":[{"buffer":0,"byteOffset":0,"byteLength":1152,"byteStride":32,"target":34962},{"buffer":0,"byteOffset":1152,"byteLength":144,"target":34963}],"samplers":[{"magFilter":9728,"minFilter":9984,"wrapS":10497,"wrapT":10497}],"textures":[{"source":0,"sampler":0}],"images":[{"name":"Gate_Variant_1_Base_color_Alternative_3","mimeType":"image/png","uri":"textures/b61de8f8cd2e4bac.png"}],"buffers":[{"uri":"Gate_Variant_1_Alternative_3_Left.bin","byteLength":1296}],"materials":[{"name":"Gate_Variant_1_Alternative_3","doubleSided":true,"pbrMetallicRoughness":{"baseColorFactor":[0,0,0,1]},"emissiveFactor":[1,1,1],"emissiveTexture":{"index":0}}],"meshes":[{"name":"Cube.079","primitives":[{"attributes":{"POSITION":0,"NORMAL":1,"TEXCOORD_0":2},"mode":4,"material":0,"indices":3}]}],"nodes":[{"name":"Gate_Variant_1_Alternative_3_Left","translation":[-23.24675178527832,2.7017669677734375,64.36466979980469],"mesh":0,"scale":[0.2,0.2,0.2]}],"scenes":[{"name":"Scene","nodes":[0]}],"scene":0}