{"asset":{"generator":"glTF-Transform v4.3.0","version":"2.0"},"accessors":[{"type":"VEC3","componentType":5126,"count":416,"max":[1.870025634765625,-0.000878107559401542,0.008027493953704834],"min":[-1.7630125284194946,-6.561305522918701,-0.36604708433151245],"bufferView":0,"byteOffset":0},{"type":"VEC3","componentType":5126,"count":416,"bufferView":0,"byteOffset":12},{"type":"VEC2","componentType":5126,"count":416,"bufferView":0,"byteOffset":24},{"type":"SCALAR","componentType":5123,"count":684,"bufferView":1,"byteOffset":0}],"bufferViews":[{"buffer":0,"byteOffset":0,"byteLength":13312,"byteStride":32,"target":34962},{"buffer":0,"byteOffset":13312,"byteLength":1368,"target":34963}],"samplers":[{"magFilter":9728,"minFilter":9984,"wrapS":10497,"wrapT":10497}],"textures":[{"source":0,"sampler":0}],"images":[{"name":"Gate_Variant_3_Base_color","mimeType":"image/png","uri":"textures/044eabdfdf97f3dd.png"}],"buffers":[{"uri":"Gate_Variant_3.bin","byteLength":14680}],"materials":[{"name":"Gate_Variant_3","doubleSided":true,"pbrMetallicRoughness":{"baseColorFactor":[0,0,0,1]},"emissiveFactor":[1,1,1],"emissiveTexture":{"index":0}}],"meshes":[{"name":"Cube.072","primitives":[{"attributes":{"POSITION":0,"NORMAL":1,"TEXCOORD_0":2},"mode":4,"material":0,"indices":3}]}],"nodes":[{"name":"Gate_Variant_3","translation":[8.412242889404297,7.204601764678955,53.69657516479492],"mesh":0,"scale":[0.2,0.2,0.2]}],"scenes":[{"name":"Scene","nodes":[0]}],"scene":0}