{"asset":{"generator":"glTF-Transform v4.3.0","version":"2.0"},"accessors":[{"type":"SCALAR","componentType":5123,"count":72,"bufferView":0,"byteOffset":0},{"type":"VEC3","componentType":5126,"count":36,"max":[1.771449327468872,3.4082956314086914,-0.00016570091247558594],"min":[-0.06175398826599121,-2.4614920616149902,-0.3892691135406494],"bufferView":1,"byteOffset":0},{"type":"VEC3","componentType":5126,"count":36,"bufferView":1,"byteOffset":12},{"type":"VEC2","componentType":5126,"count":36,"bufferView":1,"byteOffset":24}],"bufferViews":[{"buffer":0,"byteOffset":0,"byteLength":144,"target":34963},{"buffer":0,"byteOffset":144,"byteLength":1152,"byteStride":32,"target":34962}],"samplers":[{"magFilter":9728,"minFilter":9984,"wrapS":10497,"wrapT":10497}],"textures":[{"source":0,"sampler":0}],"images":[{"name":"Gate_Variant_1_Base_color","mimeType":"image/png","uri":"textures/d422d009c27dde94.png"}],"buffers":[{"uri":"Gate_Variant_1_Alternative_1_Left.bin","byteLength":1296}],"materials":[{"name":"Gate_Variant_1_Alternative_1","doubleSided":true,"pbrMetallicRoughness":{"baseColorFactor":[0,0,0,1]},"emissiveFactor":[1,1,1],"emissiveTexture":{"index":0}}],"meshes":[{"name":"Cube.087","primitives":[{"attributes":{"POSITION":1,"NORMAL":2,"TEXCOORD_0":3},"mode":4,"material":0,"indices":0}]}],"nodes":[{"name":"Gate_Variant_1_Alternative_1_Left","translation":[-32.41302490234375,2.629460334777832,64.41831970214844],"mesh":0,"scale":[0.2,0.2,0.2]}],"scenes":[{"name":"Scene","nodes":[0]}],"scene":0}