{"asset":{"generator":"glTF-Transform v4.3.0","version":"2.0"},"accessors":[{"type":"SCALAR","componentType":5123,"count":72,"bufferView":0,"byteOffset":0},{"type":"VEC3","componentType":5126,"count":36,"max":[1.7945797443389893,3.437563419342041,3.266334533691406e-05],"min":[-0.03862357139587402,-2.4322242736816406,-0.3890707492828369],"bufferView":1,"byteOffset":0},{"type":"VEC3","componentType":5126,"count":36,"bufferView":1,"byteOffset":12},{"type":"VEC2","componentType":5126,"count":36,"bufferView":1,"byteOffset":24}],"bufferViews":[{"buffer":0,"byteOffset":0,"byteLength":144,"target":34963},{"buffer":0,"byteOffset":144,"byteLength":1152,"byteStride":32,"target":34962}],"samplers":[{"magFilter":9728,"minFilter":9984,"wrapS":10497,"wrapT":10497}],"textures":[{"source":0,"sampler":0}],"images":[{"name":"Gate_Variant_1_Base_color_Alternative_2","mimeType":"image/png","uri":"textures/dbccbf5d461d135e.png"}],"buffers":[{"uri":"Gate_Variant_1_Alternative_2_Left.bin","byteLength":1296}],"materials":[{"name":"Gate_Variant_1_Alternative_2","doubleSided":true,"pbrMetallicRoughness":{"baseColorFactor":[0,0,0,1]},"emissiveFactor":[1,1,1],"emissiveTexture":{"index":0}}],"meshes":[{"name":"Cube.082","primitives":[{"attributes":{"POSITION":1,"NORMAL":2,"TEXCOORD_0":3},"mode":4,"material":0,"indices":0}]}],"nodes":[{"name":"Gate_Variant_1_Alternative_2_Left","translation":[-27.759870529174805,2.6001925468444824,64.41812133789062],"mesh":0,"scale":[0.2,0.2,0.2]}],"scenes":[{"name":"Scene","nodes":[0]}],"scene":0}