{"asset":{"generator":"glTF-Transform v4.3.0","version":"2.0"},"accessors":[{"type":"VEC3","componentType":5126,"count":232,"max":[0.3265420198440552,0.3265421688556671,0.8830110430717468],"min":[-0.32654228806495667,-0.3265421688556671,-0.8427112102508545],"bufferView":0,"byteOffset":0},{"type":"VEC3","componentType":5126,"count":232,"bufferView":0,"byteOffset":12},{"type":"VEC2","componentType":5126,"count":232,"bufferView":0,"byteOffset":24},{"type":"SCALAR","componentType":5123,"count":636,"bufferView":1,"byteOffset":0}],"bufferViews":[{"buffer":0,"byteOffset":0,"byteLength":7424,"byteStride":32,"target":34962},{"buffer":0,"byteOffset":7424,"byteLength":1272,"target":34963}],"samplers":[{"magFilter":9728,"minFilter":9984,"wrapS":10497,"wrapT":10497}],"textures":[{"source":0,"sampler":0}],"images":[{"name":"Glass_2_Base_color","mimeType":"image/png","uri":"textures/3f5ac6319c812505.png"}],"buffers":[{"uri":"Glass_2.bin","byteLength":8696}],"materials":[{"name":"Glass_2","doubleSided":true,"pbrMetallicRoughness":{"baseColorFactor":[0,0,0,1]},"emissiveFactor":[1,1,1],"emissiveTexture":{"index":0}}],"meshes":[{"name":"Cylinder.002","primitives":[{"attributes":{"POSITION":0,"NORMAL":1,"TEXCOORD_0":2},"mode":4,"material":0,"indices":3}]}],"nodes":[{"name":"Glass_2","translation":[-17.58376693725586,-2.37282133102417,-34.79294204711914],"rotation":[0.70710688829422,0,0,0.7071066498756409],"mesh":0,"scale":[0.2,0.2,0.2]}],"scenes":[{"name":"Scene","nodes":[0]}],"scene":0}