{"asset":{"generator":"glTF-Transform v4.3.0","version":"2.0"},"accessors":[{"type":"VEC3","componentType":5126,"count":106,"max":[1.9808714389801025,0.5773817300796509,1.870131492614746],"min":[-1.6956939697265625,-0.35170993208885193,-1.873948574066162],"bufferView":0,"byteOffset":0},{"type":"VEC3","componentType":5126,"count":106,"bufferView":0,"byteOffset":12},{"type":"VEC2","componentType":5126,"count":106,"bufferView":0,"byteOffset":24},{"type":"SCALAR","componentType":5123,"count":432,"bufferView":1,"byteOffset":0}],"bufferViews":[{"buffer":0,"byteOffset":0,"byteLength":3392,"byteStride":32,"target":34962},{"buffer":0,"byteOffset":3392,"byteLength":864,"target":34963}],"samplers":[{"magFilter":9728,"minFilter":9984,"wrapS":10497,"wrapT":10497}],"textures":[{"source":0,"sampler":0}],"images":[{"name":"Coal_Pile_Variant_2_Base_color","mimeType":"image/png","uri":"textures/8e4ce1e348f5f76f.png"}],"buffers":[{"uri":"Gold_Pile.bin","byteLength":4256}],"materials":[{"name":"Gold_Pile","doubleSided":true,"pbrMetallicRoughness":{"baseColorFactor":[0,0,0,1]},"emissiveFactor":[1,1,1],"emissiveTexture":{"index":0}}],"meshes":[{"name":"Plane.012","primitives":[{"attributes":{"POSITION":0,"NORMAL":1,"TEXCOORD_0":2},"mode":4,"material":0,"indices":3}]}],"nodes":[{"name":"Gold_Pile","translation":[3.325774669647217,0.10110089182853699,64.21162414550781],"mesh":0,"scale":[0.2,0.2,0.2]}],"scenes":[{"name":"Scene","nodes":[0]}],"scene":0}