{"asset":{"generator":"glTF-Transform v4.3.0","version":"2.0"},"accessors":[{"type":"SCALAR","componentType":5123,"count":468,"bufferView":0,"byteOffset":0},{"type":"VEC3","componentType":5126,"count":131,"max":[1.2642672061920166,1.0169026851654053,1.0686308145523071],"min":[-1.4349966049194336,-1.0484288930892944,-0.9050803184509277],"bufferView":1,"byteOffset":0},{"type":"VEC3","componentType":5126,"count":131,"bufferView":1,"byteOffset":12},{"type":"VEC2","componentType":5126,"count":131,"bufferView":1,"byteOffset":24}],"bufferViews":[{"buffer":0,"byteOffset":0,"byteLength":936,"target":34963},{"buffer":0,"byteOffset":936,"byteLength":4192,"byteStride":32,"target":34962}],"samplers":[{"magFilter":9728,"minFilter":9984,"wrapS":10497,"wrapT":10497}],"textures":[{"source":0,"sampler":0}],"images":[{"name":"Grain-Sac_2_Base_color","mimeType":"image/png","uri":"textures/8bb3ba2fa60e61d9.png"}],"buffers":[{"uri":"Grain-Sac_2.bin","byteLength":5128}],"materials":[{"name":"Grain-Sac_2","doubleSided":true,"pbrMetallicRoughness":{"baseColorFactor":[0,0,0,1]},"emissiveFactor":[1,1,1],"emissiveTexture":{"index":0}}],"meshes":[{"name":"Cube.045","primitives":[{"attributes":{"POSITION":1,"NORMAL":2,"TEXCOORD_0":3},"mode":4,"material":0,"indices":0}]}],"nodes":[{"name":"Grain-Sac_2","translation":[39.421653747558594,0,-9.867244720458984],"rotation":[0.70710688829422,0,0,0.7071066498756409],"mesh":0,"scale":[0.2,0.2,0.2]}],"scenes":[{"name":"Scene","nodes":[0]}],"scene":0}