{"asset":{"generator":"glTF-Transform v4.3.0","version":"2.0"},"accessors":[{"type":"VEC3","componentType":5126,"count":131,"max":[1.2642672061920166,1.0169026851654053,1.0686308145523071],"min":[-1.4349966049194336,-1.0484288930892944,-0.9050803184509277],"bufferView":0,"byteOffset":0},{"type":"VEC3","componentType":5126,"count":131,"bufferView":0,"byteOffset":12},{"type":"VEC2","componentType":5126,"count":131,"bufferView":0,"byteOffset":24},{"type":"SCALAR","componentType":5123,"count":468,"bufferView":1,"byteOffset":0}],"bufferViews":[{"buffer":0,"byteOffset":0,"byteLength":4192,"byteStride":32,"target":34962},{"buffer":0,"byteOffset":4192,"byteLength":936,"target":34963}],"samplers":[{"magFilter":9728,"minFilter":9984,"wrapS":10497,"wrapT":10497}],"textures":[{"source":0,"sampler":0}],"images":[{"name":"Grain-Sac_1_Base_color","mimeType":"image/png","uri":"textures/d80465fbef0639da.png"}],"buffers":[{"uri":"Grain-Sac_1.bin","byteLength":5128}],"materials":[{"name":"Grain-Sac_1","doubleSided":true,"pbrMetallicRoughness":{"baseColorFactor":[0,0,0,1]},"emissiveFactor":[1,1,1],"emissiveTexture":{"index":0}}],"meshes":[{"name":"Cube.044","primitives":[{"attributes":{"POSITION":0,"NORMAL":1,"TEXCOORD_0":2},"mode":4,"material":0,"indices":3}]}],"nodes":[{"name":"Grain-Sac_1","translation":[35.810890197753906,0,-9.867244720458984],"rotation":[0.70710688829422,0,0,0.7071066498756409],"mesh":0,"scale":[0.2,0.2,0.2]}],"scenes":[{"name":"Scene","nodes":[0]}],"scene":0}