{"asset":{"generator":"glTF-Transform v4.3.0","version":"2.0"},"accessors":[{"type":"VEC3","componentType":5126,"count":118,"max":[1.1575227975845337,0.7315939664840698,1.8816947937011719],"min":[-1.1575227975845337,-0.7315938472747803,-2.1388823986053467],"bufferView":0,"byteOffset":0},{"type":"VEC3","componentType":5126,"count":118,"bufferView":0,"byteOffset":12},{"type":"VEC2","componentType":5126,"count":118,"bufferView":0,"byteOffset":24},{"type":"SCALAR","componentType":5123,"count":288,"bufferView":1,"byteOffset":0}],"bufferViews":[{"buffer":0,"byteOffset":0,"byteLength":3776,"byteStride":32,"target":34962},{"buffer":0,"byteOffset":3776,"byteLength":576,"target":34963}],"samplers":[{"magFilter":9728,"minFilter":9984,"wrapS":10497,"wrapT":10497}],"textures":[{"source":0,"sampler":0}],"images":[{"name":"Gravestone_2_Base_color","mimeType":"image/png","uri":"textures/f9f7d631a7f9dad4.png"}],"buffers":[{"uri":"Gravestone_2.bin","byteLength":4352}],"materials":[{"name":"Gravestone_2","doubleSided":true,"pbrMetallicRoughness":{"baseColorFactor":[0,0,0,1]},"emissiveFactor":[1,1,1],"emissiveTexture":{"index":0}}],"meshes":[{"name":"Cube.021","primitives":[{"attributes":{"POSITION":0,"NORMAL":1,"TEXCOORD_0":2},"mode":4,"material":0,"indices":3}]}],"nodes":[{"name":"Gravestone_2","translation":[-33.436580657958984,2.091634750366211,0.09666919708251953],"rotation":[0.70710688829422,0,0,0.7071066498756409],"mesh":0,"scale":[0.2,0.2,0.2]}],"scenes":[{"name":"Scene","nodes":[0]}],"scene":0}