{"asset":{"generator":"glTF-Transform v4.3.0","version":"2.0"},"accessors":[{"type":"VEC3","componentType":5126,"count":42,"max":[1.0879729986190796,0.20758020877838135,2.470957040786743],"min":[-1.0879729986190796,-0.20758017897605896,-1.6412299871444702],"bufferView":0,"byteOffset":0},{"type":"VEC3","componentType":5126,"count":42,"bufferView":0,"byteOffset":12},{"type":"VEC2","componentType":5126,"count":42,"bufferView":0,"byteOffset":24},{"type":"SCALAR","componentType":5123,"count":84,"bufferView":1,"byteOffset":0}],"bufferViews":[{"buffer":0,"byteOffset":0,"byteLength":1344,"byteStride":32,"target":34962},{"buffer":0,"byteOffset":1344,"byteLength":168,"target":34963}],"samplers":[{"magFilter":9728,"minFilter":9984,"wrapS":10497,"wrapT":10497}],"textures":[{"source":0,"sampler":0}],"images":[{"name":"Gravestone_1_Base_color","mimeType":"image/png","uri":"textures/5449d1f45e564713.png"}],"buffers":[{"uri":"Gravestone_1.bin","byteLength":1512}],"materials":[{"name":"Gravestone_1","doubleSided":true,"pbrMetallicRoughness":{"baseColorFactor":[0,0,0,1]},"emissiveFactor":[1,1,1],"emissiveTexture":{"index":0}}],"meshes":[{"name":"Cube.023","primitives":[{"attributes":{"POSITION":0,"NORMAL":1,"TEXCOORD_0":2},"mode":4,"material":0,"indices":3}]}],"nodes":[{"name":"Gravestone_1","translation":[-36.45278549194336,2.5752129554748535,0.11568450927734375],"rotation":[0.70710688829422,0,0,0.7071066498756409],"mesh":0,"scale":[0.2,0.2,0.2]}],"scenes":[{"name":"Scene","nodes":[0]}],"scene":0}