{"asset":{"generator":"glTF-Transform v4.3.0","version":"2.0"},"accessors":[{"type":"VEC3","componentType":5126,"count":110,"max":[1.1575227975845337,0.7315940260887146,2.47727370262146],"min":[-1.1575227975845337,-0.7315938472747803,-2.7397992610931396],"bufferView":0,"byteOffset":0},{"type":"VEC3","componentType":5126,"count":110,"bufferView":0,"byteOffset":12},{"type":"VEC2","componentType":5126,"count":110,"bufferView":0,"byteOffset":24},{"type":"SCALAR","componentType":5123,"count":252,"bufferView":1,"byteOffset":0}],"bufferViews":[{"buffer":0,"byteOffset":0,"byteLength":3520,"byteStride":32,"target":34962},{"buffer":0,"byteOffset":3520,"byteLength":504,"target":34963}],"samplers":[{"magFilter":9728,"minFilter":9984,"wrapS":10497,"wrapT":10497}],"textures":[{"source":0,"sampler":0}],"images":[{"name":"Gravestone_3_Base_color","mimeType":"image/png","uri":"textures/5710b5dbde3c6454.png"}],"buffers":[{"uri":"Gravestone_3.bin","byteLength":4024}],"materials":[{"name":"Gravestone_3","doubleSided":true,"pbrMetallicRoughness":{"baseColorFactor":[0,0,0,1]},"emissiveFactor":[1,1,1],"emissiveTexture":{"index":0}}],"meshes":[{"name":"Cube.017","primitives":[{"attributes":{"POSITION":0,"NORMAL":1,"TEXCOORD_0":2},"mode":4,"material":0,"indices":3}]}],"nodes":[{"name":"Gravestone_3","translation":[-30.42752456665039,2.68721342086792,0.09666919708251953],"rotation":[0.70710688829422,0,0,0.7071066498756409],"mesh":0,"scale":[0.2,0.2,0.2]}],"scenes":[{"name":"Scene","nodes":[0]}],"scene":0}