{"asset":{"generator":"glTF-Transform v4.3.0","version":"2.0"},"accessors":[{"type":"VEC3","componentType":5126,"count":728,"max":[1.6261972188949585,1.068090796470642,5.264157772064209],"min":[-1.6508333683013916,-1.7231155633926392,-2.793109893798828],"bufferView":0,"byteOffset":0},{"type":"VEC3","componentType":5126,"count":728,"bufferView":0,"byteOffset":12},{"type":"VEC2","componentType":5126,"count":728,"bufferView":0,"byteOffset":24},{"type":"SCALAR","componentType":5123,"count":1947,"bufferView":1,"byteOffset":0}],"bufferViews":[{"buffer":0,"byteOffset":0,"byteLength":23296,"byteStride":32,"target":34962},{"buffer":0,"byteOffset":23296,"byteLength":3896,"target":34963}],"samplers":[{"magFilter":9728,"minFilter":9984,"wrapS":10497,"wrapT":10497}],"textures":[{"source":0,"sampler":0}],"images":[{"name":"Guardian_3_Base_color","mimeType":"image/png","uri":"textures/4bbb0bce45b02a13.png"}],"buffers":[{"uri":"Guardian_3.bin","byteLength":27192}],"materials":[{"name":"Guardian_3","doubleSided":true,"pbrMetallicRoughness":{"baseColorFactor":[0,0,0,1]},"emissiveFactor":[1,1,1],"emissiveTexture":{"index":0}}],"meshes":[{"name":"Cylinder.010","primitives":[{"attributes":{"POSITION":0,"NORMAL":1,"TEXCOORD_0":2},"mode":4,"material":0,"indices":3}]}],"nodes":[{"name":"Guardian_3","translation":[-13.858318328857422,3.036848545074463,-10.104456901550293],"rotation":[0.70710688829422,0,0,0.7071066498756409],"mesh":0,"scale":[0.2,0.2,0.2]}],"scenes":[{"name":"Scene","nodes":[0]}],"scene":0}