{"asset":{"generator":"glTF-Transform v4.3.0","version":"2.0"},"accessors":[{"type":"VEC3","componentType":5126,"count":658,"max":[1.7142648696899414,1.302183985710144,4.917143821716309],"min":[-1.430874228477478,-1.3355157375335693,-2.5088164806365967],"bufferView":0,"byteOffset":0},{"type":"VEC3","componentType":5126,"count":658,"bufferView":0,"byteOffset":12},{"type":"VEC2","componentType":5126,"count":658,"bufferView":0,"byteOffset":24},{"type":"SCALAR","componentType":5123,"count":1773,"bufferView":1,"byteOffset":0}],"bufferViews":[{"buffer":0,"byteOffset":0,"byteLength":21056,"byteStride":32,"target":34962},{"buffer":0,"byteOffset":21056,"byteLength":3548,"target":34963}],"samplers":[{"magFilter":9728,"minFilter":9984,"wrapS":10497,"wrapT":10497}],"textures":[{"source":0,"sampler":0}],"images":[{"name":"Guardian_1_Base_color","mimeType":"image/png","uri":"textures/7551e1c37214b440.png"}],"buffers":[{"uri":"Guardian_1.bin","byteLength":24604}],"materials":[{"name":"Guardian_1","doubleSided":true,"pbrMetallicRoughness":{"baseColorFactor":[0,0,0,1]},"emissiveFactor":[1,1,1],"emissiveTexture":{"index":0}}],"meshes":[{"name":"Cube.012","primitives":[{"attributes":{"POSITION":0,"NORMAL":1,"TEXCOORD_0":2},"mode":4,"material":0,"indices":3}]}],"nodes":[{"name":"Guardian_1","translation":[-18.314990997314453,2.6977767944335938,-13.67402458190918],"rotation":[0.70710688829422,0,0,0.7071066498756409],"mesh":0,"scale":[0.2,0.2,0.2]}],"scenes":[{"name":"Scene","nodes":[0]}],"scene":0}