{"asset":{"generator":"glTF-Transform v4.3.0","version":"2.0"},"accessors":[{"type":"VEC3","componentType":5126,"count":608,"max":[1.6231977939605713,1.1131620407104492,4.968982696533203],"min":[-1.6538327932357788,-1.678044319152832,-2.58819580078125],"bufferView":0,"byteOffset":0},{"type":"VEC3","componentType":5126,"count":608,"bufferView":0,"byteOffset":12},{"type":"VEC2","componentType":5126,"count":608,"bufferView":0,"byteOffset":24},{"type":"SCALAR","componentType":5123,"count":1629,"bufferView":1,"byteOffset":0}],"bufferViews":[{"buffer":0,"byteOffset":0,"byteLength":19456,"byteStride":32,"target":34962},{"buffer":0,"byteOffset":19456,"byteLength":3260,"target":34963}],"samplers":[{"magFilter":9728,"minFilter":9984,"wrapS":10497,"wrapT":10497}],"textures":[{"source":0,"sampler":0}],"images":[{"name":"Guardian_2_Base_color","mimeType":"image/png","uri":"textures/418125ba32729a1e.png"}],"buffers":[{"uri":"Guardian_2.bin","byteLength":22716}],"materials":[{"name":"Guardian_2","doubleSided":true,"pbrMetallicRoughness":{"baseColorFactor":[0,0,0,1]},"emissiveFactor":[1,1,1],"emissiveTexture":{"index":0}}],"meshes":[{"name":"Cylinder.047","primitives":[{"attributes":{"POSITION":0,"NORMAL":1,"TEXCOORD_0":2},"mode":4,"material":0,"indices":3}]}],"nodes":[{"name":"Guardian_2","translation":[-13.85531997680664,2.7416744232177734,-13.712821960449219],"rotation":[0.70710688829422,0,0,0.7071066498756409],"mesh":0,"scale":[0.2,0.2,0.2]}],"scenes":[{"name":"Scene","nodes":[0]}],"scene":0}