{"asset":{"generator":"glTF-Transform v4.3.0","version":"2.0"},"accessors":[{"type":"VEC3","componentType":5126,"count":257,"max":[1.7641159296035767,1.3351179361343384,4.106236934661865],"min":[-1.7672498226165771,-3.691147804260254,-5.446356296539307],"bufferView":0,"byteOffset":0},{"type":"VEC3","componentType":5126,"count":257,"bufferView":0,"byteOffset":12},{"type":"VEC2","componentType":5126,"count":257,"bufferView":0,"byteOffset":24},{"type":"SCALAR","componentType":5123,"count":540,"bufferView":1,"byteOffset":0}],"bufferViews":[{"buffer":0,"byteOffset":0,"byteLength":8224,"byteStride":32,"target":34962},{"buffer":0,"byteOffset":8224,"byteLength":1080,"target":34963}],"samplers":[{"magFilter":9728,"minFilter":9984,"wrapS":10497,"wrapT":10497}],"textures":[{"source":0,"sampler":0}],"images":[{"name":"Guillotine_Base_color","mimeType":"image/png","uri":"textures/8ca9a140179b82eb.png"}],"buffers":[{"uri":"Guillotine.bin","byteLength":9304}],"materials":[{"name":"Guillotine","doubleSided":true,"pbrMetallicRoughness":{"baseColorFactor":[0,0,0,1]},"emissiveFactor":[1,1,1],"emissiveTexture":{"index":0}}],"meshes":[{"name":"Cube.058","primitives":[{"attributes":{"POSITION":0,"NORMAL":1,"TEXCOORD_0":2},"mode":4,"material":0,"indices":3}]}],"nodes":[{"name":"Guillotine","translation":[42.88689041137695,0.7043485641479492,-36.15153121948242],"rotation":[0.70710688829422,0,0,0.7071066498756409],"mesh":0,"scale":[0.2,0.2,0.2]}],"scenes":[{"name":"Scene","nodes":[0]}],"scene":0}