{"asset":{"generator":"glTF-Transform v4.3.0","version":"2.0"},"accessors":[{"type":"VEC3","componentType":5126,"count":357,"max":[0.9563566446304321,0.9563637375831604,2.361510753631592],"min":[-0.95637047290802,-0.9563630819320679,-0.9777528047561646],"bufferView":0,"byteOffset":0},{"type":"VEC3","componentType":5126,"count":357,"bufferView":0,"byteOffset":12},{"type":"VEC2","componentType":5126,"count":357,"bufferView":0,"byteOffset":24},{"type":"SCALAR","componentType":5123,"count":1128,"bufferView":1,"byteOffset":0}],"bufferViews":[{"buffer":0,"byteOffset":0,"byteLength":11424,"byteStride":32,"target":34962},{"buffer":0,"byteOffset":11424,"byteLength":2256,"target":34963}],"samplers":[{"magFilter":9728,"minFilter":9984,"wrapS":10497,"wrapT":10497}],"textures":[{"source":0,"sampler":0}],"images":[{"name":"Holy_Vase_Base_color","mimeType":"image/png","uri":"textures/6b3f59f9ad567b4f.png"}],"buffers":[{"uri":"Holy_Vase.bin","byteLength":13680}],"materials":[{"name":"Holy_vase","doubleSided":true,"pbrMetallicRoughness":{"baseColorFactor":[0,0,0,1]},"emissiveFactor":[1,1,1],"emissiveTexture":{"index":0}}],"meshes":[{"name":"Circle.012","primitives":[{"attributes":{"POSITION":0,"NORMAL":1,"TEXCOORD_0":2},"mode":4,"material":0,"indices":3}]}],"nodes":[{"name":"Holy_Vase","translation":[35.094783782958984,-0.3948357105255127,25.395004272460938],"rotation":[0.70710688829422,0,0,0.7071066498756409],"mesh":0,"scale":[0.2,0.2,0.2]}],"scenes":[{"name":"Scene","nodes":[0]}],"scene":0}