{"asset":{"generator":"glTF-Transform v4.3.0","version":"2.0"},"accessors":[{"type":"VEC3","componentType":5126,"count":198,"max":[0.3855082094669342,0.22895632684230804,1.0311976671218872],"min":[-0.3855088949203491,-0.22895628213882446,-0.34019455313682556],"bufferView":0,"byteOffset":0},{"type":"VEC3","componentType":5126,"count":198,"bufferView":0,"byteOffset":12},{"type":"VEC2","componentType":5126,"count":198,"bufferView":0,"byteOffset":24},{"type":"SCALAR","componentType":5123,"count":558,"bufferView":1,"byteOffset":0}],"bufferViews":[{"buffer":0,"byteOffset":0,"byteLength":6336,"byteStride":32,"target":34962},{"buffer":0,"byteOffset":6336,"byteLength":1116,"target":34963}],"samplers":[{"magFilter":9728,"minFilter":9984,"wrapS":10497,"wrapT":10497}],"textures":[{"source":0,"sampler":0}],"images":[{"name":"Holy_Water_Base_color","mimeType":"image/png","uri":"textures/34334b989fd34bad.png"}],"buffers":[{"uri":"Holy_Water.bin","byteLength":7452}],"materials":[{"name":"Holy_Water","doubleSided":true,"pbrMetallicRoughness":{"baseColorFactor":[0,0,0,1]},"emissiveFactor":[1,1,1],"emissiveTexture":{"index":0}}],"meshes":[{"name":"Cube.025","primitives":[{"attributes":{"POSITION":0,"NORMAL":1,"TEXCOORD_0":2},"mode":4,"material":0,"indices":3}]}],"nodes":[{"name":"Holy_Water","translation":[-30.724712371826172,-2.4428272247314453,-38.84157180786133],"rotation":[0.70710688829422,0,0,0.7071066498756409],"mesh":0,"scale":[0.2,0.2,0.2]}],"scenes":[{"name":"Scene","nodes":[0]}],"scene":0}