{"asset":{"generator":"glTF-Transform v4.3.0","version":"2.0"},"accessors":[{"type":"VEC3","componentType":5126,"count":224,"max":[0.4958489239215851,0.49585041403770447,0.9133911728858948],"min":[-0.4958518147468567,-0.4958503842353821,-0.46222758293151855],"bufferView":0,"byteOffset":0},{"type":"VEC3","componentType":5126,"count":224,"bufferView":0,"byteOffset":12},{"type":"VEC2","componentType":5126,"count":224,"bufferView":0,"byteOffset":24},{"type":"SCALAR","componentType":5123,"count":564,"bufferView":1,"byteOffset":0}],"bufferViews":[{"buffer":0,"byteOffset":0,"byteLength":7168,"byteStride":32,"target":34962},{"buffer":0,"byteOffset":7168,"byteLength":1128,"target":34963}],"samplers":[{"magFilter":9728,"minFilter":9984,"wrapS":10497,"wrapT":10497}],"textures":[{"source":0,"sampler":0}],"images":[{"name":"Ink_Base_color","mimeType":"image/png","uri":"textures/558974ed007b473a.png"}],"buffers":[{"uri":"Ink.bin","byteLength":8296}],"materials":[{"name":"Ink","doubleSided":true,"pbrMetallicRoughness":{"baseColorFactor":[0,0,0,1]},"emissiveFactor":[1,1,1],"emissiveTexture":{"index":0}}],"meshes":[{"name":"Cylinder.017","primitives":[{"attributes":{"POSITION":0,"NORMAL":1,"TEXCOORD_0":2},"mode":4,"material":0,"indices":3}]}],"nodes":[{"name":"Ink","translation":[-24.685314178466797,-2.580341339111328,-38.84215545654297],"rotation":[0.70710688829422,0,0,0.7071066498756409],"mesh":0,"scale":[0.2,0.2,0.2]}],"scenes":[{"name":"Scene","nodes":[0]}],"scene":0}