{"asset":{"generator":"glTF-Transform v4.3.0","version":"2.0"},"accessors":[{"type":"VEC3","componentType":5126,"count":344,"max":[2.6649012565612793,0.2234354168176651,2.739875555038452],"min":[-2.5834805965423584,-0.2734525501728058,-2.5085062980651855],"bufferView":0,"byteOffset":0},{"type":"VEC3","componentType":5126,"count":344,"bufferView":0,"byteOffset":12},{"type":"VEC2","componentType":5126,"count":344,"bufferView":0,"byteOffset":24},{"type":"SCALAR","componentType":5123,"count":768,"bufferView":1,"byteOffset":0}],"bufferViews":[{"buffer":0,"byteOffset":0,"byteLength":11008,"byteStride":32,"target":34962},{"buffer":0,"byteOffset":11008,"byteLength":1536,"target":34963}],"samplers":[{"magFilter":9728,"minFilter":9984,"wrapS":10497,"wrapT":10497}],"textures":[{"source":0,"sampler":0}],"images":[{"name":"Iron_Bars_Broken_Base_color","mimeType":"image/png","uri":"textures/ea2116ca5676d886.png"}],"buffers":[{"uri":"Iron_Bars_Broken.bin","byteLength":12544}],"materials":[{"name":"Iron_Bars_Broken","doubleSided":true,"pbrMetallicRoughness":{"baseColorFactor":[0,0,0,1]},"emissiveFactor":[1,1,1],"emissiveTexture":{"index":0}}],"meshes":[{"name":"Cylinder.014","primitives":[{"attributes":{"POSITION":0,"NORMAL":1,"TEXCOORD_0":2},"mode":4,"material":0,"indices":3}]}],"nodes":[{"name":"Iron_Bars_Broken","translation":[-37.71841812133789,4.55246639251709,-8.261106491088867],"rotation":[0.70710688829422,0,0,0.7071066498756409],"mesh":0,"scale":[0.2,0.2,0.2]}],"scenes":[{"name":"Scene","nodes":[0]}],"scene":0}