{"asset":{"generator":"glTF-Transform v4.3.0","version":"2.0"},"accessors":[{"type":"VEC3","componentType":5126,"count":320,"max":[2.6057586669921875,0.22917984426021576,2.64142107963562],"min":[-2.64262318611145,-0.2677081227302551,-2.6069607734680176],"bufferView":0,"byteOffset":0},{"type":"VEC3","componentType":5126,"count":320,"bufferView":0,"byteOffset":12},{"type":"VEC2","componentType":5126,"count":320,"bufferView":0,"byteOffset":24},{"type":"SCALAR","componentType":5123,"count":672,"bufferView":1,"byteOffset":0}],"bufferViews":[{"buffer":0,"byteOffset":0,"byteLength":10240,"byteStride":32,"target":34962},{"buffer":0,"byteOffset":10240,"byteLength":1344,"target":34963}],"samplers":[{"magFilter":9728,"minFilter":9984,"wrapS":10497,"wrapT":10497}],"textures":[{"source":0,"sampler":0}],"images":[{"name":"Iron_Bars_Base_color","mimeType":"image/png","uri":"textures/7c424c06c17325ae.png"}],"buffers":[{"uri":"Iron_Bars.bin","byteLength":11584}],"materials":[{"name":"Iron_Bars","doubleSided":true,"pbrMetallicRoughness":{"baseColorFactor":[0,0,0,1]},"emissiveFactor":[1,1,1],"emissiveTexture":{"index":0}}],"meshes":[{"name":"Cylinder.009","primitives":[{"attributes":{"POSITION":0,"NORMAL":1,"TEXCOORD_0":2},"mode":4,"material":0,"indices":3}]}],"nodes":[{"name":"Iron_Bars","translation":[-31.293399810791016,4.454012870788574,-8.266851425170898],"rotation":[0.70710688829422,0,0,0.7071066498756409],"mesh":0,"scale":[0.2,0.2,0.2]}],"scenes":[{"name":"Scene","nodes":[0]}],"scene":0}