{"asset":{"generator":"glTF-Transform v4.3.0","version":"2.0"},"accessors":[{"type":"VEC3","componentType":5126,"count":324,"max":[0.00022315559908747673,1.1270060539245605,2.470050096511841],"min":[-1.8411906957626343,-0.20107501745224,-1.855334758758545],"bufferView":0,"byteOffset":0},{"type":"VEC3","componentType":5126,"count":324,"bufferView":0,"byteOffset":12},{"type":"VEC2","componentType":5126,"count":324,"bufferView":0,"byteOffset":24},{"type":"SCALAR","componentType":5123,"count":816,"bufferView":1,"byteOffset":0},{"type":"SCALAR","componentType":5123,"count":2550,"bufferView":1,"byteOffset":1632},{"type":"VEC3","componentType":5126,"count":855,"max":[1.5315914154052734,1.7907061576843262,3.2234158515930176],"min":[-1.4893429279327393,-1.2302286624908447,-3.014904022216797],"bufferView":2,"byteOffset":0},{"type":"VEC3","componentType":5126,"count":855,"bufferView":2,"byteOffset":12},{"type":"VEC2","componentType":5126,"count":855,"bufferView":2,"byteOffset":24}],"bufferViews":[{"buffer":0,"byteOffset":0,"byteLength":10368,"byteStride":32,"target":34962},{"buffer":0,"byteOffset":10368,"byteLength":6732,"target":34963},{"buffer":0,"byteOffset":17100,"byteLength":27360,"byteStride":32,"target":34962}],"samplers":[{"magFilter":9728,"minFilter":9984,"wrapS":10497,"wrapT":10497}],"textures":[{"source":0,"sampler":0}],"images":[{"name":"Iron_Maiden_Base_color","mimeType":"image/png","uri":"textures/824a5ce286c62c23.png"}],"buffers":[{"uri":"Iron_Maiden.bin","byteLength":44460}],"materials":[{"name":"Iron_Maiden","doubleSided":true,"pbrMetallicRoughness":{"baseColorFactor":[0,0,0,1]},"emissiveFactor":[1,1,1],"emissiveTexture":{"index":0}}],"meshes":[{"name":"Cylinder.023","primitives":[{"attributes":{"POSITION":0,"NORMAL":1,"TEXCOORD_0":2},"mode":4,"material":0,"indices":3}]},{"name":"Cylinder.038","primitives":[{"attributes":{"POSITION":5,"NORMAL":6,"TEXCOORD_0":7},"mode":4,"material":0,"indices":4}]}],"nodes":[{"name":"Iron_Maiden_Door","translation":[-1.1298432350158691,0.7177674770355225,0.08111578971147537],"mesh":0},{"name":"Iron_Maiden","translation":[-4.347591400146484,1.7331924438476562,-10.10972785949707],"rotation":[0.70710688829422,0,0,0.7071066498756409],"mesh":1,"children":[0],"scale":[0.2,0.2,0.2]}],"scenes":[{"name":"Scene","nodes":[1]}],"scene":0}