{"asset":{"generator":"glTF-Transform v4.3.0","version":"2.0"},"accessors":[{"type":"VEC3","componentType":5126,"count":204,"max":[1.464432716369629,1.4644328355789185,1.3863600492477417],"min":[-1.464432716369629,-1.4644325971603394,-4.748095512390137],"bufferView":0,"byteOffset":0},{"type":"VEC3","componentType":5126,"count":204,"bufferView":0,"byteOffset":12},{"type":"VEC2","componentType":5126,"count":204,"bufferView":0,"byteOffset":24},{"type":"SCALAR","componentType":5123,"count":660,"bufferView":1,"byteOffset":0}],"bufferViews":[{"buffer":0,"byteOffset":0,"byteLength":6528,"byteStride":32,"target":34962},{"buffer":0,"byteOffset":6528,"byteLength":1320,"target":34963}],"samplers":[{"magFilter":9728,"minFilter":9984,"wrapS":10497,"wrapT":10497}],"textures":[{"source":0,"sampler":0}],"images":[{"name":"Iron_Maiden_Closed_Base_color","mimeType":"image/png","uri":"textures/db2bf040cb5a467d.png"}],"buffers":[{"uri":"Iron_Maiden_Closed.bin","byteLength":7848}],"materials":[{"name":"Iron_Maiden_Closed","doubleSided":true,"pbrMetallicRoughness":{"baseColorFactor":[0,0,0,1]},"emissiveFactor":[1,1,1],"emissiveTexture":{"index":0}}],"meshes":[{"name":"Cylinder","primitives":[{"attributes":{"POSITION":0,"NORMAL":1,"TEXCOORD_0":2},"mode":4,"material":0,"indices":3}]}],"nodes":[{"name":"Iron_Maiden_Closed","translation":[-9.62874984741211,0,-9.829488754272461],"rotation":[0.70710688829422,0,0,0.7071066498756409],"mesh":0,"scale":[0.2,0.2,0.2]}],"scenes":[{"name":"Scene","nodes":[0]}],"scene":0}