{"asset":{"generator":"glTF-Transform v4.3.0","version":"2.0"},"accessors":[{"type":"VEC3","componentType":5126,"count":366,"max":[0.5771030783653259,0.6495771408081055,1.0381321907043457],"min":[-0.5771023035049438,-0.6495769619941711,-1.2615700960159302],"bufferView":0,"byteOffset":0},{"type":"VEC3","componentType":5126,"count":366,"bufferView":0,"byteOffset":12},{"type":"VEC2","componentType":5126,"count":366,"bufferView":0,"byteOffset":24},{"type":"SCALAR","componentType":5123,"count":954,"bufferView":1,"byteOffset":0}],"bufferViews":[{"buffer":0,"byteOffset":0,"byteLength":11712,"byteStride":32,"target":34962},{"buffer":0,"byteOffset":11712,"byteLength":1908,"target":34963}],"samplers":[{"magFilter":9728,"minFilter":9984,"wrapS":10497,"wrapT":10497}],"textures":[{"source":0,"sampler":0}],"images":[{"name":"Lamp_Base_color","mimeType":"image/png","uri":"textures/7db682617c33e851.png"}],"buffers":[{"uri":"Lamp.bin","byteLength":13620}],"materials":[{"name":"Lamp","doubleSided":true,"pbrMetallicRoughness":{"baseColorFactor":[0,0,0,1]},"emissiveFactor":[1,1,1],"emissiveTexture":{"index":0}}],"meshes":[{"name":"Cylinder.015","primitives":[{"attributes":{"POSITION":0,"NORMAL":1,"TEXCOORD_0":2},"mode":4,"material":0,"indices":3}]}],"nodes":[{"name":"Lamp","translation":[29.469390869140625,0.44017887115478516,7.930572032928467],"rotation":[0.70710688829422,0,0,0.7071066498756409],"mesh":0,"scale":[0.2,0.2,0.2]}],"scenes":[{"name":"Scene","nodes":[0]}],"scene":0}