{"asset":{"generator":"glTF-Transform v4.3.0","version":"2.0"},"accessors":[{"type":"VEC3","componentType":5126,"count":1112,"max":[2.376805543899536,0.4924047291278839,5.501781463623047],"min":[-1.45138418674469,-0.4641684293746948,-2.36554217338562],"bufferView":0,"byteOffset":0},{"type":"VEC3","componentType":5126,"count":1112,"bufferView":0,"byteOffset":12},{"type":"VEC2","componentType":5126,"count":1112,"bufferView":0,"byteOffset":24},{"type":"SCALAR","componentType":5123,"count":2742,"bufferView":1,"byteOffset":0}],"bufferViews":[{"buffer":0,"byteOffset":0,"byteLength":35584,"byteStride":32,"target":34962},{"buffer":0,"byteOffset":35584,"byteLength":5484,"target":34963}],"samplers":[{"magFilter":9728,"minFilter":9984,"wrapS":10497,"wrapT":10497}],"textures":[{"source":0,"sampler":0}],"images":[{"name":"Lamp_Post_Base_color","mimeType":"image/png","uri":"textures/76d9a1b2878663b5.png"}],"buffers":[{"uri":"Lamp_Post.bin","byteLength":41068}],"materials":[{"name":"Lamp_Post","doubleSided":true,"pbrMetallicRoughness":{"baseColorFactor":[0,0,0,1]},"emissiveFactor":[1,1,1],"emissiveTexture":{"index":0}}],"meshes":[{"name":"Cylinder.049","primitives":[{"attributes":{"POSITION":0,"NORMAL":1,"TEXCOORD_0":2},"mode":4,"material":0,"indices":3}]}],"nodes":[{"name":"Lamp_Post","translation":[-13.58676528930664,3.2184128761291504,16.60671615600586],"rotation":[0.70710688829422,0,0,0.7071066498756409],"mesh":0,"scale":[0.2,0.2,0.2]}],"scenes":[{"name":"Scene","nodes":[0]}],"scene":0}