{"asset":{"generator":"glTF-Transform v4.3.0","version":"2.0"},"accessors":[{"type":"VEC3","componentType":5126,"count":153,"max":[0.9567931890487671,0.7735222578048706,2.2827296257019043],"min":[-0.9567937254905701,-0.7476140260696411,-2.2717318534851074],"bufferView":0,"byteOffset":0},{"type":"VEC3","componentType":5126,"count":153,"bufferView":0,"byteOffset":12},{"type":"VEC2","componentType":5126,"count":153,"bufferView":0,"byteOffset":24},{"type":"SCALAR","componentType":5123,"count":378,"bufferView":1,"byteOffset":0}],"bufferViews":[{"buffer":0,"byteOffset":0,"byteLength":4896,"byteStride":32,"target":34962},{"buffer":0,"byteOffset":4896,"byteLength":756,"target":34963}],"samplers":[{"magFilter":9728,"minFilter":9984,"wrapS":10497,"wrapT":10497}],"textures":[{"source":0,"sampler":0}],"images":[{"name":"Lectern_Base_color","mimeType":"image/png","uri":"textures/ed530edb6bce2102.png"}],"buffers":[{"uri":"Lectern.bin","byteLength":5652}],"materials":[{"name":"Lectern","doubleSided":true,"pbrMetallicRoughness":{"baseColorFactor":[0,0,0,1]},"emissiveFactor":[1,1,1],"emissiveTexture":{"index":0}}],"meshes":[{"name":"Cube.024","primitives":[{"attributes":{"POSITION":0,"NORMAL":1,"TEXCOORD_0":2},"mode":4,"material":0,"indices":3}]}],"nodes":[{"name":"Lectern","translation":[-26.430156707763672,1.2003259658813477,4.9636945724487305],"rotation":[0.70710688829422,0,0,0.7071066498756409],"mesh":0,"scale":[0.2,0.2,0.2]}],"scenes":[{"name":"Scene","nodes":[0]}],"scene":0}