{"asset":{"generator":"glTF-Transform v4.3.0","version":"2.0"},"accessors":[{"type":"VEC3","componentType":5126,"count":4,"max":[2.331578016281128,5.824985980987549,2.546182145124476e-07],"min":[-2.331578016281128,-5.824985980987549,-2.546182145124476e-07],"bufferView":0,"byteOffset":0},{"type":"VEC3","componentType":5126,"count":4,"bufferView":0,"byteOffset":12},{"type":"VEC2","componentType":5126,"count":4,"bufferView":0,"byteOffset":24},{"type":"SCALAR","componentType":5123,"count":6,"bufferView":1,"byteOffset":0}],"bufferViews":[{"buffer":0,"byteOffset":0,"byteLength":128,"byteStride":32,"target":34962},{"buffer":0,"byteOffset":128,"byteLength":12,"target":34963}],"samplers":[{"magFilter":9728,"minFilter":9984,"wrapS":10497,"wrapT":10497}],"textures":[{"source":0,"sampler":0}],"images":[{"name":"Long_Carpet_Base_color","mimeType":"image/png","uri":"textures/631733a744ca75b9.png"}],"buffers":[{"uri":"Long_Carpet.bin","byteLength":140}],"materials":[{"name":"Long_Carpet","doubleSided":true,"pbrMetallicRoughness":{"baseColorFactor":[0,0,0,1]},"emissiveFactor":[1,1,1],"emissiveTexture":{"index":0}}],"meshes":[{"name":"Plane.007","primitives":[{"attributes":{"POSITION":0,"NORMAL":1,"TEXCOORD_0":2},"mode":4,"material":0,"indices":3}]}],"nodes":[{"name":"Long_Carpet","translation":[-35.44076156616211,-4.707537651062012,-38.84215545654297],"rotation":[0.70710688829422,0,0,0.7071066498756409],"mesh":0,"scale":[0.2,0.2,0.2]}],"scenes":[{"name":"Scene","nodes":[0]}],"scene":0}