{"asset":{"generator":"glTF-Transform v4.3.0","version":"2.0"},"accessors":[{"type":"VEC3","componentType":5126,"count":152,"max":[0.5493554472923279,0.523148775100708,0.7123421430587769],"min":[-0.8024461269378662,-0.5231488347053528,-0.666414201259613],"bufferView":0,"byteOffset":0},{"type":"VEC3","componentType":5126,"count":152,"bufferView":0,"byteOffset":12},{"type":"VEC2","componentType":5126,"count":152,"bufferView":0,"byteOffset":24},{"type":"SCALAR","componentType":5123,"count":300,"bufferView":1,"byteOffset":0}],"bufferViews":[{"buffer":0,"byteOffset":0,"byteLength":4864,"byteStride":32,"target":34962},{"buffer":0,"byteOffset":4864,"byteLength":600,"target":34963}],"samplers":[{"magFilter":9728,"minFilter":9984,"wrapS":10497,"wrapT":10497}],"textures":[{"source":0,"sampler":0}],"images":[{"name":"Mug_Base_color","mimeType":"image/png","uri":"textures/92ba8f4352fdc412.png"}],"buffers":[{"uri":"Mug.bin","byteLength":5464}],"materials":[{"name":"Mug","doubleSided":true,"pbrMetallicRoughness":{"baseColorFactor":[0,0,0,1]},"emissiveFactor":[1,1,1],"emissiveTexture":{"index":0}}],"meshes":[{"name":"Cube.107","primitives":[{"attributes":{"POSITION":0,"NORMAL":1,"TEXCOORD_0":2},"mode":4,"material":0,"indices":3}]}],"nodes":[{"name":"Mug","translation":[15.191650390625,-0.6375651359558105,35.309085845947266],"rotation":[0.70710688829422,0,0,0.7071066498756409],"mesh":0,"scale":[0.2,0.2,0.2]}],"scenes":[{"name":"Scene","nodes":[0]}],"scene":0}