{"asset":{"generator":"glTF-Transform v4.3.0","version":"2.0"},"accessors":[{"type":"VEC3","componentType":5126,"count":104,"max":[0.14657047390937805,0.14656956493854523,1.1889300346374512],"min":[-0.14656862616539001,-0.14656956493854523,-0.4170042872428894],"bufferView":0,"byteOffset":0},{"type":"VEC3","componentType":5126,"count":104,"bufferView":0,"byteOffset":12},{"type":"VEC2","componentType":5126,"count":104,"bufferView":0,"byteOffset":24},{"type":"SCALAR","componentType":5123,"count":156,"bufferView":1,"byteOffset":0}],"bufferViews":[{"buffer":0,"byteOffset":0,"byteLength":3328,"byteStride":32,"target":34962},{"buffer":0,"byteOffset":3328,"byteLength":312,"target":34963}],"samplers":[{"magFilter":9728,"minFilter":9984,"wrapS":10497,"wrapT":10497}],"textures":[{"source":0,"sampler":0}],"images":[{"name":"Nail_Base_color","mimeType":"image/png","uri":"textures/5e658d28bc662250.png"}],"buffers":[{"uri":"Nail.bin","byteLength":3640}],"materials":[{"name":"Nail","doubleSided":true,"pbrMetallicRoughness":{"baseColorFactor":[0,0,0,1]},"emissiveFactor":[1,1,1],"emissiveTexture":{"index":0}}],"meshes":[{"name":"Cube.020","primitives":[{"attributes":{"POSITION":0,"NORMAL":1,"TEXCOORD_0":2},"mode":4,"material":0,"indices":3}]}],"nodes":[{"name":"Nail","translation":[-26.58120346069336,-2.624420404434204,-38.84157180786133],"rotation":[0.70710688829422,0,0,0.7071066498756409],"mesh":0,"scale":[0.2,0.2,0.2]}],"scenes":[{"name":"Scene","nodes":[0]}],"scene":0}