{"asset":{"generator":"glTF-Transform v4.3.0","version":"2.0"},"accessors":[{"type":"VEC3","componentType":5126,"count":464,"max":[2.8563549518585205,0.2916920483112335,1.9836223125457764],"min":[-2.863024950027466,-0.373961478471756,-3.7074437141418457],"bufferView":0,"byteOffset":0},{"type":"VEC3","componentType":5126,"count":464,"bufferView":0,"byteOffset":12},{"type":"VEC2","componentType":5126,"count":464,"bufferView":0,"byteOffset":24},{"type":"SCALAR","componentType":5123,"count":1080,"bufferView":1,"byteOffset":0}],"bufferViews":[{"buffer":0,"byteOffset":0,"byteLength":14848,"byteStride":32,"target":34962},{"buffer":0,"byteOffset":14848,"byteLength":2160,"target":34963}],"samplers":[{"magFilter":9728,"minFilter":9984,"wrapS":10497,"wrapT":10497}],"textures":[{"source":0,"sampler":0}],"images":[{"name":"Notice_Board_Base_color","mimeType":"image/png","uri":"textures/8dcc86accee98339.png"}],"buffers":[{"uri":"Notice_Board.bin","byteLength":17008}],"materials":[{"name":"Notice_Board","doubleSided":true,"pbrMetallicRoughness":{"baseColorFactor":[0,0,0,1]},"emissiveFactor":[1,1,1],"emissiveTexture":{"index":0}}],"meshes":[{"name":"Cube.051","primitives":[{"attributes":{"POSITION":0,"NORMAL":1,"TEXCOORD_0":2},"mode":4,"material":0,"indices":3}]}],"nodes":[{"name":"Notice_Board","translation":[13.660979270935059,-0.6848945617675781,31.389015197753906],"rotation":[0.70710688829422,0,0,0.7071066498756409],"mesh":0,"scale":[0.2,0.2,0.2]}],"scenes":[{"name":"Scene","nodes":[0]}],"scene":0}