{"asset":{"generator":"glTF-Transform v4.3.0","version":"2.0"},"accessors":[{"type":"VEC3","componentType":5126,"count":208,"max":[1.2868813276290894,1.286881446838379,2.324338674545288],"min":[-1.2868813276290894,-1.2868812084197998,-4.855560779571533],"bufferView":0,"byteOffset":0},{"type":"VEC3","componentType":5126,"count":208,"bufferView":0,"byteOffset":12},{"type":"VEC2","componentType":5126,"count":208,"bufferView":0,"byteOffset":24},{"type":"SCALAR","componentType":5123,"count":462,"bufferView":1,"byteOffset":0}],"bufferViews":[{"buffer":0,"byteOffset":0,"byteLength":6656,"byteStride":32,"target":34962},{"buffer":0,"byteOffset":6656,"byteLength":924,"target":34963}],"samplers":[{"magFilter":9728,"minFilter":9984,"wrapS":10497,"wrapT":10497}],"textures":[{"source":0,"sampler":0}],"images":[{"name":"Obelisk_1_Var_2","mimeType":"image/png","uri":"textures/e104cb5890779653.png"}],"buffers":[{"uri":"Obelisk.bin","byteLength":7580}],"materials":[{"name":"Obelisk","doubleSided":true,"pbrMetallicRoughness":{"baseColorFactor":[0,0,0,1]},"emissiveFactor":[1,1,1],"emissiveTexture":{"index":0}}],"meshes":[{"name":"Cube.041","primitives":[{"attributes":{"POSITION":0,"NORMAL":1,"TEXCOORD_0":2},"mode":4,"material":0,"indices":3}]}],"nodes":[{"name":"Obelisk","translation":[3.092823028564453,-1.334930419921875,-39.94673156738281],"rotation":[0.70710688829422,0,0,0.7071066498756409],"mesh":0,"scale":[0.2,0.2,0.2]}],"scenes":[{"name":"Scene","nodes":[0]}],"scene":0}