{"asset":{"generator":"glTF-Transform v4.3.0","version":"2.0"},"accessors":[{"type":"VEC3","componentType":5126,"count":604,"max":[0.7985352277755737,0.7985349297523499,0.7985354661941528],"min":[-0.7985346913337708,-0.7985354661941528,-0.7985354661941528],"bufferView":0,"byteOffset":0},{"type":"VEC3","componentType":5126,"count":604,"bufferView":0,"byteOffset":12},{"type":"VEC2","componentType":5126,"count":604,"bufferView":0,"byteOffset":24},{"type":"SCALAR","componentType":5123,"count":2880,"bufferView":1,"byteOffset":0}],"bufferViews":[{"buffer":0,"byteOffset":0,"byteLength":19328,"byteStride":32,"target":34962},{"buffer":0,"byteOffset":19328,"byteLength":5760,"target":34963}],"samplers":[{"magFilter":9728,"minFilter":9984,"wrapS":10497,"wrapT":10497}],"textures":[{"source":0,"sampler":0}],"images":[{"name":"Orb_Base_color2","mimeType":"image/png","uri":"textures/2ea6368bc72cf016.png"}],"buffers":[{"uri":"Orb.bin","byteLength":25088}],"materials":[{"name":"Orb","doubleSided":true,"pbrMetallicRoughness":{"baseColorFactor":[0,0,0,1]},"emissiveFactor":[1,1,1],"emissiveTexture":{"index":0}}],"meshes":[{"name":"Sphere.005","primitives":[{"attributes":{"POSITION":0,"NORMAL":1,"TEXCOORD_0":2},"mode":4,"material":0,"indices":3}]}],"nodes":[{"name":"Orb","translation":[15.878971099853516,0.110931396484375,4.970239162445068],"rotation":[0.70710688829422,0,0,0.7071066498756409],"mesh":0,"scale":[0.2,0.2,0.2]}],"scenes":[{"name":"Scene","nodes":[0]}],"scene":0}