{"asset":{"generator":"glTF-Transform v4.3.0","version":"2.0"},"accessors":[{"type":"VEC3","componentType":5126,"count":144,"max":[1.1229257583618164,0.06913889944553375,1.649431586265564],"min":[-1.1229257583618164,-0.08428412675857544,-1.649431586265564],"bufferView":0,"byteOffset":0},{"type":"VEC3","componentType":5126,"count":144,"bufferView":0,"byteOffset":12},{"type":"VEC2","componentType":5126,"count":144,"bufferView":0,"byteOffset":24},{"type":"SCALAR","componentType":5123,"count":372,"bufferView":1,"byteOffset":0}],"bufferViews":[{"buffer":0,"byteOffset":0,"byteLength":4608,"byteStride":32,"target":34962},{"buffer":0,"byteOffset":4608,"byteLength":744,"target":34963}],"samplers":[{"magFilter":9728,"minFilter":9984,"wrapS":10497,"wrapT":10497}],"textures":[{"source":0,"sampler":0}],"images":[{"name":"Painting_2_Base_color","mimeType":"image/png","uri":"textures/05248a73612e6fab.png"}],"buffers":[{"uri":"Painting_2.bin","byteLength":5352}],"materials":[{"name":"Painting_2","doubleSided":true,"pbrMetallicRoughness":{"baseColorFactor":[0,0,0,1]},"emissiveFactor":[1,1,1],"emissiveTexture":{"index":0}}],"meshes":[{"name":"Circle.008","primitives":[{"attributes":{"POSITION":0,"NORMAL":1,"TEXCOORD_0":2},"mode":4,"material":0,"indices":3}]}],"nodes":[{"name":"Painting_2","translation":[18.239299774169922,0.110931396484375,5.05452299118042],"rotation":[0.70710688829422,0,0,0.7071066498756409],"mesh":0,"scale":[0.2,0.2,0.2]}],"scenes":[{"name":"Scene","nodes":[0]}],"scene":0}