{"asset":{"generator":"glTF-Transform v4.3.0","version":"2.0"},"accessors":[{"type":"VEC3","componentType":5126,"count":48,"max":[2.1002776622772217,0.061736006289720535,1],"min":[-2.1002776622772217,-0.10005848109722137,-1],"bufferView":0,"byteOffset":0},{"type":"VEC3","componentType":5126,"count":48,"bufferView":0,"byteOffset":12},{"type":"VEC2","componentType":5126,"count":48,"bufferView":0,"byteOffset":24},{"type":"SCALAR","componentType":5123,"count":84,"bufferView":1,"byteOffset":0}],"bufferViews":[{"buffer":0,"byteOffset":0,"byteLength":1536,"byteStride":32,"target":34962},{"buffer":0,"byteOffset":1536,"byteLength":168,"target":34963}],"samplers":[{"magFilter":9728,"minFilter":9984,"wrapS":10497,"wrapT":10497}],"textures":[{"source":0,"sampler":0}],"images":[{"name":"Painting_3_Base_color","mimeType":"image/png","uri":"textures/684e920dbd17c7fb.png"}],"buffers":[{"uri":"Painting_3.bin","byteLength":1704}],"materials":[{"name":"Painting_3","doubleSided":true,"pbrMetallicRoughness":{"baseColorFactor":[0,0,0,1]},"emissiveFactor":[1,1,1],"emissiveTexture":{"index":0}}],"meshes":[{"name":"Cube.038","primitives":[{"attributes":{"POSITION":0,"NORMAL":1,"TEXCOORD_0":2},"mode":4,"material":0,"indices":3}]}],"nodes":[{"name":"Painting_3","translation":[10.753864288330078,0.110931396484375,3.3229897022247314],"rotation":[0.70710688829422,0,0,0.7071066498756409],"mesh":0,"scale":[0.2,0.2,0.2]}],"scenes":[{"name":"Scene","nodes":[0]}],"scene":0}