{"asset":{"generator":"glTF-Transform v4.3.0","version":"2.0"},"accessors":[{"type":"VEC3","componentType":5126,"count":36,"max":[1.071966528892517,1.6517152786254883,0.005056297406554222],"min":[-1.071966528892517,-1.6517152786254883,-0.005056297406554222],"bufferView":0,"byteOffset":0},{"type":"VEC3","componentType":5126,"count":36,"bufferView":0,"byteOffset":12},{"type":"VEC2","componentType":5126,"count":36,"bufferView":0,"byteOffset":24},{"type":"SCALAR","componentType":5123,"count":60,"bufferView":1,"byteOffset":0}],"bufferViews":[{"buffer":0,"byteOffset":0,"byteLength":1152,"byteStride":32,"target":34962},{"buffer":0,"byteOffset":1152,"byteLength":120,"target":34963}],"samplers":[{"magFilter":9728,"minFilter":9984,"wrapS":10497,"wrapT":10497}],"textures":[{"source":0,"sampler":0}],"images":[{"name":"Paper_Base_color","mimeType":"image/png","uri":"textures/b070b256f9d4d6dd.png"}],"buffers":[{"uri":"Paper.bin","byteLength":1272}],"materials":[{"name":"Paper","doubleSided":true,"pbrMetallicRoughness":{"baseColorFactor":[0,0,0,1]},"emissiveFactor":[1,1,1],"emissiveTexture":{"index":0}}],"meshes":[{"name":"Plane.002","primitives":[{"attributes":{"POSITION":0,"NORMAL":1,"TEXCOORD_0":2},"mode":4,"material":0,"indices":3}]}],"nodes":[{"name":"Paper","translation":[6.318157196044922,0.11364936828613281,3.326206684112549],"rotation":[0.70710688829422,0,0,0.7071066498756409],"mesh":0,"scale":[0.2,0.2,0.2]}],"scenes":[{"name":"Scene","nodes":[0]}],"scene":0}