{"asset":{"generator":"glTF-Transform v4.3.0","version":"2.0"},"accessors":[{"type":"VEC3","componentType":5126,"count":1222,"max":[1.987045168876648,1.997584581375122,1.1826099157333374],"min":[-1.275550127029419,-2.1996288299560547,-3.564518690109253],"bufferView":0,"byteOffset":0},{"type":"VEC3","componentType":5126,"count":1222,"bufferView":0,"byteOffset":12},{"type":"VEC2","componentType":5126,"count":1222,"bufferView":0,"byteOffset":24},{"type":"SCALAR","componentType":5123,"count":2868,"bufferView":1,"byteOffset":0}],"bufferViews":[{"buffer":0,"byteOffset":0,"byteLength":39104,"byteStride":32,"target":34962},{"buffer":0,"byteOffset":39104,"byteLength":5736,"target":34963}],"samplers":[{"magFilter":9728,"minFilter":9984,"wrapS":10497,"wrapT":10497}],"textures":[{"source":0,"sampler":0}],"images":[{"name":"Piano_Var_2_Base_color","mimeType":"image/png","uri":"textures/ad2fb7df6cce7d3d.png"}],"buffers":[{"uri":"Piano_Var_2.bin","byteLength":44840}],"materials":[{"name":"Piano_Var_2","doubleSided":true,"pbrMetallicRoughness":{"baseColorFactor":[0,0,0,1]},"emissiveFactor":[1,1,1],"emissiveTexture":{"index":0}}],"meshes":[{"name":"Cylinder.030","primitives":[{"attributes":{"POSITION":0,"NORMAL":1,"TEXCOORD_0":2},"mode":4,"material":0,"indices":3}]}],"nodes":[{"name":"Piano_Var_2","translation":[34.14695739746094,0.5888290405273438,-18.801429748535156],"rotation":[0.70710688829422,0,0,0.7071066498756409],"mesh":0,"scale":[0.2,0.2,0.2]}],"scenes":[{"name":"Scene","nodes":[0]}],"scene":0}