{"asset":{"generator":"glTF-Transform v4.3.0","version":"2.0"},"accessors":[{"type":"VEC3","componentType":5126,"count":310,"max":[2.147270917892456,0.6765496730804443,1.4697818756103516],"min":[-2.147273063659668,-0.9635142087936401,-1.7857670783996582],"bufferView":0,"byteOffset":0},{"type":"VEC3","componentType":5126,"count":310,"bufferView":0,"byteOffset":12},{"type":"VEC2","componentType":5126,"count":310,"bufferView":0,"byteOffset":24},{"type":"SCALAR","componentType":5123,"count":816,"bufferView":1,"byteOffset":0}],"bufferViews":[{"buffer":0,"byteOffset":0,"byteLength":9920,"byteStride":32,"target":34962},{"buffer":0,"byteOffset":9920,"byteLength":1632,"target":34963}],"samplers":[{"magFilter":9728,"minFilter":9984,"wrapS":10497,"wrapT":10497}],"textures":[{"source":0,"sampler":0}],"images":[{"name":"Piano_Var_1_Base_color","mimeType":"image/png","uri":"textures/24bb242dcaada751.png"}],"buffers":[{"uri":"Piano_Var_1.bin","byteLength":11552}],"materials":[{"name":"Piano_Var_1","doubleSided":true,"pbrMetallicRoughness":{"baseColorFactor":[0,0,0,1]},"emissiveFactor":[1,1,1],"emissiveTexture":{"index":0}}],"meshes":[{"name":"Cube.055","primitives":[{"attributes":{"POSITION":0,"NORMAL":1,"TEXCOORD_0":2},"mode":4,"material":0,"indices":3}]}],"nodes":[{"name":"Piano_Var_1","translation":[28.91635513305664,1.1660003662109375,-18.046127319335938],"rotation":[0.70710688829422,0,0,0.7071066498756409],"mesh":0,"scale":[0.2,0.2,0.2]}],"scenes":[{"name":"Scene","nodes":[0]}],"scene":0}