{"asset":{"generator":"glTF-Transform v4.3.0","version":"2.0"},"accessors":[{"type":"VEC3","componentType":5126,"count":180,"max":[0.7297254800796509,4.186887264251709,0.7501904368400574],"min":[-0.7187111377716064,-4.1439995765686035,-0.7468061447143555],"bufferView":0,"byteOffset":0},{"type":"VEC3","componentType":5126,"count":180,"bufferView":0,"byteOffset":12},{"type":"VEC2","componentType":5126,"count":180,"bufferView":0,"byteOffset":24},{"type":"SCALAR","componentType":5123,"count":420,"bufferView":1,"byteOffset":0}],"bufferViews":[{"buffer":0,"byteOffset":0,"byteLength":5760,"byteStride":32,"target":34962},{"buffer":0,"byteOffset":5760,"byteLength":840,"target":34963}],"samplers":[{"magFilter":9728,"minFilter":9984,"wrapS":10497,"wrapT":10497}],"textures":[{"source":0,"sampler":0}],"images":[{"name":"Post_Base_color","mimeType":"image/png","uri":"textures/f65e361e1a36e31a.png"}],"buffers":[{"uri":"Post.bin","byteLength":6600}],"materials":[{"name":"Post","doubleSided":true,"pbrMetallicRoughness":{"baseColorFactor":[0,0,0,1]},"emissiveFactor":[1,1,1],"emissiveTexture":{"index":0}}],"meshes":[{"name":"Cube.030","primitives":[{"attributes":{"POSITION":0,"NORMAL":1,"TEXCOORD_0":2},"mode":4,"material":0,"indices":3}]}],"nodes":[{"name":"Post","translation":[32.32569885253906,0.0016927719116210938,0.0012121200561523438],"rotation":[0.70710688829422,0,0,0.7071066498756409],"mesh":0,"scale":[0.2,0.2,0.2]}],"scenes":[{"name":"Scene","nodes":[0]}],"scene":0}