{"asset":{"generator":"glTF-Transform v4.3.0","version":"2.0"},"accessors":[{"type":"VEC3","componentType":5126,"count":459,"max":[0.4804629683494568,0.4804629683494568,0.2394406944513321],"min":[-0.4804629683494568,-0.4804629683494568,-1.4723575115203857],"bufferView":0,"byteOffset":0},{"type":"VEC3","componentType":5126,"count":459,"bufferView":0,"byteOffset":12},{"type":"VEC2","componentType":5126,"count":459,"bufferView":0,"byteOffset":24},{"type":"SCALAR","componentType":5123,"count":1236,"bufferView":1,"byteOffset":0}],"bufferViews":[{"buffer":0,"byteOffset":0,"byteLength":14688,"byteStride":32,"target":34962},{"buffer":0,"byteOffset":14688,"byteLength":2472,"target":34963}],"samplers":[{"magFilter":9728,"minFilter":9984,"wrapS":10497,"wrapT":10497}],"textures":[{"source":0,"sampler":0}],"images":[{"name":"Potion_Var_2_Base_color","mimeType":"image/png","uri":"textures/df9136d2cb2bb7c1.png"}],"buffers":[{"uri":"Potion_Var_2.bin","byteLength":17160}],"materials":[{"name":"Potion_Var_2","doubleSided":true,"pbrMetallicRoughness":{"baseColorFactor":[0,0,0,1]},"emissiveFactor":[1,1,1],"emissiveTexture":{"index":0}}],"meshes":[{"name":"Cylinder.028","primitives":[{"attributes":{"POSITION":0,"NORMAL":1,"TEXCOORD_0":2},"mode":4,"material":0,"indices":3}]}],"nodes":[{"name":"Potion_Var_2","translation":[-26.414897918701172,-2.9236268997192383,-34.13474655151367],"rotation":[0.70710688829422,0,0,0.7071066498756409],"mesh":0,"scale":[0.2,0.2,0.2]}],"scenes":[{"name":"Scene","nodes":[0]}],"scene":0}