{"asset":{"generator":"glTF-Transform v4.3.0","version":"2.0"},"accessors":[{"type":"VEC3","componentType":5126,"count":102,"max":[0.26143065094947815,0.023166490718722343,1.197817325592041],"min":[-0.23317883908748627,-0.023166503757238388,-1.7658531665802002],"bufferView":0,"byteOffset":0},{"type":"VEC3","componentType":5126,"count":102,"bufferView":0,"byteOffset":12},{"type":"VEC2","componentType":5126,"count":102,"bufferView":0,"byteOffset":24},{"type":"SCALAR","componentType":5123,"count":168,"bufferView":1,"byteOffset":0}],"bufferViews":[{"buffer":0,"byteOffset":0,"byteLength":3264,"byteStride":32,"target":34962},{"buffer":0,"byteOffset":3264,"byteLength":336,"target":34963}],"samplers":[{"magFilter":9728,"minFilter":9984,"wrapS":10497,"wrapT":10497}],"textures":[{"source":0,"sampler":0}],"images":[{"name":"Quill_Base_color","mimeType":"image/png","uri":"textures/51fcc4418282c8e4.png"}],"buffers":[{"uri":"Quill.bin","byteLength":3600}],"materials":[{"name":"Quill","doubleSided":true,"pbrMetallicRoughness":{"baseColorFactor":[0,0,0,1]},"emissiveFactor":[1,1,1],"emissiveTexture":{"index":0}}],"meshes":[{"name":"Plane.008","primitives":[{"attributes":{"POSITION":0,"NORMAL":1,"TEXCOORD_0":2},"mode":4,"material":0,"indices":3}]}],"nodes":[{"name":"Quill","translation":[-21.865535736083984,-2.580341339111328,-38.84215545654297],"rotation":[0.70710688829422,0,0,0.7071066498756409],"mesh":0,"scale":[0.2,0.2,0.2]}],"scenes":[{"name":"Scene","nodes":[0]}],"scene":0}