{"asset":{"generator":"glTF-Transform v4.3.0","version":"2.0"},"accessors":[{"type":"VEC3","componentType":5126,"count":176,"max":[3.4308531284332275,3.4308531284332275,0.38756775856018066],"min":[-3.4308531284332275,-3.4308531284332275,-1.2698403596878052],"bufferView":0,"byteOffset":0},{"type":"VEC3","componentType":5126,"count":176,"bufferView":0,"byteOffset":12},{"type":"VEC2","componentType":5126,"count":176,"bufferView":0,"byteOffset":24},{"type":"SCALAR","componentType":5123,"count":564,"bufferView":1,"byteOffset":0}],"bufferViews":[{"buffer":0,"byteOffset":0,"byteLength":5632,"byteStride":32,"target":34962},{"buffer":0,"byteOffset":5632,"byteLength":1128,"target":34963}],"samplers":[{"magFilter":9728,"minFilter":9984,"wrapS":10497,"wrapT":10497}],"textures":[{"source":0,"sampler":0}],"images":[{"name":"Sacrifical-Ground_1_Base_color_Var3","mimeType":"image/png","uri":"textures/9dc82eec83df99c7.png"}],"buffers":[{"uri":"Sacrifical-Ground_1.bin","byteLength":6760}],"materials":[{"name":"Sacrifical-Ground_1","doubleSided":true,"pbrMetallicRoughness":{"baseColorFactor":[0,0,0,1]},"emissiveFactor":[1,1,1],"emissiveTexture":{"index":0}}],"meshes":[{"name":"Cylinder.042","primitives":[{"attributes":{"POSITION":0,"NORMAL":1,"TEXCOORD_0":2},"mode":4,"material":0,"indices":3}]}],"nodes":[{"name":"Sacrifical-Ground_1","translation":[-24.09243392944336,1.4483051300048828,0],"rotation":[0.70710688829422,0,0,0.7071066498756409],"mesh":0,"scale":[0.2,0.2,0.2]}],"scenes":[{"name":"Scene","nodes":[0]}],"scene":0}