{"asset":{"generator":"glTF-Transform v4.3.0","version":"2.0"},"accessors":[{"type":"VEC3","componentType":5126,"count":66,"max":[0.7089797258377075,0.39108729362487793,0.7647448182106018],"min":[-0.6974445581436157,-0.1525658816099167,-1.5278980731964111],"bufferView":0,"byteOffset":0},{"type":"VEC3","componentType":5126,"count":66,"bufferView":0,"byteOffset":12},{"type":"VEC2","componentType":5126,"count":66,"bufferView":0,"byteOffset":24},{"type":"SCALAR","componentType":5123,"count":156,"bufferView":1,"byteOffset":0}],"bufferViews":[{"buffer":0,"byteOffset":0,"byteLength":2112,"byteStride":32,"target":34962},{"buffer":0,"byteOffset":2112,"byteLength":312,"target":34963}],"samplers":[{"magFilter":9728,"minFilter":9984,"wrapS":10497,"wrapT":10497}],"textures":[{"source":0,"sampler":0}],"images":[{"name":"Scroll_2_Base_color","mimeType":"image/png","uri":"textures/1ffebe8a3ad0c45a.png"}],"buffers":[{"uri":"Scroll_2.bin","byteLength":2424}],"materials":[{"name":"Scroll_2","doubleSided":true,"pbrMetallicRoughness":{"baseColorFactor":[0,0,0,1]},"emissiveFactor":[1,1,1],"emissiveTexture":{"index":0}}],"meshes":[{"name":"Plane.005","primitives":[{"attributes":{"POSITION":0,"NORMAL":1,"TEXCOORD_0":2},"mode":4,"material":0,"indices":3}]}],"nodes":[{"name":"Scroll_2","translation":[18.58257293701172,-0.5435552597045898,7.269936561584473],"rotation":[0.70710688829422,0,0,0.7071066498756409],"mesh":0,"scale":[0.2,0.2,0.2]}],"scenes":[{"name":"Scene","nodes":[0]}],"scene":0}