{"asset":{"generator":"glTF-Transform v4.3.0","version":"2.0"},"accessors":[{"type":"VEC3","componentType":5126,"count":270,"max":[0.23287594318389893,0.23287591338157654,0.874492883682251],"min":[-0.23287594318389893,-0.2328759729862213,-0.8849261999130249],"bufferView":0,"byteOffset":0},{"type":"VEC3","componentType":5126,"count":270,"bufferView":0,"byteOffset":12},{"type":"VEC2","componentType":5126,"count":270,"bufferView":0,"byteOffset":24},{"type":"SCALAR","componentType":5123,"count":708,"bufferView":1,"byteOffset":0}],"bufferViews":[{"buffer":0,"byteOffset":0,"byteLength":8640,"byteStride":32,"target":34962},{"buffer":0,"byteOffset":8640,"byteLength":1416,"target":34963}],"samplers":[{"magFilter":9728,"minFilter":9984,"wrapS":10497,"wrapT":10497}],"textures":[{"source":0,"sampler":0}],"images":[{"name":"Scroll_3_Base_color","mimeType":"image/png","uri":"textures/b226f5f0e2d4689c.png"}],"buffers":[{"uri":"Scroll_3.bin","byteLength":10056}],"materials":[{"name":"Scroll_3","doubleSided":true,"pbrMetallicRoughness":{"baseColorFactor":[0,0,0,1]},"emissiveFactor":[1,1,1],"emissiveTexture":{"index":0}}],"meshes":[{"name":"Cylinder.021","primitives":[{"attributes":{"POSITION":0,"NORMAL":1,"TEXCOORD_0":2},"mode":4,"material":0,"indices":3}]}],"nodes":[{"name":"Scroll_3","translation":[16.213077545166016,-0.5107488632202148,9.469655990600586],"rotation":[0.70710688829422,0,0,0.7071066498756409],"mesh":0,"scale":[0.2,0.2,0.2]}],"scenes":[{"name":"Scene","nodes":[0]}],"scene":0}