{"asset":{"generator":"glTF-Transform v4.3.0","version":"2.0"},"accessors":[{"type":"VEC3","componentType":5126,"count":164,"max":[0.7089796662330627,0.570827841758728,0.7647444009780884],"min":[-0.7586665153503418,-0.15256577730178833,-1.5278980731964111],"bufferView":0,"byteOffset":0},{"type":"VEC3","componentType":5126,"count":164,"bufferView":0,"byteOffset":12},{"type":"VEC2","componentType":5126,"count":164,"bufferView":0,"byteOffset":24},{"type":"SCALAR","componentType":5123,"count":372,"bufferView":1,"byteOffset":0}],"bufferViews":[{"buffer":0,"byteOffset":0,"byteLength":5248,"byteStride":32,"target":34962},{"buffer":0,"byteOffset":5248,"byteLength":744,"target":34963}],"samplers":[{"magFilter":9728,"minFilter":9984,"wrapS":10497,"wrapT":10497}],"textures":[{"source":0,"sampler":0}],"images":[{"name":"Scroll_1_Base_color_Var3","mimeType":"image/png","uri":"textures/9096dfb6d1a0cc61.png"}],"buffers":[{"uri":"Scroll_1.bin","byteLength":5992}],"materials":[{"name":"Scroll_1","doubleSided":true,"pbrMetallicRoughness":{"baseColorFactor":[0,0,0,1]},"emissiveFactor":[1,1,1],"emissiveTexture":{"index":0}}],"meshes":[{"name":"Plane.006","primitives":[{"attributes":{"POSITION":0,"NORMAL":1,"TEXCOORD_0":2},"mode":4,"material":0,"indices":3}]}],"nodes":[{"name":"Scroll_1","translation":[16.46273422241211,-0.5120687484741211,7.260731220245361],"rotation":[0.70710688829422,0,0,0.7071066498756409],"mesh":0,"scale":[0.2,0.2,0.2]}],"scenes":[{"name":"Scene","nodes":[0]}],"scene":0}