{"asset":{"generator":"glTF-Transform v4.3.0","version":"2.0"},"accessors":[{"type":"VEC3","componentType":5126,"count":144,"max":[1.560759425163269,0.6536921262741089,2.1070613861083984],"min":[-1.560759425163269,-0.7148105502128601,-1.508823275566101],"bufferView":0,"byteOffset":0},{"type":"VEC3","componentType":5126,"count":144,"bufferView":0,"byteOffset":12},{"type":"VEC2","componentType":5126,"count":144,"bufferView":0,"byteOffset":24},{"type":"SCALAR","componentType":5123,"count":318,"bufferView":1,"byteOffset":0}],"bufferViews":[{"buffer":0,"byteOffset":0,"byteLength":4608,"byteStride":32,"target":34962},{"buffer":0,"byteOffset":4608,"byteLength":636,"target":34963}],"samplers":[{"magFilter":9728,"minFilter":9984,"wrapS":10497,"wrapT":10497}],"textures":[{"source":0,"sampler":0}],"images":[{"name":"Shelf_2_Base_color","mimeType":"image/png","uri":"textures/579051cc9edbf1f4.png"}],"buffers":[{"uri":"Shelf_2.bin","byteLength":5244}],"materials":[{"name":"Shelf_2","doubleSided":true,"pbrMetallicRoughness":{"baseColorFactor":[0,0,0,1]},"emissiveFactor":[1,1,1],"emissiveTexture":{"index":0}}],"meshes":[{"name":"Cube.084","primitives":[{"attributes":{"POSITION":0,"NORMAL":1,"TEXCOORD_0":2},"mode":4,"material":0,"indices":3}]}],"nodes":[{"name":"Shelf_2","translation":[-1.984623908996582,0.7472105026245117,30.430509567260742],"rotation":[0.70710688829422,0,0,0.7071066498756409],"mesh":0,"scale":[0.2,0.2,0.2]}],"scenes":[{"name":"Scene","nodes":[0]}],"scene":0}