{"asset":{"generator":"glTF-Transform v4.3.0","version":"2.0"},"accessors":[{"type":"VEC3","componentType":5126,"count":106,"max":[1.3625969886779785,3.9894604952905866e-08,0.2878461182117462],"min":[-1.3625969886779785,-1.8055659532546997,-0.5284200310707092],"bufferView":0,"byteOffset":0},{"type":"VEC3","componentType":5126,"count":106,"bufferView":0,"byteOffset":12},{"type":"VEC2","componentType":5126,"count":106,"bufferView":0,"byteOffset":24},{"type":"SCALAR","componentType":5123,"count":252,"bufferView":1,"byteOffset":0},{"type":"SCALAR","componentType":5123,"count":396,"bufferView":1,"byteOffset":504},{"type":"VEC3","componentType":5126,"count":208,"max":[1.786590337753296,0.9510781168937683,1.1956889629364014],"min":[-1.7919443845748901,-1.004181146621704,-1.0545557737350464],"bufferView":2,"byteOffset":0},{"type":"VEC3","componentType":5126,"count":208,"bufferView":2,"byteOffset":12},{"type":"VEC2","componentType":5126,"count":208,"bufferView":2,"byteOffset":24}],"bufferViews":[{"buffer":0,"byteOffset":0,"byteLength":3392,"byteStride":32,"target":34962},{"buffer":0,"byteOffset":3392,"byteLength":1296,"target":34963},{"buffer":0,"byteOffset":4688,"byteLength":6656,"byteStride":32,"target":34962}],"samplers":[{"magFilter":9728,"minFilter":9984,"wrapS":10497,"wrapT":10497}],"textures":[{"source":0,"sampler":0}],"images":[{"name":"Shelf_1_Base_color","mimeType":"image/png","uri":"textures/4e8511f5737a0ff2.png"}],"buffers":[{"uri":"Shelf_1.bin","byteLength":11344}],"materials":[{"name":"Shelf_1","doubleSided":true,"pbrMetallicRoughness":{"baseColorFactor":[0,0,0,1]},"emissiveFactor":[1,1,1],"emissiveTexture":{"index":0}}],"meshes":[{"name":"Cube.093","primitives":[{"attributes":{"POSITION":0,"NORMAL":1,"TEXCOORD_0":2},"mode":4,"material":0,"indices":3}]},{"name":"Cube.085","primitives":[{"attributes":{"POSITION":5,"NORMAL":6,"TEXCOORD_0":7},"mode":4,"material":0,"indices":4}]}],"nodes":[{"name":"Drawer","translation":[-0.0026764869689941406,0.9521065950393677,0.8092098832130432],"mesh":0},{"name":"Shelf_1","translation":[-6.06826114654541,-0.03209114074707031,30.40915298461914],"rotation":[0.70710688829422,0,0,0.7071066498756409],"mesh":1,"children":[0],"scale":[0.2,0.2,0.2]}],"scenes":[{"name":"Scene","nodes":[1]}],"scene":0}