{"asset":{"generator":"glTF-Transform v4.3.0","version":"2.0"},"accessors":[{"type":"VEC3","componentType":5126,"count":692,"max":[0.42439261078834534,2.4906272888183594,3.4329476356506348],"min":[-0.42670297622680664,-2.6822502613067627,-1.366958498954773],"bufferView":0,"byteOffset":0},{"type":"VEC3","componentType":5126,"count":692,"bufferView":0,"byteOffset":12},{"type":"VEC2","componentType":5126,"count":692,"bufferView":0,"byteOffset":24},{"type":"SCALAR","componentType":5123,"count":1524,"bufferView":1,"byteOffset":0}],"bufferViews":[{"buffer":0,"byteOffset":0,"byteLength":22144,"byteStride":32,"target":34962},{"buffer":0,"byteOffset":22144,"byteLength":3048,"target":34963}],"samplers":[{"magFilter":9728,"minFilter":9984,"wrapS":10497,"wrapT":10497}],"textures":[{"source":0,"sampler":0}],"images":[{"name":"Shop_Sign_1_Base_color","mimeType":"image/png","uri":"textures/13a220f097c843c7.png"}],"buffers":[{"uri":"Shop_Sign_1.bin","byteLength":25192}],"materials":[{"name":"Shop_Sign_1","doubleSided":true,"pbrMetallicRoughness":{"baseColorFactor":[0,0,0,1]},"emissiveFactor":[1,1,1],"emissiveTexture":{"index":0}}],"meshes":[{"name":"Cube.069","primitives":[{"attributes":{"POSITION":0,"NORMAL":1,"TEXCOORD_0":2},"mode":4,"material":0,"indices":3}]}],"nodes":[{"name":"Shop_Sign_1","translation":[-14.970867156982422,2.264355421066284,38.37599563598633],"rotation":[0.70710688829422,0,0,0.7071066498756409],"mesh":0,"scale":[0.2,0.2,0.2]}],"scenes":[{"name":"Scene","nodes":[0]}],"scene":0}