{"asset":{"generator":"glTF-Transform v4.3.0","version":"2.0"},"accessors":[{"type":"VEC3","componentType":5126,"count":700,"max":[0.4045129418373108,2.499734401702881,3.3886725902557373],"min":[-0.4465826451778412,-2.673143148422241,-1.4638770818710327],"bufferView":0,"byteOffset":0},{"type":"VEC3","componentType":5126,"count":700,"bufferView":0,"byteOffset":12},{"type":"VEC2","componentType":5126,"count":700,"bufferView":0,"byteOffset":24},{"type":"SCALAR","componentType":5123,"count":1524,"bufferView":1,"byteOffset":0}],"bufferViews":[{"buffer":0,"byteOffset":0,"byteLength":22400,"byteStride":32,"target":34962},{"buffer":0,"byteOffset":22400,"byteLength":3048,"target":34963}],"samplers":[{"magFilter":9728,"minFilter":9984,"wrapS":10497,"wrapT":10497}],"textures":[{"source":0,"sampler":0}],"images":[{"name":"Shop_Sign_2_Base_color","mimeType":"image/png","uri":"textures/5fecaf6b9cb2b03b.png"}],"buffers":[{"uri":"Shop_Sign_2.bin","byteLength":25448}],"materials":[{"name":"Shop_Sign_2","doubleSided":true,"pbrMetallicRoughness":{"baseColorFactor":[0,0,0,1]},"emissiveFactor":[1,1,1],"emissiveTexture":{"index":0}}],"meshes":[{"name":"Cube.083","primitives":[{"attributes":{"POSITION":0,"NORMAL":1,"TEXCOORD_0":2},"mode":4,"material":0,"indices":3}]}],"nodes":[{"name":"Shop_Sign_2","translation":[-11.871063232421875,2.1674368381500244,38.366886138916016],"rotation":[0.70710688829422,0,0,0.7071066498756409],"mesh":0,"scale":[0.2,0.2,0.2]}],"scenes":[{"name":"Scene","nodes":[0]}],"scene":0}