{"asset":{"generator":"glTF-Transform v4.3.0","version":"2.0"},"accessors":[{"type":"VEC3","componentType":5126,"count":837,"max":[2.905531883239746,2.5677483081817627,3.6371994018554688],"min":[-3.2318718433380127,-1.9215126037597656,-2.2135138511657715],"bufferView":0,"byteOffset":0},{"type":"VEC3","componentType":5126,"count":837,"bufferView":0,"byteOffset":12},{"type":"VEC2","componentType":5126,"count":837,"bufferView":0,"byteOffset":24},{"type":"SCALAR","componentType":5123,"count":2088,"bufferView":1,"byteOffset":0}],"bufferViews":[{"buffer":0,"byteOffset":0,"byteLength":26784,"byteStride":32,"target":34962},{"buffer":0,"byteOffset":26784,"byteLength":4176,"target":34963}],"samplers":[{"magFilter":9728,"minFilter":9984,"wrapS":10497,"wrapT":10497}],"textures":[{"source":0,"sampler":0}],"images":[{"name":"Spike_Fence_Variant_2_Base_color_Alternative_2","mimeType":"image/png","uri":"textures/027e27e1e38612fb.png"}],"buffers":[{"uri":"Spike_Fence_Variant_2.bin","byteLength":30960}],"materials":[{"name":"Spike_Fence_Variant_2","doubleSided":true,"pbrMetallicRoughness":{"baseColorFactor":[0,0,0,1]},"emissiveFactor":[1,1,1],"emissiveTexture":{"index":0}}],"meshes":[{"name":"Cylinder.035","primitives":[{"attributes":{"POSITION":0,"NORMAL":1,"TEXCOORD_0":2},"mode":4,"material":0,"indices":3}]}],"nodes":[{"name":"Spike_Fence_Variant_2","translation":[-18.570764541625977,1.0452845096588135,51.372432708740234],"mesh":0,"scale":[0.2,0.2,0.2]}],"scenes":[{"name":"Scene","nodes":[0]}],"scene":0}