{"asset":{"generator":"glTF-Transform v4.3.0","version":"2.0"},"accessors":[{"type":"VEC3","componentType":5126,"count":86,"max":[0.27195417881011963,0.2719544470310211,6.797175407409668],"min":[-0.27195441722869873,-0.27195414900779724,-2.865666151046753],"bufferView":0,"byteOffset":0},{"type":"VEC3","componentType":5126,"count":86,"bufferView":0,"byteOffset":12},{"type":"VEC2","componentType":5126,"count":86,"bufferView":0,"byteOffset":24},{"type":"SCALAR","componentType":5123,"count":276,"bufferView":1,"byteOffset":0}],"bufferViews":[{"buffer":0,"byteOffset":0,"byteLength":2752,"byteStride":32,"target":34962},{"buffer":0,"byteOffset":2752,"byteLength":552,"target":34963}],"samplers":[{"magFilter":9728,"minFilter":9984,"wrapS":10497,"wrapT":10497}],"textures":[{"source":0,"sampler":0}],"images":[{"name":"Spike_1_Base_color","mimeType":"image/png","uri":"textures/3422707ed9924112.png"}],"buffers":[{"uri":"Spike_1.bin","byteLength":3304}],"materials":[{"name":"Spike_1","doubleSided":true,"pbrMetallicRoughness":{"baseColorFactor":[0,0,0,1]},"emissiveFactor":[1,1,1],"emissiveTexture":{"index":0}}],"meshes":[{"name":"Cylinder.005","primitives":[{"attributes":{"POSITION":0,"NORMAL":1,"TEXCOORD_0":2},"mode":4,"material":0,"indices":3}]}],"nodes":[{"name":"Spike_1","translation":[-23.19527816772461,5.526939392089844,-8.32461929321289],"rotation":[0.70710688829422,0,0,0.7071066498756409],"mesh":0,"scale":[0.2,0.2,0.2]}],"scenes":[{"name":"Scene","nodes":[0]}],"scene":0}