{"asset":{"generator":"glTF-Transform v4.3.0","version":"2.0"},"accessors":[{"type":"VEC3","componentType":5126,"count":144,"max":[0.3215259611606598,0.3529053330421448,6.001062393188477],"min":[-0.32152557373046875,-0.35290756821632385,-2.582658290863037],"bufferView":0,"byteOffset":0},{"type":"VEC3","componentType":5126,"count":144,"bufferView":0,"byteOffset":12},{"type":"VEC2","componentType":5126,"count":144,"bufferView":0,"byteOffset":24},{"type":"SCALAR","componentType":5123,"count":300,"bufferView":1,"byteOffset":0}],"bufferViews":[{"buffer":0,"byteOffset":0,"byteLength":4608,"byteStride":32,"target":34962},{"buffer":0,"byteOffset":4608,"byteLength":600,"target":34963}],"samplers":[{"magFilter":9728,"minFilter":9984,"wrapS":10497,"wrapT":10497}],"textures":[{"source":0,"sampler":0}],"images":[{"name":"Spike_2_Base_color","mimeType":"image/png","uri":"textures/e707a4e89494c75f.png"}],"buffers":[{"uri":"Spike_2.bin","byteLength":5208}],"materials":[{"name":"Spike_2","doubleSided":true,"pbrMetallicRoughness":{"baseColorFactor":[0,0,0,1]},"emissiveFactor":[1,1,1],"emissiveTexture":{"index":0}}],"meshes":[{"name":"Cube.026","primitives":[{"attributes":{"POSITION":0,"NORMAL":1,"TEXCOORD_0":2},"mode":4,"material":0,"indices":3}]}],"nodes":[{"name":"Spike_2","translation":[-21.574039459228516,4.427938461303711,-9.623394012451172],"rotation":[0.70710688829422,0,0,0.7071066498756409],"mesh":0,"scale":[0.2,0.2,0.2]}],"scenes":[{"name":"Scene","nodes":[0]}],"scene":0}