{"asset":{"generator":"glTF-Transform v4.3.0","version":"2.0"},"accessors":[{"type":"VEC3","componentType":5126,"count":826,"max":[2.400270938873291,2.167539358139038,2.339357852935791],"min":[-2.4608047008514404,-1.9328134059906006,-2.1897809505462646],"bufferView":0,"byteOffset":0},{"type":"VEC3","componentType":5126,"count":826,"bufferView":0,"byteOffset":12},{"type":"VEC2","componentType":5126,"count":826,"bufferView":0,"byteOffset":24},{"type":"SCALAR","componentType":5123,"count":2088,"bufferView":1,"byteOffset":0}],"bufferViews":[{"buffer":0,"byteOffset":0,"byteLength":26432,"byteStride":32,"target":34962},{"buffer":0,"byteOffset":26432,"byteLength":4176,"target":34963}],"samplers":[{"magFilter":9728,"minFilter":9984,"wrapS":10497,"wrapT":10497}],"textures":[{"source":0,"sampler":0}],"images":[{"name":"Spike_Fence_Variant_3_Base_color_Alternative_2","mimeType":"image/png","uri":"textures/89eaf4aec5a7e31f.png"}],"buffers":[{"uri":"Spike_Fence_Variant_3.bin","byteLength":30608}],"materials":[{"name":"Spike_Fence_Variant_3","doubleSided":true,"pbrMetallicRoughness":{"baseColorFactor":[0,0,0,1]},"emissiveFactor":[1,1,1],"emissiveTexture":{"index":0}}],"meshes":[{"name":"Cylinder.027","primitives":[{"attributes":{"POSITION":0,"NORMAL":1,"TEXCOORD_0":2},"mode":4,"material":0,"indices":3}]}],"nodes":[{"name":"Spike_Fence_Variant_3","translation":[-10.263067245483398,1.179679274559021,51.279388427734375],"mesh":0,"scale":[0.2,0.2,0.2]}],"scenes":[{"name":"Scene","nodes":[0]}],"scene":0}