{"asset":{"generator":"glTF-Transform v4.3.0","version":"2.0"},"accessors":[{"type":"SCALAR","componentType":5123,"count":2088,"bufferView":0,"byteOffset":0},{"type":"VEC3","componentType":5126,"count":828,"max":[2.3927950859069824,2.1631643772125244,2.3492889404296875],"min":[-2.401409149169922,-1.9371888637542725,-2.24487566947937],"bufferView":1,"byteOffset":0},{"type":"VEC3","componentType":5126,"count":828,"bufferView":1,"byteOffset":12},{"type":"VEC2","componentType":5126,"count":828,"bufferView":1,"byteOffset":24}],"bufferViews":[{"buffer":0,"byteOffset":0,"byteLength":4176,"target":34963},{"buffer":0,"byteOffset":4176,"byteLength":26496,"byteStride":32,"target":34962}],"samplers":[{"magFilter":9728,"minFilter":9984,"wrapS":10497,"wrapT":10497}],"textures":[{"source":0,"sampler":0}],"images":[{"name":"Spike_Fence_Variant_1_Base_color","mimeType":"image/png","uri":"textures/35e07b5ae65eb1c6.png"}],"buffers":[{"uri":"Spike_Fence_Variant_1_Alternative_2.bin","byteLength":30672}],"materials":[{"name":"Spike_Fence_Variant_1_Alternative_2","doubleSided":true,"pbrMetallicRoughness":{"baseColorFactor":[0,0,0,1]},"emissiveFactor":[1,1,1],"emissiveTexture":{"index":0}}],"meshes":[{"name":"Cylinder.050","primitives":[{"attributes":{"POSITION":1,"NORMAL":2,"TEXCOORD_0":3},"mode":4,"material":0,"indices":0}]}],"nodes":[{"name":"Spike_Fence_Variant_1_Alternative_2","translation":[-26.83281898498535,1.184863567352295,58.653778076171875],"mesh":0,"scale":[0.2,0.2,0.2]}],"scenes":[{"name":"Scene","nodes":[0]}],"scene":0}