{"asset":{"generator":"glTF-Transform v4.3.0","version":"2.0"},"accessors":[{"type":"VEC3","componentType":5126,"count":188,"max":[1.8043586015701294,1.1922330856323242,1.114487648010254],"min":[-1.8043586015701294,-1.1922330856323242,-0.9564052820205688],"bufferView":0,"byteOffset":0},{"type":"VEC3","componentType":5126,"count":188,"bufferView":0,"byteOffset":12},{"type":"VEC2","componentType":5126,"count":188,"bufferView":0,"byteOffset":24},{"type":"SCALAR","componentType":5123,"count":480,"bufferView":1,"byteOffset":0}],"bufferViews":[{"buffer":0,"byteOffset":0,"byteLength":6016,"byteStride":32,"target":34962},{"buffer":0,"byteOffset":6016,"byteLength":960,"target":34963}],"samplers":[{"magFilter":9728,"minFilter":9984,"wrapS":10497,"wrapT":10497}],"textures":[{"source":0,"sampler":0}],"images":[{"name":"Stool_1_Base_color","mimeType":"image/png","uri":"textures/bd6789a2c99de578.png"}],"buffers":[{"uri":"Stool_1.bin","byteLength":6976}],"materials":[{"name":"Stool_1","doubleSided":true,"pbrMetallicRoughness":{"baseColorFactor":[0,0,0,1]},"emissiveFactor":[1,1,1],"emissiveTexture":{"index":0}}],"meshes":[{"name":"Cube.003","primitives":[{"attributes":{"POSITION":0,"NORMAL":1,"TEXCOORD_0":2},"mode":4,"material":0,"indices":3}]}],"nodes":[{"name":"Stool_1","translation":[16.94684600830078,0.3835105895996094,-24.58980369567871],"rotation":[0.70710688829422,0,0,0.7071066498756409],"mesh":0,"scale":[0.2,0.2,0.2]}],"scenes":[{"name":"Scene","nodes":[0]}],"scene":0}