{"asset":{"generator":"glTF-Transform v4.3.0","version":"2.0"},"accessors":[{"type":"VEC3","componentType":5126,"count":160,"max":[3.7595484256744385,1.3916202783584595,1.1144875288009644],"min":[-3.7595484256744385,-1.3916202783584595,-0.9564052820205688],"bufferView":0,"byteOffset":0},{"type":"VEC3","componentType":5126,"count":160,"bufferView":0,"byteOffset":12},{"type":"VEC2","componentType":5126,"count":160,"bufferView":0,"byteOffset":24},{"type":"SCALAR","componentType":5123,"count":312,"bufferView":1,"byteOffset":0}],"bufferViews":[{"buffer":0,"byteOffset":0,"byteLength":5120,"byteStride":32,"target":34962},{"buffer":0,"byteOffset":5120,"byteLength":624,"target":34963}],"samplers":[{"magFilter":9728,"minFilter":9984,"wrapS":10497,"wrapT":10497}],"textures":[{"source":0,"sampler":0}],"images":[{"name":"Table_3_Base_color","mimeType":"image/png","uri":"textures/8887716c064acce5.png"}],"buffers":[{"uri":"Table_3.bin","byteLength":5744}],"materials":[{"name":"Table_3","doubleSided":true,"pbrMetallicRoughness":{"baseColorFactor":[0,0,0,1]},"emissiveFactor":[1,1,1],"emissiveTexture":{"index":0}}],"meshes":[{"name":"Cube.002","primitives":[{"attributes":{"POSITION":0,"NORMAL":1,"TEXCOORD_0":2},"mode":4,"material":0,"indices":3}]}],"nodes":[{"name":"Table_3","translation":[16.94684600830078,0.38351011276245117,-7.66260290145874],"rotation":[0.70710688829422,0,0,0.7071066498756409],"mesh":0,"scale":[0.2,0.2,0.2]}],"scenes":[{"name":"Scene","nodes":[0]}],"scene":0}