{"asset":{"generator":"glTF-Transform v4.3.0","version":"2.0"},"accessors":[{"type":"VEC3","componentType":5126,"count":172,"max":[3.7595484256744385,1.4892034530639648,1.1144875288009644],"min":[-3.7595484256744385,-1.4463502168655396,-0.9647195339202881],"bufferView":0,"byteOffset":0},{"type":"VEC3","componentType":5126,"count":172,"bufferView":0,"byteOffset":12},{"type":"VEC2","componentType":5126,"count":172,"bufferView":0,"byteOffset":24},{"type":"SCALAR","componentType":5123,"count":330,"bufferView":1,"byteOffset":0}],"bufferViews":[{"buffer":0,"byteOffset":0,"byteLength":5504,"byteStride":32,"target":34962},{"buffer":0,"byteOffset":5504,"byteLength":660,"target":34963}],"samplers":[{"magFilter":9728,"minFilter":9984,"wrapS":10497,"wrapT":10497}],"textures":[{"source":0,"sampler":0}],"images":[{"name":"Table_2_Base_color","mimeType":"image/png","uri":"textures/77f026e176b16b80.png"}],"buffers":[{"uri":"Table_2.bin","byteLength":6164}],"materials":[{"name":"Table_2","doubleSided":true,"pbrMetallicRoughness":{"baseColorFactor":[0,0,0,1]},"emissiveFactor":[1,1,1],"emissiveTexture":{"index":0}}],"meshes":[{"name":"Cube.004","primitives":[{"attributes":{"POSITION":0,"NORMAL":1,"TEXCOORD_0":2},"mode":4,"material":0,"indices":3}]}],"nodes":[{"name":"Table_2","translation":[16.94684600830078,0.38350963592529297,-11.833772659301758],"rotation":[0.70710688829422,0,0,0.7071066498756409],"mesh":0,"scale":[0.2,0.2,0.2]}],"scenes":[{"name":"Scene","nodes":[0]}],"scene":0}