{"asset":{"generator":"glTF-Transform v4.3.0","version":"2.0"},"accessors":[{"type":"VEC3","componentType":5126,"count":260,"max":[3.7565572261810303,1.3916207551956177,1.179364562034607],"min":[-3.7625393867492676,-1.43117356300354,-0.9137387275695801],"bufferView":0,"byteOffset":0},{"type":"VEC3","componentType":5126,"count":260,"bufferView":0,"byteOffset":12},{"type":"VEC2","componentType":5126,"count":260,"bufferView":0,"byteOffset":24},{"type":"SCALAR","componentType":5123,"count":444,"bufferView":1,"byteOffset":0}],"bufferViews":[{"buffer":0,"byteOffset":0,"byteLength":8320,"byteStride":32,"target":34962},{"buffer":0,"byteOffset":8320,"byteLength":888,"target":34963}],"samplers":[{"magFilter":9728,"minFilter":9984,"wrapS":10497,"wrapT":10497}],"textures":[{"source":0,"sampler":0}],"images":[{"name":"Table_1_Base_color","mimeType":"image/png","uri":"textures/d627c7b4fe1b0a33.png"}],"buffers":[{"uri":"Table_1.bin","byteLength":9208}],"materials":[{"name":"Table_1","doubleSided":true,"pbrMetallicRoughness":{"baseColorFactor":[0,0,0,1]},"emissiveFactor":[1,1,1],"emissiveTexture":{"index":0}}],"meshes":[{"name":"Cube.018","primitives":[{"attributes":{"POSITION":0,"NORMAL":1,"TEXCOORD_0":2},"mode":4,"material":0,"indices":3}]}],"nodes":[{"name":"Table_1","translation":[16.94983673095703,0.44838714599609375,-16.01659393310547],"rotation":[0.70710688829422,0,0,0.7071066498756409],"mesh":0,"scale":[0.2,0.2,0.2]}],"scenes":[{"name":"Scene","nodes":[0]}],"scene":0}