{"asset":{"generator":"glTF-Transform v4.3.0","version":"2.0"},"accessors":[{"type":"VEC3","componentType":5126,"count":890,"max":[2.8390371799468994,2.6520276069641113,4.651429176330566],"min":[-2.8524439334869385,-2.938610076904297,-2.841052532196045],"bufferView":0,"byteOffset":0},{"type":"VEC3","componentType":5126,"count":890,"bufferView":0,"byteOffset":12},{"type":"VEC2","componentType":5126,"count":890,"bufferView":0,"byteOffset":24},{"type":"SCALAR","componentType":5123,"count":1524,"bufferView":1,"byteOffset":0}],"bufferViews":[{"buffer":0,"byteOffset":0,"byteLength":28480,"byteStride":32,"target":34962},{"buffer":0,"byteOffset":28480,"byteLength":3048,"target":34963}],"samplers":[{"magFilter":9728,"minFilter":9984,"wrapS":10497,"wrapT":10497}],"textures":[{"source":0,"sampler":0}],"images":[{"name":"Tent_1_Base_color","mimeType":"image/png","uri":"textures/497ef1d7b5a9bc77.png"}],"buffers":[{"uri":"Tent_1.bin","byteLength":31528}],"materials":[{"name":"Tent_1","doubleSided":true,"pbrMetallicRoughness":{"baseColorFactor":[0,0,0,1]},"emissiveFactor":[1,1,1],"emissiveTexture":{"index":0}}],"meshes":[{"name":"Cylinder.026","primitives":[{"attributes":{"POSITION":0,"NORMAL":1,"TEXCOORD_0":2},"mode":4,"material":0,"indices":3}]}],"nodes":[{"name":"Tent_1","translation":[26.84531021118164,1.4743728637695312,-36.44164276123047],"rotation":[0.70710688829422,0,0,0.7071066498756409],"mesh":0,"scale":[0.2,0.2,0.2]}],"scenes":[{"name":"Scene","nodes":[0]}],"scene":0}