{"asset":{"generator":"glTF-Transform v4.3.0","version":"2.0"},"accessors":[{"type":"VEC3","componentType":5126,"count":148,"max":[0.3179317116737366,0.3179317116737366,3.2830188274383545],"min":[-0.3179317116737366,-0.31793174147605896,-1.1606435775756836],"bufferView":0,"byteOffset":0},{"type":"VEC3","componentType":5126,"count":148,"bufferView":0,"byteOffset":12},{"type":"VEC2","componentType":5126,"count":148,"bufferView":0,"byteOffset":24},{"type":"SCALAR","componentType":5123,"count":450,"bufferView":1,"byteOffset":0}],"bufferViews":[{"buffer":0,"byteOffset":0,"byteLength":4736,"byteStride":32,"target":34962},{"buffer":0,"byteOffset":4736,"byteLength":900,"target":34963}],"samplers":[{"magFilter":9728,"minFilter":9984,"wrapS":10497,"wrapT":10497}],"textures":[{"source":0,"sampler":0}],"images":[{"name":"Torch_1_Base_color","mimeType":"image/png","uri":"textures/6180a7bc559f59f3.png"}],"buffers":[{"uri":"Torch_1.bin","byteLength":5636}],"materials":[{"name":"Torch_1","doubleSided":true,"pbrMetallicRoughness":{"baseColorFactor":[0,0,0,1]},"emissiveFactor":[1,1,1],"emissiveTexture":{"index":0}}],"meshes":[{"name":"Cylinder.003","primitives":[{"attributes":{"POSITION":0,"NORMAL":1,"TEXCOORD_0":2},"mode":4,"material":0,"indices":3}]}],"nodes":[{"name":"Torch_1","translation":[6.2588958740234375,2.999225616455078,0],"rotation":[0.70710688829422,0,0,0.7071066498756409],"mesh":0,"scale":[0.2,0.2,0.2]}],"scenes":[{"name":"Scene","nodes":[0]}],"scene":0}