{"asset":{"generator":"glTF-Transform v4.3.0","version":"2.0"},"accessors":[{"type":"VEC3","componentType":5126,"count":172,"max":[0.31796199083328247,0.3179619610309601,3.1958515644073486],"min":[-0.31796199083328247,-0.31796202063560486,-0.8200787901878357],"bufferView":0,"byteOffset":0},{"type":"VEC3","componentType":5126,"count":172,"bufferView":0,"byteOffset":12},{"type":"VEC2","componentType":5126,"count":172,"bufferView":0,"byteOffset":24},{"type":"SCALAR","componentType":5123,"count":450,"bufferView":1,"byteOffset":0}],"bufferViews":[{"buffer":0,"byteOffset":0,"byteLength":5504,"byteStride":32,"target":34962},{"buffer":0,"byteOffset":5504,"byteLength":900,"target":34963}],"samplers":[{"magFilter":9728,"minFilter":9984,"wrapS":10497,"wrapT":10497}],"textures":[{"source":0,"sampler":0}],"images":[{"name":"Torch_2_Base_color","mimeType":"image/png","uri":"textures/de91fe4dce8892ac.png"}],"buffers":[{"uri":"Torch_2.bin","byteLength":6404}],"materials":[{"name":"Torch_2","doubleSided":true,"pbrMetallicRoughness":{"baseColorFactor":[0,0,0,1]},"emissiveFactor":[1,1,1],"emissiveTexture":{"index":0}}],"meshes":[{"name":"Cylinder.004","primitives":[{"attributes":{"POSITION":0,"NORMAL":1,"TEXCOORD_0":2},"mode":4,"material":0,"indices":3}]}],"nodes":[{"name":"Torch_2","translation":[7.235969543457031,2.9120583534240723,0],"rotation":[0.70710688829422,0,0,0.7071066498756409],"mesh":0,"scale":[0.2,0.2,0.2]}],"scenes":[{"name":"Scene","nodes":[0]}],"scene":0}