{"asset":{"generator":"glTF-Transform v4.3.0","version":"2.0"},"accessors":[{"type":"VEC3","componentType":5126,"count":945,"max":[2.9649293422698975,2.9481968879699707,12.309721946716309],"min":[-2.935671806335449,-2.9524037837982178,-6.271719932556152],"bufferView":0,"byteOffset":0},{"type":"VEC3","componentType":5126,"count":945,"bufferView":0,"byteOffset":12},{"type":"VEC2","componentType":5126,"count":945,"bufferView":0,"byteOffset":24},{"type":"SCALAR","componentType":5123,"count":1860,"bufferView":1,"byteOffset":0}],"bufferViews":[{"buffer":0,"byteOffset":0,"byteLength":30240,"byteStride":32,"target":34962},{"buffer":0,"byteOffset":30240,"byteLength":3720,"target":34963}],"samplers":[{"magFilter":9728,"minFilter":9984,"wrapS":10497,"wrapT":10497}],"textures":[{"source":0,"sampler":0}],"images":[{"name":"Tower_Base_color","mimeType":"image/png","uri":"textures/36c32ad97498be30.png"}],"buffers":[{"uri":"Tower.bin","byteLength":33960}],"materials":[{"name":"Tower","doubleSided":true,"pbrMetallicRoughness":{"baseColorFactor":[0,0,0,1]},"emissiveFactor":[1,1,1],"emissiveTexture":{"index":0}}],"meshes":[{"name":"Cylinder.018","primitives":[{"attributes":{"POSITION":0,"NORMAL":1,"TEXCOORD_0":2},"mode":4,"material":0,"indices":3}]}],"nodes":[{"name":"Tower","translation":[17.504459381103516,8.170488357543945,-36.454627990722656],"rotation":[0.70710688829422,0,0,0.7071066498756409],"mesh":0,"scale":[0.2,0.2,0.2]}],"scenes":[{"name":"Scene","nodes":[0]}],"scene":0}