{"asset":{"generator":"glTF-Transform v4.3.0","version":"2.0"},"accessors":[{"type":"VEC3","componentType":5126,"count":304,"max":[0.8540513515472412,0.8540513515472412,2.311002254486084],"min":[-0.8540515899658203,-0.8540516495704651,-1.988155722618103],"bufferView":0,"byteOffset":0},{"type":"VEC3","componentType":5126,"count":304,"bufferView":0,"byteOffset":12},{"type":"VEC2","componentType":5126,"count":304,"bufferView":0,"byteOffset":24},{"type":"SCALAR","componentType":5123,"count":924,"bufferView":1,"byteOffset":0}],"bufferViews":[{"buffer":0,"byteOffset":0,"byteLength":9728,"byteStride":32,"target":34962},{"buffer":0,"byteOffset":9728,"byteLength":1848,"target":34963}],"samplers":[{"magFilter":9728,"minFilter":9984,"wrapS":10497,"wrapT":10497}],"textures":[{"source":0,"sampler":0}],"images":[{"name":"Vase_4_Base_color","mimeType":"image/png","uri":"textures/28ca6801caeceed4.png"}],"buffers":[{"uri":"Vase_4.bin","byteLength":11576}],"materials":[{"name":"Vase_4","doubleSided":true,"pbrMetallicRoughness":{"baseColorFactor":[0,0,0,1]},"emissiveFactor":[1,1,1],"emissiveTexture":{"index":0}}],"meshes":[{"name":"Sphere.001","primitives":[{"attributes":{"POSITION":0,"NORMAL":1,"TEXCOORD_0":2},"mode":4,"material":0,"indices":3}]}],"nodes":[{"name":"Vase_4","translation":[-6.554126739501953,1.7554984092712402,0.3539161682128906],"rotation":[0.70710688829422,0,0,0.7071066498756409],"mesh":0,"scale":[0.2,0.2,0.2]}],"scenes":[{"name":"Scene","nodes":[0]}],"scene":0}