{"asset":{"generator":"glTF-Transform v4.3.0","version":"2.0"},"accessors":[{"type":"VEC3","componentType":5126,"count":154,"max":[0.7660048604011536,0.7660051584243774,0.6651200652122498],"min":[-0.7660050988197327,-0.7660048007965088,-0.5672405362129211],"bufferView":0,"byteOffset":0},{"type":"VEC3","componentType":5126,"count":154,"bufferView":0,"byteOffset":12},{"type":"VEC2","componentType":5126,"count":154,"bufferView":0,"byteOffset":24},{"type":"SCALAR","componentType":5123,"count":462,"bufferView":1,"byteOffset":0}],"bufferViews":[{"buffer":0,"byteOffset":0,"byteLength":4928,"byteStride":32,"target":34962},{"buffer":0,"byteOffset":4928,"byteLength":924,"target":34963}],"samplers":[{"magFilter":9728,"minFilter":9984,"wrapS":10497,"wrapT":10497}],"textures":[{"source":0,"sampler":0}],"images":[{"name":"Vase_1_Base_color","mimeType":"image/png","uri":"textures/34a2fd2b155ecf62.png"}],"buffers":[{"uri":"Vase_1.bin","byteLength":5852}],"materials":[{"name":"Vase_1","doubleSided":true,"pbrMetallicRoughness":{"baseColorFactor":[0,0,0,1]},"emissiveFactor":[1,1,1],"emissiveTexture":{"index":0}}],"meshes":[{"name":"Sphere","primitives":[{"attributes":{"POSITION":0,"NORMAL":1,"TEXCOORD_0":2},"mode":4,"material":0,"indices":3}]}],"nodes":[{"name":"Vase_1","translation":[-12.116947174072266,0,0],"rotation":[0.70710688829422,0,0,0.7071066498756409],"mesh":0,"scale":[0.2,0.2,0.2]}],"scenes":[{"name":"Scene","nodes":[0]}],"scene":0}