{"asset":{"generator":"glTF-Transform v4.3.0","version":"2.0"},"accessors":[{"type":"VEC3","componentType":5126,"count":142,"max":[0.7660048604011536,0.7660051584243774,1.1116784811019897],"min":[-0.7660050988197327,-0.7660048007965088,-0.9480831027030945],"bufferView":0,"byteOffset":0},{"type":"VEC3","componentType":5126,"count":142,"bufferView":0,"byteOffset":12},{"type":"VEC2","componentType":5126,"count":142,"bufferView":0,"byteOffset":24},{"type":"SCALAR","componentType":5123,"count":462,"bufferView":1,"byteOffset":0}],"bufferViews":[{"buffer":0,"byteOffset":0,"byteLength":4544,"byteStride":32,"target":34962},{"buffer":0,"byteOffset":4544,"byteLength":924,"target":34963}],"samplers":[{"magFilter":9728,"minFilter":9984,"wrapS":10497,"wrapT":10497}],"textures":[{"source":0,"sampler":0}],"images":[{"name":"Vase_2_Base_color","mimeType":"image/png","uri":"textures/8bf0f7b8db7f5682.png"}],"buffers":[{"uri":"Vase_2.bin","byteLength":5468}],"materials":[{"name":"Vase_2","doubleSided":true,"pbrMetallicRoughness":{"baseColorFactor":[0,0,0,1]},"emissiveFactor":[1,1,1],"emissiveTexture":{"index":0}}],"meshes":[{"name":"Sphere.003","primitives":[{"attributes":{"POSITION":0,"NORMAL":1,"TEXCOORD_0":2},"mode":4,"material":0,"indices":3}]}],"nodes":[{"name":"Vase_2","translation":[-10.323963165283203,0.6282379627227783,0.013216018676757812],"rotation":[0.70710688829422,0,0,0.7071066498756409],"mesh":0,"scale":[0.2,0.2,0.2]}],"scenes":[{"name":"Scene","nodes":[0]}],"scene":0}