{"asset":{"generator":"glTF-Transform v4.3.0","version":"2.0"},"accessors":[{"type":"VEC3","componentType":5126,"count":292,"max":[0.7660048007965088,0.7660051584243774,1.3072261810302734],"min":[-0.7660051584243774,-0.7660048007965088,-1.356271743774414],"bufferView":0,"byteOffset":0},{"type":"VEC3","componentType":5126,"count":292,"bufferView":0,"byteOffset":12},{"type":"VEC2","componentType":5126,"count":292,"bufferView":0,"byteOffset":24},{"type":"SCALAR","componentType":5123,"count":822,"bufferView":1,"byteOffset":0}],"bufferViews":[{"buffer":0,"byteOffset":0,"byteLength":9344,"byteStride":32,"target":34962},{"buffer":0,"byteOffset":9344,"byteLength":1644,"target":34963}],"samplers":[{"magFilter":9728,"minFilter":9984,"wrapS":10497,"wrapT":10497}],"textures":[{"source":0,"sampler":0}],"images":[{"name":"Vase_3_Base_color","mimeType":"image/png","uri":"textures/a3a8b7e305717ce5.png"}],"buffers":[{"uri":"Vase_3.bin","byteLength":10988}],"materials":[{"name":"Vase_3","doubleSided":true,"pbrMetallicRoughness":{"baseColorFactor":[0,0,0,1]},"emissiveFactor":[1,1,1],"emissiveTexture":{"index":0}}],"meshes":[{"name":"Sphere.004","primitives":[{"attributes":{"POSITION":0,"NORMAL":1,"TEXCOORD_0":2},"mode":4,"material":0,"indices":3}]}],"nodes":[{"name":"Vase_3","translation":[-8.280986785888672,0.7517223358154297,0.013216495513916016],"rotation":[0.70710688829422,0,0,0.7071066498756409],"mesh":0,"scale":[0.2,0.2,0.2]}],"scenes":[{"name":"Scene","nodes":[0]}],"scene":0}