{"asset":{"generator":"glTF-Transform v4.3.0","version":"2.0"},"accessors":[{"type":"VEC3","componentType":5126,"count":209,"max":[0.18216897547245026,0.1821688562631607,1.4338499307632446],"min":[-0.1821686178445816,-0.18216882646083832,-0.8070825934410095],"bufferView":0,"byteOffset":0},{"type":"VEC3","componentType":5126,"count":209,"bufferView":0,"byteOffset":12},{"type":"VEC2","componentType":5126,"count":209,"bufferView":0,"byteOffset":24},{"type":"SCALAR","componentType":5123,"count":636,"bufferView":1,"byteOffset":0}],"bufferViews":[{"buffer":0,"byteOffset":0,"byteLength":6688,"byteStride":32,"target":34962},{"buffer":0,"byteOffset":6688,"byteLength":1272,"target":34963}],"samplers":[{"magFilter":9728,"minFilter":9984,"wrapS":10497,"wrapT":10497}],"textures":[{"source":0,"sampler":0}],"images":[{"name":"Vial_Base_color","mimeType":"image/png","uri":"textures/320989dff032ca2c.png"}],"buffers":[{"uri":"Vial.bin","byteLength":7960}],"materials":[{"name":"Vial","doubleSided":true,"pbrMetallicRoughness":{"baseColorFactor":[0,0,0,1]},"emissiveFactor":[1,1,1],"emissiveTexture":{"index":0}}],"meshes":[{"name":"Cylinder.022","primitives":[{"attributes":{"POSITION":0,"NORMAL":1,"TEXCOORD_0":2},"mode":4,"material":0,"indices":3}]}],"nodes":[{"name":"Vial","translation":[-19.71395492553711,-2.580341339111328,-38.84215545654297],"rotation":[0.70710688829422,0,0,0.7071066498756409],"mesh":0,"scale":[0.2,0.2,0.2]}],"scenes":[{"name":"Scene","nodes":[0]}],"scene":0}