{"asset":{"generator":"glTF-Transform v4.3.0","version":"2.0"},"accessors":[{"type":"SCALAR","componentType":5123,"count":84,"bufferView":0,"byteOffset":0},{"type":"VEC3","componentType":5126,"count":50,"max":[3.189866781234741,3.074277639389038,5.423370361328125],"min":[-5.609071731567383,-3.0789144039154053,-3.1492960453033447],"bufferView":1,"byteOffset":0},{"type":"VEC3","componentType":5126,"count":50,"bufferView":1,"byteOffset":12},{"type":"VEC2","componentType":5126,"count":50,"bufferView":1,"byteOffset":24}],"bufferViews":[{"buffer":0,"byteOffset":0,"byteLength":168,"target":34963},{"buffer":0,"byteOffset":168,"byteLength":1600,"byteStride":32,"target":34962}],"samplers":[{"magFilter":9728,"minFilter":9984,"wrapS":10497,"wrapT":10497}],"textures":[{"source":0,"sampler":0}],"images":[{"name":"Wall_2_Base_color","mimeType":"image/png","uri":"textures/c7b9c421cc92785b.png"}],"buffers":[{"uri":"Wall_2_Alternative_2.bin","byteLength":1768}],"materials":[{"name":"Wall_2_Alternative_2","doubleSided":true,"pbrMetallicRoughness":{"baseColorFactor":[0,0,0,1]},"emissiveFactor":[1,1,1],"emissiveTexture":{"index":0}}],"meshes":[{"name":"Cube.091","primitives":[{"attributes":{"POSITION":1,"NORMAL":2,"TEXCOORD_0":3},"mode":4,"material":0,"indices":0}]}],"nodes":[{"name":"Wall_2_Alternative_2","translation":[30.42748260498047,3.3719797134399414,54.62078094482422],"mesh":0,"scale":[0.2,0.2,0.2]}],"scenes":[{"name":"Scene","nodes":[0]}],"scene":0}