{"asset":{"generator":"glTF-Transform v4.3.0","version":"2.0"},"accessors":[{"type":"VEC3","componentType":5126,"count":50,"max":[3.189866781234741,3.074277639389038,5.423370361328125],"min":[-5.609071731567383,-3.0789144039154053,-3.1492960453033447],"bufferView":0,"byteOffset":0},{"type":"VEC3","componentType":5126,"count":50,"bufferView":0,"byteOffset":12},{"type":"VEC2","componentType":5126,"count":50,"bufferView":0,"byteOffset":24},{"type":"SCALAR","componentType":5123,"count":84,"bufferView":1,"byteOffset":0}],"bufferViews":[{"buffer":0,"byteOffset":0,"byteLength":1600,"byteStride":32,"target":34962},{"buffer":0,"byteOffset":1600,"byteLength":168,"target":34963}],"samplers":[{"magFilter":9728,"minFilter":9984,"wrapS":10497,"wrapT":10497}],"textures":[{"source":0,"sampler":0}],"images":[{"name":"Wall_2_Base_color_Alternative_2","mimeType":"image/png","uri":"textures/24b241f7d147e45d.png"}],"buffers":[{"uri":"Wall_2.bin","byteLength":1768}],"materials":[{"name":"Wall_2","doubleSided":true,"pbrMetallicRoughness":{"baseColorFactor":[0,0,0,1]},"emissiveFactor":[1,1,1],"emissiveTexture":{"index":0}}],"meshes":[{"name":"Cube.066","primitives":[{"attributes":{"POSITION":0,"NORMAL":1,"TEXCOORD_0":2},"mode":4,"material":0,"indices":3}]}],"nodes":[{"name":"Wall_2","translation":[17.811023712158203,3.3719797134399414,54.62078094482422],"mesh":0,"scale":[0.2,0.2,0.2]}],"scenes":[{"name":"Scene","nodes":[0]}],"scene":0}