{"asset":{"generator":"glTF-Transform v4.3.0","version":"2.0"},"accessors":[{"type":"SCALAR","componentType":5123,"count":36,"bufferView":0,"byteOffset":0},{"type":"VEC3","componentType":5126,"count":24,"max":[5.280704498291016,5.299999713897705,1.332615613937378],"min":[-5.280704498291016,-0.8439192771911621,-1.332615613937378],"bufferView":1,"byteOffset":0},{"type":"VEC3","componentType":5126,"count":24,"bufferView":1,"byteOffset":12},{"type":"VEC2","componentType":5126,"count":24,"bufferView":1,"byteOffset":24}],"bufferViews":[{"buffer":0,"byteOffset":0,"byteLength":72,"target":34963},{"buffer":0,"byteOffset":72,"byteLength":768,"byteStride":32,"target":34962}],"samplers":[{"magFilter":9728,"minFilter":9984,"wrapS":10497,"wrapT":10497}],"textures":[{"source":0,"sampler":0}],"images":[{"name":"Wall_1_Base_color","mimeType":"image/png","uri":"textures/b0585a98b7802aa5.png"}],"buffers":[{"uri":"Wall_1_Alternative_2.bin","byteLength":840}],"materials":[{"name":"Wall_1_Alternative_2.001","doubleSided":true,"pbrMetallicRoughness":{"baseColorFactor":[0,0,0,1]},"emissiveFactor":[1,1,1],"emissiveTexture":{"index":0}}],"meshes":[{"name":"Cube.095","primitives":[{"attributes":{"POSITION":1,"NORMAL":2,"TEXCOORD_0":3},"mode":4,"material":0,"indices":0}]}],"nodes":[{"name":"Wall_1_Alternative_2","translation":[31.224048614501953,0.7346163392066956,65.68797302246094],"mesh":0,"scale":[0.2,0.2,0.2]}],"scenes":[{"name":"Scene","nodes":[0]}],"scene":0}