{"asset":{"generator":"glTF-Transform v4.3.0","version":"2.0"},"accessors":[{"type":"VEC3","componentType":5126,"count":288,"max":[1.9153344631195068,0.7206627130508423,3.574173927307129],"min":[-1.9153339862823486,-0.849565327167511,-2.5135560035705566],"bufferView":0,"byteOffset":0},{"type":"VEC3","componentType":5126,"count":288,"bufferView":0,"byteOffset":12},{"type":"VEC2","componentType":5126,"count":288,"bufferView":0,"byteOffset":24},{"type":"SCALAR","componentType":5123,"count":588,"bufferView":1,"byteOffset":0}],"bufferViews":[{"buffer":0,"byteOffset":0,"byteLength":9216,"byteStride":32,"target":34962},{"buffer":0,"byteOffset":9216,"byteLength":1176,"target":34963}],"samplers":[{"magFilter":9728,"minFilter":9984,"wrapS":10497,"wrapT":10497}],"textures":[{"source":0,"sampler":0}],"images":[{"name":"Wardrobe_1_Base_color","mimeType":"image/png","uri":"textures/de5096832fe08c3c.png"}],"buffers":[{"uri":"Wardrobe_1.bin","byteLength":10392}],"materials":[{"name":"Wardrobe_1","doubleSided":true,"pbrMetallicRoughness":{"baseColorFactor":[0,0,0,1]},"emissiveFactor":[1,1,1],"emissiveTexture":{"index":0}}],"meshes":[{"name":"Cube.040","primitives":[{"attributes":{"POSITION":0,"NORMAL":1,"TEXCOORD_0":2},"mode":4,"material":0,"indices":3}]}],"nodes":[{"name":"Wardrobe_1","translation":[-20.99134063720703,2.3634114265441895,30.458221435546875],"rotation":[0.70710688829422,0,0,0.7071066498756409],"mesh":0,"scale":[0.2,0.2,0.2]}],"scenes":[{"name":"Scene","nodes":[0]}],"scene":0}