{"asset":{"generator":"glTF-Transform v4.3.0","version":"2.0"},"accessors":[{"type":"VEC3","componentType":5126,"count":44,"max":[1.559513807296753,0.18617409467697144,2.2070224285125732],"min":[2.456762013025582e-05,-0.042833782732486725,-1.8184407949447632],"bufferView":0,"byteOffset":0},{"type":"VEC3","componentType":5126,"count":44,"bufferView":0,"byteOffset":12},{"type":"VEC2","componentType":5126,"count":44,"bufferView":0,"byteOffset":24},{"type":"SCALAR","componentType":5123,"count":66,"bufferView":1,"byteOffset":0},{"type":"SCALAR","componentType":5123,"count":444,"bufferView":1,"byteOffset":132},{"type":"VEC3","componentType":5126,"count":44,"max":[-0.04286715015769005,0.19654540717601776,2.242835760116577],"min":[-1.6023564338684082,-0.0324624627828598,-1.7826277017593384],"bufferView":2,"byteOffset":0},{"type":"VEC2","componentType":5126,"count":44,"bufferView":2,"byteOffset":12},{"type":"VEC3","componentType":5126,"count":204,"max":[2.0021250247955322,0.8343258500099182,2.786386489868164],"min":[-2.0021250247955322,-0.8343258500099182,-3.316293954849243],"bufferView":3,"byteOffset":0},{"type":"VEC3","componentType":5126,"count":204,"bufferView":3,"byteOffset":12},{"type":"VEC2","componentType":5126,"count":204,"bufferView":3,"byteOffset":24}],"bufferViews":[{"buffer":0,"byteOffset":0,"byteLength":1408,"byteStride":32,"target":34962},{"buffer":0,"byteOffset":1408,"byteLength":1020,"target":34963},{"buffer":0,"byteOffset":2428,"byteLength":880,"byteStride":20,"target":34962},{"buffer":0,"byteOffset":3308,"byteLength":6528,"byteStride":32,"target":34962}],"samplers":[{"magFilter":9728,"minFilter":9984,"wrapS":10497,"wrapT":10497}],"textures":[{"source":0,"sampler":0}],"images":[{"name":"Wardrobe_2_Base_color","mimeType":"image/png","uri":"textures/24cb3b1e3e326b45.png"}],"buffers":[{"uri":"Wardrobe_2.bin","byteLength":9836}],"materials":[{"name":"Wardrobe_2","doubleSided":true,"pbrMetallicRoughness":{"baseColorFactor":[0,0,0,1]},"emissiveFactor":[1,1,1],"emissiveTexture":{"index":0}}],"meshes":[{"name":"Cube.074","primitives":[{"attributes":{"POSITION":0,"NORMAL":1,"TEXCOORD_0":2},"mode":4,"material":0,"indices":3}]},{"name":"Cube.073","primitives":[{"attributes":{"POSITION":5,"TEXCOORD_0":6,"NORMAL":1},"mode":4,"material":0,"indices":3}]},{"name":"Cube.071","primitives":[{"attributes":{"POSITION":7,"NORMAL":8,"TEXCOORD_0":9},"mode":4,"material":0,"indices":4}]}],"nodes":[{"name":"Wardrobe_2_DoorL","translation":[-1.65673828125,0.7204511165618896,-0.1942906528711319],"mesh":0},{"name":"Wardrobe_2_DoorR","translation":[1.6995887756347656,0.7100808620452881,-0.2301039844751358],"mesh":1},{"name":"Wardrobe_2","translation":[-16.17593765258789,1.5551109313964844,30.458219528198242],"rotation":[0.70710688829422,0,0,0.7071066498756409],"mesh":2,"children":[0,1],"scale":[0.2,0.2,0.2]}],"scenes":[{"name":"Scene","nodes":[2]}],"scene":0}