{"asset":{"generator":"glTF-Transform v4.3.0","version":"2.0"},"accessors":[{"type":"VEC3","componentType":5126,"count":596,"max":[1.4467852115631104,1.2483206987380981,1.2593919038772583],"min":[-1.4444878101348877,-0.9723487496376038,-1.0766113996505737],"bufferView":0,"byteOffset":0},{"type":"VEC3","componentType":5126,"count":596,"bufferView":0,"byteOffset":12},{"type":"VEC2","componentType":5126,"count":596,"bufferView":0,"byteOffset":24},{"type":"SCALAR","componentType":5123,"count":1380,"bufferView":1,"byteOffset":0}],"bufferViews":[{"buffer":0,"byteOffset":0,"byteLength":19072,"byteStride":32,"target":34962},{"buffer":0,"byteOffset":19072,"byteLength":2760,"target":34963}],"samplers":[{"magFilter":9728,"minFilter":9984,"wrapS":10497,"wrapT":10497}],"textures":[{"source":0,"sampler":0}],"images":[{"name":"Whetstone_Base_color","mimeType":"image/png","uri":"textures/a7887f5d19e240af.png"}],"buffers":[{"uri":"Whetstone.bin","byteLength":21832}],"materials":[{"name":"Whetstone","doubleSided":true,"pbrMetallicRoughness":{"baseColorFactor":[0,0,0,1]},"emissiveFactor":[1,1,1],"emissiveTexture":{"index":0}}],"meshes":[{"name":"Cube.022","primitives":[{"attributes":{"POSITION":0,"NORMAL":1,"TEXCOORD_0":2},"mode":4,"material":0,"indices":3}]}],"nodes":[{"name":"Whetstone","translation":[4.919792175292969,0.19448724389076233,35.792049407958984],"rotation":[0.70710688829422,0,0,0.7071066498756409],"mesh":0,"scale":[0.2,0.2,0.2]}],"scenes":[{"name":"Scene","nodes":[0]}],"scene":0}