{"asset":{"generator":"glTF-Transform v4.3.0","version":"2.0"},"accessors":[{"type":"VEC3","componentType":5126,"count":1336,"max":[1.7170435190200806,1.1030120849609375,1.934784173965454],"min":[-1.7164713144302368,-1.1758147478103638,-1.2931283712387085],"bufferView":0,"byteOffset":0},{"type":"VEC3","componentType":5126,"count":1336,"bufferView":0,"byteOffset":12},{"type":"VEC2","componentType":5126,"count":1336,"bufferView":0,"byteOffset":24},{"type":"SCALAR","componentType":5123,"count":4392,"bufferView":1,"byteOffset":0}],"bufferViews":[{"buffer":0,"byteOffset":0,"byteLength":42752,"byteStride":32,"target":34962},{"buffer":0,"byteOffset":42752,"byteLength":8784,"target":34963}],"samplers":[{"magFilter":9728,"minFilter":9984,"wrapS":10497,"wrapT":10497}],"textures":[{"source":0,"sampler":0}],"images":[{"name":"Wine_Box_Base_color","mimeType":"image/png","uri":"textures/ef83955921fbef17.png"}],"buffers":[{"uri":"Wine_Box.bin","byteLength":51536}],"materials":[{"name":"Wine_Box","doubleSided":true,"pbrMetallicRoughness":{"baseColorFactor":[0,0,0,1]},"emissiveFactor":[1,1,1],"emissiveTexture":{"index":0}}],"meshes":[{"name":"Cube.009","primitives":[{"attributes":{"POSITION":0,"NORMAL":1,"TEXCOORD_0":2},"mode":4,"material":0,"indices":3}]}],"nodes":[{"name":"Wine_Box","translation":[3.9938888549804688,1.3268585205078125,7.599489212036133],"rotation":[0.70710688829422,0,0,0.7071066498756409],"mesh":0,"scale":[0.2,0.2,0.2]}],"scenes":[{"name":"Scene","nodes":[0]}],"scene":0}